<svg width="310" height="310" viewBox="0 0 310 310" fill="none" xmlns="http://www.w3.org/2000/svg">
<rect width="310" height="310" fill="white"/>
<path d="M180.24 54.7018C122.684 55.3273 75.945 54.9382 33.5203 56.4082C29.545 56.5459 25.8333 57.4322 23.5906 67.0292C19.9637 82.5498 24.8125 85.5518 37.3814 84.7226C58.1008 83.3558 78.9696 83.5874 99.7391 83.2665C139.142 82.6578 200.64 81.9253 200.64 81.9253L250.472 81.9599C250.472 81.9599 263.702 81.0871 271.728 81.8865C282.215 82.931 285.091 63.5763 282.726 57.2425C279.911 49.7023 260.909 52.9791 254.549 53.1217C254.549 53.1217 208.243 54.3975 180.24 54.7018Z" fill="#021F25" stroke="#021F25"/>
<path d="M125.705 226.35C183.261 226.976 230 226.587 272.425 228.057C276.4 228.194 280.112 229.081 282.354 238.678C285.981 254.198 281.441 258.885 268.872 258.056C248.153 256.689 226.975 255.236 206.206 254.915C166.803 254.306 145.01 252.589 105.784 252.752C86.1336 252.834 55.4731 253.608 55.4731 253.608C55.4731 253.608 42.2426 252.736 34.217 253.535C23.73 254.579 20.8544 235.225 23.2192 228.891C26.0345 221.351 34.217 226.35 51.4211 226.35C51.4211 226.35 97.7017 226.046 125.705 226.35Z" fill="#021F25" stroke="#021F25"/>
<path d="M25.1363 149.221C19.8334 163.552 22.0262 165.178 29.5162 168.73C37.0062 172.282 79.2324 167.536 111.111 167.432C135.564 167.353 149.282 167.709 173.74 167.835C209.216 168.019 244.198 168.288 259.855 168.389C266.901 168.434 279.16 171.457 284.222 159.436C293.374 137.702 286.045 140.59 267.221 140.827C224.44 141.367 200.424 140.627 157.62 140.122C116.084 139.633 86.3857 139.594 53.5865 138.542C41.1234 138.143 29.1766 138.302 25.1363 149.221Z" fill="#021F25" stroke="#021F25"/>
</svg>
