<svg width="276" height="230" viewBox="0 0 276 230" fill="none" xmlns="http://www.w3.org/2000/svg">
<path d="M150.684 52.4817C143.184 76.9817 138.684 98.9817 130.684 130.982C128.351 140.31 132.184 151.982 139.184 156.482C144.266 159.749 147.974 156.482 149.184 148.982C151.684 133.482 153.833 114.75 159.184 93.9818C168.459 57.9818 173.184 41.4817 176.684 41.4817C183.184 41.4817 185.684 73.9817 206.684 76.9817C212.684 77.8389 225.684 64.4817 232.684 57.4817C240.427 49.7386 253.184 39.4817 256.684 42.4817C260.184 45.4817 253.299 76.0344 250.684 97.4818C247.247 125.661 244.184 139.482 240.684 169.482C239.509 179.552 240.684 187.982 247.684 194.482C251.051 197.609 260.684 198.982 259.184 187.482C257.684 175.982 261.184 143.982 265.684 113.982C270.859 79.4818 275.184 72.0034 275.184 48.9817C275.184 35.9817 269.184 15.4817 254.184 13.9817C239.184 12.4817 214.184 50.9817 202.184 49.9817C196.684 49.5234 191.184 18.013 176.684 13.4817C162.684 9.10676 155.875 35.5244 150.684 52.4817Z" fill="#021F25" stroke="#021F25"/>
<path d="M21.3663 18.4012C22.3663 7.90124 36.3663 -2.09876 39.3663 1.90124C41.785 5.12614 37.8662 16.4012 35.3663 62.4012C33.5077 89.2643 32.7899 116.75 32.3662 125.401C32.3662 125.401 69.6047 101.401 96.3662 65.9012C124.258 28.9012 120.866 14.4012 128.866 22.4012C132.126 25.6608 135.019 33.4012 132.366 38.4012C119.366 62.9012 112.48 74.8356 94.3662 95.9013C74.8807 118.562 36.8662 146.401 36.8662 146.401L37.3662 146.901C60.3662 163.901 123.956 182.681 177.366 180.901C202.366 180.068 205.866 177.674 209.866 178.401C220.866 180.401 229.866 198.401 221.366 202.401C216.071 204.893 174.985 204.743 154.866 203.401C136.366 202.168 98.3662 195.401 67.3662 182.401C51.4853 175.741 28.8662 160.901 28.8662 160.901C28.8662 160.901 27.7737 174.173 26.3662 182.901C24.1269 196.788 22.8662 209.901 18.8662 216.901C15.2105 223.299 6.36601 231.401 2.36624 227.901C-0.750927 225.174 2.29311 221.301 3.36631 216.901C8.36642 196.401 10.6756 170.169 12.3662 145.901C12.3662 145.901 9.44464 141.555 9.3662 138.401C9.28039 134.952 9.86629 133.401 13.3662 131.401C13.3662 131.401 15.7701 92.9167 17.8663 60.4012C19.1298 40.8018 20.3663 28.9012 21.3663 18.4012Z" fill="#021F25"/>
<path d="M36.8662 146.401C36.8662 146.401 74.8807 118.561 94.3662 95.9013C112.48 74.8356 119.366 62.9012 132.366 38.4012C135.019 33.4012 132.126 25.6608 128.866 22.4012C120.866 14.4012 124.258 28.9012 96.3662 65.9012C69.6047 101.401 32.3662 125.401 32.3662 125.401C32.7899 116.75 33.5077 89.2643 35.3663 62.4012C37.8662 16.4012 41.785 5.12614 39.3663 1.90124C36.3663 -2.09876 22.3663 7.90124 21.3663 18.4012C20.3663 28.9012 19.1298 40.8018 17.8663 60.4012C15.7701 92.9167 13.3662 131.401 13.3662 131.401C9.86629 133.401 9.28039 134.952 9.3662 138.401C9.44464 141.555 12.3662 145.901 12.3662 145.901C10.6756 170.169 8.36642 196.401 3.36631 216.901C2.29311 221.301 -0.750927 225.174 2.36624 227.901C6.36601 231.401 15.2105 223.299 18.8662 216.901C22.8662 209.901 24.1269 196.788 26.3662 182.901C27.7737 174.173 28.8662 160.901 28.8662 160.901C28.8662 160.901 51.4853 175.741 67.3662 182.401C98.3662 195.401 136.366 202.168 154.866 203.401C174.985 204.743 216.071 204.893 221.366 202.401C229.866 198.401 220.866 180.401 209.866 178.401C205.866 177.674 202.366 180.068 177.366 180.901C123.956 182.681 60.3662 163.901 37.3662 146.901M36.8662 146.401C36.8662 146.401 36.8913 146.7 37.3662 146.901M36.8662 146.401L37.3662 146.901" stroke="#021F25"/>
</svg>
