<svg width="2894" height="2390" viewBox="0 0 2894 2390" fill="none" xmlns="http://www.w3.org/2000/svg">
<path d="M1527.33 1405.06C1498.85 1385.26 1464.25 1373.66 1426.94 1373.66C1341.93 1373.66 1270.98 1433.92 1254.5 1514.06H1565.11C1565.11 1472.9 1550.99 1435.04 1527.33 1405.06Z" fill="white"/>
<path d="M1213 1514.06C1213 1416.82 1291.82 1338 1389.06 1338C1445.13 1338 1495.08 1364.22 1527.33 1405.06C1573.06 1436.86 1603 1489.79 1603 1549.71L1565.11 1514.06C1565.11 1472.9 1550.99 1435.04 1527.33 1405.06C1498.85 1385.26 1464.25 1373.66 1426.94 1373.66C1341.93 1373.66 1270.98 1433.92 1254.5 1514.06C1252.13 1525.57 1250.89 1537.5 1250.89 1549.71L1213 1514.06Z" fill="#007EA7"/>
<path d="M1527.33 1405.06C1498.85 1385.26 1464.25 1373.66 1426.94 1373.66C1341.93 1373.66 1270.98 1433.92 1254.5 1514.06C1252.13 1525.57 1250.89 1537.5 1250.89 1549.71L1213 1514.06C1213 1416.82 1291.82 1338 1389.06 1338C1445.13 1338 1495.08 1364.22 1527.33 1405.06ZM1527.33 1405.06C1573.06 1436.86 1603 1489.79 1603 1549.71L1565.11 1514.06C1565.11 1472.9 1550.99 1435.04 1527.33 1405.06Z" stroke="#021F25" stroke-width="5" stroke-linejoin="round"/>
<path d="M1565.11 1514.06L1603 1549.71M1565.11 1514.06C1565.11 1472.9 1550.99 1435.04 1527.33 1405.06M1565.11 1514.06H1254.5M1250.89 1549.71H1603M1250.89 1549.71L1213 1514.06C1213 1416.82 1291.82 1338 1389.06 1338C1445.13 1338 1495.08 1364.22 1527.33 1405.06M1250.89 1549.71C1250.89 1537.5 1252.13 1525.57 1254.5 1514.06M1603 1549.71C1603 1489.79 1573.06 1436.86 1527.33 1405.06M1527.33 1405.06C1498.85 1385.26 1464.25 1373.66 1426.94 1373.66C1341.93 1373.66 1270.98 1433.92 1254.5 1514.06" stroke="#021F25" stroke-width="5" stroke-linejoin="round"/>
<path d="M1167 1560.5L1165 1326L1108 1382.88L990.128 1500.5L930 1560.5H1167Z" fill="#F7DAB4"/>
<path d="M1107 1266L1165 1326L1108 1382.88L1107 1266Z" fill="white"/>
<path d="M872 1500.5L930 1560.5L990.128 1500.5H872Z" fill="white"/>
<path d="M1165 1326L1167 1560.5H930M1165 1326L1107 1266M1165 1326L1108 1382.88M930 1560.5L872 1500.5M930 1560.5L990.128 1500.5M1107 1266L872 1500.5M1107 1266L1108 1382.88M872 1500.5H990.128M990.128 1500.5L1108 1382.88" stroke="#021F25" stroke-width="5" stroke-linejoin="round"/>
<path d="M1319 643.5L1387 784L1441.91 679.477L1459.5 646L1442.33 610.383L1392.5 507L1319 643.5Z" fill="white"/>
<path d="M1492.5 784L1565 646H1459.5L1441.91 679.477L1387 784H1492.5Z" fill="#F96557"/>
<path d="M1387 784L1319 643.5L1392.5 507M1387 784H1492.5L1565 646M1387 784L1441.91 679.477L1459.5 646M1392.5 507H1498M1392.5 507L1442.33 610.383M1459.5 646H1565M1459.5 646L1442.33 610.383M1498 507L1565 646M1498 507L1442.33 610.383" stroke="#021F25" stroke-width="5" stroke-linejoin="round"/>
<path d="M1450 976H1562H1646V1313H1450V1227V976Z" fill="#B8E2C8"/>
<path d="M1366 890H1562V976H1450V1227H1366V890Z" fill="white"/>
<path d="M1450 976L1366 890M1450 976H1562M1450 976V1227M1646 976V1313H1450M1646 976L1562 890M1646 976H1562M1450 1313L1366 1227M1450 1313V1227M1366 890H1562M1366 890V1227M1562 890V976M1366 1227H1450" stroke="#021F25" stroke-width="5" stroke-linejoin="round"/>
<path d="M1306 714H1081V750V940H1274H1306V714Z" fill="#F7DAB4"/>
<path d="M1274 976H1049V750H1081V940H1274V958V976Z" fill="white"/>
<path d="M1081 714H1306M1081 714L1049 750M1081 714V750M1306 714V940M1306 714L1274 750M1306 940L1274 976M1306 940H1274M1081 940H1274M1081 940V750M1081 940L1049 976M1049 750V976M1049 750H1081M1274 750V940M1274 750H1081M1274 976H1049M1274 976V940" stroke="#021F25" stroke-width="5" stroke-linejoin="round"/>
<path d="M1141.89 1242.44C1113.36 1220.3 1095 1185.69 1095 1146.78C1095 1073.7 1162.4 1016.37 1234.11 1027.13C1262.64 1049.27 1281 1083.88 1281 1122.78C1281 1195.86 1213.6 1253.2 1141.89 1242.44Z" fill="white"/>
<path d="M1105.5 1230.85C1066.05 1210.91 1039 1170.01 1039 1122.78C1039 1040.95 1122.76 982.263 1199 1008.21C1211.8 1012.56 1223.64 1019.01 1234.11 1027.13C1162.4 1016.37 1095 1073.7 1095 1146.78C1095 1185.69 1113.36 1220.3 1141.89 1242.44C1128.98 1240.5 1116.74 1236.52 1105.5 1230.85Z" fill="#B4ADEA"/>
<path d="M1199 1008.21L1271 1038.98M1199 1008.21C1211.8 1012.56 1223.64 1019.01 1234.11 1027.13M1199 1008.21C1122.76 982.263 1039 1040.95 1039 1122.78C1039 1170.01 1066.05 1210.91 1105.5 1230.85M1105.5 1230.85L1178.5 1261.86M1105.5 1230.85C1116.74 1236.52 1128.98 1240.5 1141.89 1242.44M1178.5 1261.86C1165.12 1257.5 1152.76 1250.88 1141.89 1242.44M1178.5 1261.86C1254.5 1286.61 1337 1227.96 1337 1146.78C1337 1099.76 1310.18 1059.01 1271 1038.98M1271 1038.98C1259.63 1033.16 1247.21 1029.1 1234.11 1027.13M1141.89 1242.44C1113.36 1220.3 1095 1185.69 1095 1146.78C1095 1073.7 1162.4 1016.37 1234.11 1027.13M1141.89 1242.44C1213.6 1253.2 1281 1195.86 1281 1122.78C1281 1083.88 1262.64 1049.27 1234.11 1027.13" stroke="#021F25" stroke-width="5"/>
<path d="M763 976L698 1091L763 1207H792.513H903L968 1094.5L908.869 996.5L896.5 976H763Z" fill="white"/>
<path d="M903 1207L968 1094.5L908.869 996.5H937.5L1009 1115L944 1227.5H804L792.513 1207H903Z" fill="#007EA7"/>
<path d="M896.5 976H763L698 1091L763 1207M896.5 976L937.5 996.5M896.5 976L908.869 996.5M968 1094.5L903 1207M968 1094.5L1009 1115M968 1094.5L908.869 996.5M903 1207L944 1227.5M903 1207H792.513M763 1207L804 1227.5M763 1207H792.513M937.5 996.5L1009 1115M937.5 996.5H908.869M1009 1115L944 1227.5M944 1227.5H804M804 1227.5L792.513 1207" stroke="#021F25" stroke-width="5" stroke-linejoin="round"/>
<path d="M863.5 894.5L784.5 937L787.827 881.957L830.5 859L910 901.5L905 810.5L941.522 769.026L997 779L938 846L943 937L863.5 894.5Z" fill="#B4ADEA"/>
<path d="M875 727.5L856.037 695.139L862 684.5L888.634 729.951L875 727.5Z" fill="#B4ADEA"/>
<path d="M751.5 901.5L787.827 881.957L830.5 859L910 901.5L905 810.5L941.522 769.026L964 743.5L888.634 729.951L875 727.5L856.037 695.139L829 649L785 727.5L698 744.5L757 810.5L751.5 901.5Z" fill="white"/>
<path d="M863.5 894.5L784.5 937M863.5 894.5L943 937M863.5 894.5L830.5 859M784.5 937L751.5 901.5M784.5 937L787.827 881.957M862 684.5L829 649M862 684.5L856.037 695.139M862 684.5L888.634 729.951M997 779L938 846M997 779L964 743.5M997 779L941.522 769.026M938 846L943 937M938 846L905 810.5M943 937L910 901.5M830.5 859L910 901.5M830.5 859L787.827 881.957M751.5 901.5L757 810.5L698 744.5L785 727.5L829 649M751.5 901.5L787.827 881.957M829 649L856.037 695.139M964 743.5L888.634 729.951M964 743.5L941.522 769.026M905 810.5L910 901.5M905 810.5L941.522 769.026M856.037 695.139L875 727.5L888.634 729.951" stroke="#021F25" stroke-width="5" stroke-linejoin="round"/>
<path d="M549.5 662L541.966 675.103L430.642 868.71L411.5 902L689 900.5L549.5 662Z" fill="#F96557"/>
<path d="M515 629L377 869L430.642 868.71L541.966 675.103L515 629Z" fill="white"/>
<path d="M411.5 902L689 900.5L549.5 662M411.5 902L377 869M411.5 902L430.642 868.71M549.5 662L515 629M549.5 662L541.966 675.103M377 869L515 629M377 869L430.642 868.71M515 629L541.966 675.103M430.642 868.71L541.966 675.103" stroke="#021F25" stroke-width="5" stroke-linejoin="round"/>
<path d="M1076 456C988.739 456 918 526.739 918 614H955.242H1234C1234 577.063 1221.33 543.086 1200.09 516.182C1171.15 479.527 1126.32 456 1076 456Z" fill="white"/>
<path d="M952 646L918 614H955.242C953.117 624.334 952 635.037 952 646Z" fill="#007EA7"/>
<path d="M918 614C918 526.739 988.739 456 1076 456C1126.32 456 1171.15 479.527 1200.09 516.182M918 614L952 646M918 614H955.242M1234 614L1268 646M1234 614C1234 577.063 1221.33 543.086 1200.09 516.182M1234 614H955.242M952 646H1268M952 646C952 635.037 953.117 624.334 955.242 614M1268 646C1268 592.222 1241.13 544.719 1200.09 516.182" stroke="#021F25" stroke-width="5" stroke-linejoin="round"/>
<path d="M748 589L813 476.5L753.869 378.5H649L584 493.5L637.513 589H748Z" fill="white"/>
<path d="M748 589L813 476.5L753.869 378.5L741.5 358L782.5 378.5L854 497L789 609.5H649L608 589H637.513H748Z" fill="#007EA7"/>
<path d="M543 473L608 358M543 473L608 589M543 473L584 493.5M608 358H741.5M608 358L649 378.5M741.5 358L782.5 378.5L854 497M741.5 358L753.869 378.5M813 476.5L748 589M813 476.5L854 497M813 476.5L753.869 378.5M748 589L789 609.5M748 589H637.513M608 589L649 609.5H789M608 589H637.513M584 493.5L649 378.5M584 493.5L637.513 589M649 378.5H753.869M854 497L789 609.5" stroke="#021F25" stroke-width="5" stroke-linejoin="round"/>
<path d="M591 313H816V277V87H623H591V313Z" fill="white"/>
<path d="M623 51H848V277H816V87H623V51Z" fill="#F7DAB4"/>
<path d="M623 51H848M623 51L591 87M623 51V87M848 51V277M848 51L816 87M848 277L816 313M848 277H816M591 87V313H816M591 87H623M816 87V277M816 87H623M816 313V277" stroke="#021F25" stroke-width="5" stroke-linejoin="round"/>
<path d="M1194 302.785C1194 350.006 1221.05 390.909 1260.5 410.845C1271.74 416.523 1283.98 420.5 1296.89 422.438C1368.6 433.203 1436 375.865 1436 302.785C1436 263.882 1417.64 229.267 1389.11 207.131C1378.64 199.007 1366.8 192.564 1354 188.207C1277.76 162.263 1194 220.949 1194 302.785Z" fill="#B4ADEA"/>
<path d="M1354 188.207L1426 218.978M1354 188.207C1366.8 192.564 1378.64 199.007 1389.11 207.131M1354 188.207C1277.76 162.263 1194 220.949 1194 302.785C1194 350.006 1221.05 390.909 1260.5 410.845M1260.5 410.845L1333.5 441.861M1260.5 410.845C1271.74 416.523 1283.98 420.5 1296.89 422.438M1333.5 441.861C1320.12 437.504 1307.76 430.878 1296.89 422.438M1333.5 441.861C1409.5 466.61 1492 407.962 1492 326.785C1492 279.763 1465.18 239.006 1426 218.978M1426 218.978C1414.63 213.165 1402.21 209.098 1389.11 207.131M1296.89 422.438C1268.36 400.303 1250 365.688 1250 326.785C1250 253.704 1317.4 196.366 1389.11 207.131M1296.89 422.438C1368.6 433.203 1436 375.865 1436 302.785C1436 263.882 1417.64 229.267 1389.11 207.131" stroke="#021F25" stroke-width="5"/>
<path d="M463.5 357.5L427.173 377.043L384.5 400L305 357.5L310 448.5L273.478 489.974L251 515.5L326.366 529.049L340 531.5L358.963 563.861L386 610L430 531.5L517 514.5L458 448.5L463.5 357.5Z" fill="white"/>
<path d="M386 610L353 574.5L326.366 529.049L340 531.5L358.963 563.861L386 610Z" fill="#B4ADEA"/>
<path d="M463.5 357.5L430.5 322L427.75 367.5L427.173 377.043L463.5 357.5Z" fill="#B4ADEA"/>
<path d="M251 515.5L218 480L273.478 489.974L251 515.5Z" fill="#B4ADEA"/>
<path d="M351.5 364.5L430.5 322M351.5 364.5L272 322M351.5 364.5L384.5 400M430.5 322L463.5 357.5M430.5 322L427.75 367.5L427.173 377.043M218 480L277 413M218 480L251 515.5M218 480L273.478 489.974M277 413L272 322M277 413L310 448.5M272 322L305 357.5M384.5 400L305 357.5M384.5 400L427.173 377.043M463.5 357.5L458 448.5L517 514.5L430 531.5L386 610M463.5 357.5L427.173 377.043M386 610L353 574.5L326.366 529.049M386 610L358.963 563.861L340 531.5L326.366 529.049M251 515.5L326.366 529.049M251 515.5L273.478 489.974M310 448.5L305 357.5M310 448.5L273.478 489.974" stroke="#021F25" stroke-width="5" stroke-linejoin="round"/>
<path d="M994.5 151L1002.03 164.103L1113.36 357.71L1132.5 391L855 389.5L994.5 151Z" fill="white"/>
<path d="M1029 118L994.5 151L1002.03 164.103L1029 118Z" fill="#F96557"/>
<path d="M1167 358L1132.5 391L1113.36 357.71L1167 358Z" fill="#F96557"/>
<path d="M1132.5 391L855 389.5L994.5 151M1132.5 391L1167 358M1132.5 391L1113.36 357.71M994.5 151L1029 118M994.5 151L1002.03 164.103M1167 358L1029 118M1167 358L1113.36 357.71M1029 118L1002.03 164.103M1113.36 357.71L1002.03 164.103" stroke="#021F25" stroke-width="5" stroke-linejoin="round"/>
<path d="M240 841.5L238.997 723.882L238 607L3 841.5H121.128H240Z" fill="#F7DAB4"/>
<path d="M296 667L298 901.5H61L121.128 841.5H240L238.997 723.882L296 667Z" fill="white"/>
<path d="M296 667L298 901.5M296 667L238 607M296 667L238.997 723.882M298 901.5H61M298 901.5L240 841.5M61 901.5L3 841.5M61 901.5L121.128 841.5M238 607L3 841.5M238 607L238.997 723.882M240 841.5H121.128M240 841.5L238.997 723.882M3 841.5H121.128" stroke="#021F25" stroke-width="5" stroke-linejoin="round"/>
<path d="M536 1415.5V1310L640.523 1364.91L536 1415.5Z" fill="#F96557"/>
<path d="M813 1421V1315.5L709.617 1365.33L813 1421Z" fill="#F96557"/>
<path d="M676.5 1242L536 1310L674 1382.5L813 1315.5L676.5 1242Z" fill="white"/>
<path d="M536 1310L676.5 1242L813 1315.5M536 1310V1415.5M536 1310L640.523 1364.91M813 1315.5V1421M813 1315.5L709.617 1365.33M674 1382.5V1488M674 1382.5L709.617 1365.33M674 1382.5L640.523 1364.91M536 1415.5L674 1488M536 1415.5L640.523 1364.91M813 1421L674 1488M813 1421L709.617 1365.33" stroke="#021F25" stroke-width="5" stroke-linejoin="round"/>
<path d="M411 234L476 121.5L416.869 23.5L404.5 3L445.5 23.5L517 142L452 254.5H312L271 234H300.513H411Z" fill="white"/>
<path d="M411 234L476 121.5L416.869 23.5H312L247 138.5L300.513 234H411Z" fill="#007EA7"/>
<path d="M206 118L271 3M206 118L271 234M206 118L247 138.5M271 3H404.5M271 3L312 23.5M404.5 3L445.5 23.5L517 142M404.5 3L416.869 23.5M476 121.5L411 234M476 121.5L517 142M476 121.5L416.869 23.5M411 234L452 254.5M411 234H300.513M271 234L312 254.5H452M271 234H300.513M247 138.5L312 23.5M247 138.5L300.513 234M312 23.5H416.869M517 142L452 254.5" stroke="#021F25" stroke-width="5" stroke-linejoin="round"/>
<path d="M1652 839.757C1652 932.817 1713.11 1008.26 1788.5 1008.26C1827.31 1008.26 1862.33 988.268 1887.18 956.176C1910.61 925.923 1925 884.915 1925 839.757V805.257C1902.76 805.257 1883.57 805.286 1867.24 805.329C1853.97 805.364 1842.59 805.409 1833 805.456C1833 805.456 1836.83 853.507 1824.66 887.163C1818.16 905.124 1807.12 918.985 1788.5 919.257C1735 920.04 1742.5 805.051 1742.5 805.051C1725.55 804.951 1705.84 804.978 1686 805.318C1674.54 805.515 1663.04 805.816 1652 806.257V839.757Z" fill="#B8E2C8"/>
<path d="M1959 773.257C1918.68 773.257 1888.4 773.35 1867 773.456L1833 805.456C1842.59 805.409 1853.97 805.364 1867.24 805.329C1883.57 805.286 1902.76 805.257 1925 805.257L1959 773.257Z" fill="white"/>
<path d="M1776.5 773.051C1749.76 772.893 1716.14 773.052 1686 774.257L1652 806.257C1663.04 805.816 1674.54 805.515 1686 805.318C1705.84 804.978 1725.55 804.951 1742.5 805.051L1776.5 773.051Z" fill="white"/>
<path d="M1686 807.757V805.318M1959 773.257V807.757C1959 871.928 1929.94 927.72 1887.18 956.176M1959 773.257C1918.68 773.257 1888.4 773.35 1867 773.456M1959 773.257L1925 805.257M1686 774.257C1716.14 773.052 1749.76 772.893 1776.5 773.051M1686 774.257L1652 806.257M1686 774.257V805.318M1867 773.456L1833 805.456M1867 773.456C1867 773.456 1868.1 787.299 1867.24 805.329M1776.5 773.051C1776.5 773.051 1769 888.04 1822.5 887.257C1823.23 887.247 1823.95 887.215 1824.66 887.163M1776.5 773.051L1742.5 805.051M1925 805.257V839.757C1925 884.915 1910.61 925.923 1887.18 956.176M1925 805.257C1902.76 805.257 1883.57 805.286 1867.24 805.329M1652 806.257V839.757C1652 932.817 1713.11 1008.26 1788.5 1008.26C1827.31 1008.26 1862.33 988.268 1887.18 956.176M1652 806.257C1663.04 805.816 1674.54 805.515 1686 805.318M1833 805.456C1833 805.456 1836.83 853.507 1824.66 887.163M1833 805.456C1842.59 805.409 1853.97 805.364 1867.24 805.329M1742.5 805.051C1742.5 805.051 1735 920.04 1788.5 919.257C1807.12 918.985 1818.16 905.124 1824.66 887.163M1742.5 805.051C1725.55 804.951 1705.84 804.978 1686 805.318" stroke="#021F25" stroke-width="5" stroke-linejoin="round"/>
<path d="M1933 1109.5L2002.5 969H2107.5L2055.19 1073.25L2037 1109.5H1933Z" fill="white"/>
<path d="M2072 1106.5H2178.5L2107.5 1247.5H2002.5L2054.06 1142.9L2072 1106.5Z" fill="white"/>
<path d="M2107.5 969L2178.5 1106.5H2072L2054.06 1142.9L2037 1109.5L2055.19 1073.25L2107.5 969Z" fill="#F96557"/>
<path d="M2002.5 969L1933 1109.5M2002.5 969H2107.5M2002.5 969L2055.19 1073.25M1933 1109.5L2002.5 1247.5M1933 1109.5H2037M2002.5 1247.5H2107.5L2178.5 1106.5M2002.5 1247.5L2054.06 1142.9M2072 1106.5H2178.5M2072 1106.5L2054.06 1142.9M2072 1106.5L2055.19 1073.25M2107.5 969L2178.5 1106.5M2107.5 969L2055.19 1073.25M2037 1109.5L2054.06 1142.9M2037 1109.5L2055.19 1073.25" stroke="#021F25" stroke-width="5" stroke-linejoin="round"/>
<path d="M1389.06 2157C1291.82 2157 1213 2235.82 1213 2333.06H1254.5H1565.11C1565.11 2291.9 1550.99 2254.04 1527.33 2224.06C1495.08 2183.22 1445.13 2157 1389.06 2157Z" fill="#007EA7"/>
<path d="M1603 2368.71L1565.11 2333.06C1565.11 2291.9 1550.99 2254.04 1527.33 2224.06C1573.06 2255.86 1603 2308.79 1603 2368.71Z" fill="white"/>
<path d="M1213 2333.06C1213 2235.82 1291.82 2157 1389.06 2157C1445.13 2157 1495.08 2183.22 1527.33 2224.06M1213 2333.06L1250.89 2368.71M1213 2333.06H1254.5M1565.11 2333.06L1603 2368.71M1565.11 2333.06C1565.11 2291.9 1550.99 2254.04 1527.33 2224.06M1565.11 2333.06H1254.5M1250.89 2368.71H1603M1250.89 2368.71C1250.89 2356.5 1252.13 2344.57 1254.5 2333.06M1603 2368.71C1603 2308.79 1573.06 2255.86 1527.33 2224.06" stroke="#021F25" stroke-width="5" stroke-linejoin="round"/>
<path d="M1805.5 740L1726.5 697.5L1647 740L1652 649L1593 582L1648.48 572.026L1685.5 614.5L1680 704L1759 662.5L1802.17 684.957L1802.75 694.5L1805.5 740Z" fill="#B4ADEA"/>
<path d="M1859 583L1800 649L1802.17 684.957L1802.75 694.5L1805.5 740L1838.5 704.5L1833 613.5L1892 547.5L1805 530.5L1761 452L1728 487.5L1701.37 532.951L1626 546.5L1593 582L1648.48 572.026L1682 566L1701.37 532.951L1728 487.5L1733.96 498.139L1772 566L1859 583Z" fill="white"/>
<path d="M1726.5 697.5L1805.5 740M1726.5 697.5L1647 740M1726.5 697.5L1759.5 662M1805.5 740L1838.5 704.5L1833 613.5M1805.5 740L1802.75 694.5L1802.17 684.957M1800 649L1859 583M1800 649L1833 613.5M1800 649L1802.17 684.957M1859 583L1772 566M1859 583L1892 547.5M1772 566L1733.96 498.139L1728 487.5M1772 566L1788.5 548.25L1805 530.5M1728 487.5L1761 452L1805 530.5M1728 487.5L1701.37 532.951M1593 582L1652 649M1593 582L1626 546.5L1701.37 532.951M1593 582L1648.48 572.026M1652 649L1647 740M1652 649L1685 613.5M1647 740L1680 704.5M1759.5 662L1680 704.5M1759.5 662L1802.17 684.957M1833 613.5L1892 547.5M1892 547.5L1805 530.5M1685 613.5L1680 704.5M1685 613.5L1648.48 572.026M1701.37 532.951L1682 566L1648.48 572.026" stroke="#021F25" stroke-width="5" stroke-linejoin="round"/>
<path d="M691 2183.8L657 2215.8C657 2215.8 655.898 2201.96 656.758 2183.93C670.027 2183.89 681.406 2183.85 691 2183.8Z" fill="#B8E2C8"/>
<path d="M872 2183L838 2215V2183.94C849.462 2183.74 860.965 2183.44 872 2183Z" fill="#B8E2C8"/>
<path d="M701.5 2013C678.097 2013 656.069 2020.27 636.818 2033.08C594.059 2061.54 565 2117.33 565 2181.5V2216C605.322 2216 635.601 2215.91 657 2215.8C657 2215.8 655.898 2201.96 656.758 2183.93C658.322 2151.14 666.375 2104.52 699.342 2102.09C700.05 2102.04 700.769 2102.01 701.5 2102C755 2101.22 747.5 2216.21 747.5 2216.21C774.241 2216.36 807.864 2216.21 838 2215V2183.94V2181.5C838 2088.44 776.887 2013 701.5 2013Z" fill="white"/>
<path d="M838 2215C807.864 2216.21 774.241 2216.36 747.5 2216.21C747.5 2216.21 755 2101.22 701.5 2102C700.769 2102.01 700.05 2102.04 699.342 2102.09M838 2215L872 2183M838 2215V2183.94M657 2215.8C635.601 2215.91 605.322 2216 565 2216V2181.5C565 2117.33 594.059 2061.54 636.818 2033.08M657 2215.8L691 2183.8M657 2215.8C657 2215.8 655.898 2201.96 656.758 2183.93M872 2183V2149.5C872 2056.44 810.887 1981 735.5 1981C696.694 1981 661.671 2000.99 636.818 2033.08M872 2183C860.965 2183.44 849.462 2183.74 838 2183.94M691 2183.8C691 2183.8 687.174 2135.75 699.342 2102.09M691 2183.8C681.406 2183.85 670.027 2183.89 656.758 2183.93M636.818 2033.08C656.069 2020.27 678.097 2013 701.5 2013C776.887 2013 838 2088.44 838 2181.5V2183.94M699.342 2102.09C666.375 2104.52 658.322 2151.14 656.758 2183.93" stroke="#021F25" stroke-width="5" stroke-linejoin="round"/>
<path d="M1513.5 1605L1505.97 1618.1L1394.64 1811.71L1375.5 1845L1653 1843.5L1513.5 1605Z" fill="white"/>
<path d="M1479 1572L1513.5 1605L1505.97 1618.1L1479 1572Z" fill="#F96557"/>
<path d="M1341 1812L1375.5 1845L1394.64 1811.71L1341 1812Z" fill="#F96557"/>
<path d="M1375.5 1845L1653 1843.5L1513.5 1605M1375.5 1845L1341 1812M1375.5 1845L1394.64 1811.71M1513.5 1605L1479 1572M1513.5 1605L1505.97 1618.1M1341 1812L1479 1572M1341 1812L1394.64 1811.71M1479 1572L1505.97 1618.1M1394.64 1811.71L1505.97 1618.1" stroke="#021F25" stroke-width="5" stroke-linejoin="round"/>
<path d="M2891 2086H2666V2122V2312H2859H2891V2086Z" fill="white"/>
<path d="M2634 2122L2666 2086V2122H2634Z" fill="#F7DAB4"/>
<path d="M2891 2312L2859 2348V2312H2891Z" fill="#F7DAB4"/>
<path d="M2666 2086H2891V2312M2666 2086L2634 2122M2666 2086V2122M2891 2312L2859 2348M2891 2312H2859M2666 2312H2859M2666 2312V2122M2666 2312L2634 2348M2634 2122V2348M2634 2122H2666M2859 2348H2634M2859 2348V2312" stroke="#021F25" stroke-width="5" stroke-linejoin="round"/>
<path d="M1922 1335.5H1685L1743 1275.5H1861.87H1980L1922 1335.5Z" fill="#F7DAB4"/>
<path d="M1743 1275.5L1744 1157.88L1745 1041L1980 1275.5H1861.87H1743Z" fill="white"/>
<path d="M1687 1101L1685 1335.5M1687 1101L1745 1041M1687 1101L1744 1157.88M1685 1335.5H1922M1685 1335.5L1743 1275.5M1922 1335.5L1980 1275.5M1922 1335.5L1891.94 1305.5L1861.87 1275.5M1745 1041L1980 1275.5M1745 1041L1744 1157.88M1743 1275.5H1861.87M1743 1275.5L1744 1157.88M1980 1275.5H1861.87M1861.87 1275.5L1744 1157.88" stroke="#021F25" stroke-width="5" stroke-linejoin="round"/>
<path d="M1898.11 2073.44C1926.64 2051.3 1945 2016.69 1945 1977.78C1945 1904.7 1877.6 1847.37 1805.89 1858.13C1777.36 1880.27 1759 1914.88 1759 1953.78C1759 2026.86 1826.4 2084.2 1898.11 2073.44Z" fill="#B4ADEA"/>
<path d="M1934.5 2061.85C1973.95 2041.91 2001 2001.01 2001 1953.78C2001 1871.95 1917.24 1813.26 1841 1839.21C1828.2 1843.56 1816.36 1850.01 1805.89 1858.13C1877.6 1847.37 1945 1904.7 1945 1977.78C1945 2016.69 1926.64 2051.3 1898.11 2073.44C1911.02 2071.5 1923.26 2067.52 1934.5 2061.85Z" fill="white"/>
<path d="M1841 1839.21L1769 1869.98M1841 1839.21C1828.2 1843.56 1816.36 1850.01 1805.89 1858.13M1841 1839.21C1917.24 1813.26 2001 1871.95 2001 1953.78C2001 2001.01 1973.95 2041.91 1934.5 2061.85M1934.5 2061.85L1861.5 2092.86M1934.5 2061.85C1923.26 2067.52 1911.02 2071.5 1898.11 2073.44M1861.5 2092.86C1874.88 2088.5 1887.24 2081.88 1898.11 2073.44M1861.5 2092.86C1785.5 2117.61 1703 2058.96 1703 1977.78C1703 1930.76 1729.82 1890.01 1769 1869.98M1769 1869.98C1780.37 1864.16 1792.79 1860.1 1805.89 1858.13M1898.11 2073.44C1926.64 2051.3 1945 2016.69 1945 1977.78C1945 1904.7 1877.6 1847.37 1805.89 1858.13M1898.11 2073.44C1826.4 2084.2 1759 2026.86 1759 1953.78C1759 1914.88 1777.36 1880.27 1805.89 1858.13" stroke="#021F25" stroke-width="5"/>
<path d="M2083 1539L1945 1779L1998.64 1778.71L2109.97 1585.1L2083 1539Z" fill="#F96557"/>
<path d="M2117.5 1572L2109.97 1585.1L1998.64 1778.71L1979.5 1812L2257 1810.5L2117.5 1572Z" fill="white"/>
<path d="M1979.5 1812L2257 1810.5L2117.5 1572M1979.5 1812L1945 1779M1979.5 1812L1998.64 1778.71M2117.5 1572L2083 1539M2117.5 1572L2109.97 1585.1M1945 1779L2083 1539M1945 1779L1998.64 1778.71M2083 1539L2109.97 1585.1M1998.64 1778.71L2109.97 1585.1" stroke="#021F25" stroke-width="5" stroke-linejoin="round"/>
<path d="M2488 2273.5L2575 2256.5L2576.11 2256.33L2549 2226L2554.5 2135L2475.5 2177.5L2396 2135L2401 2226L2342 2293L2417.37 2306.55L2431 2309L2449.96 2341.36L2488 2273.5Z" fill="white"/>
<path d="M2517 2190L2522.5 2099L2555.5 2134.5L2550 2225.5L2609 2291.5L2522 2308.5L2478 2387L2445 2351.5L2489 2273L2576 2256L2517 2190Z" fill="#B4ADEA"/>
<path d="M2442.5 2142L2521.5 2099.5M2442.5 2142L2363 2099.5M2442.5 2142L2475.5 2177.5M2521.5 2099.5L2554.5 2135L2549 2226M2521.5 2099.5L2518.17 2154.54M2516 2190.5L2575 2256.5M2516 2190.5L2549 2226M2516 2190.5L2518.17 2154.54M2575 2256.5L2488 2273.5M2575 2256.5L2608 2292M2488 2273.5L2521 2309M2488 2273.5L2449.96 2341.36M2444 2352L2477 2387.5L2521 2309M2444 2352L2449.96 2341.36M2444 2352L2417.37 2306.55M2398 2273.5L2309 2257.5M2398 2273.5L2431 2309M2398 2273.5L2417.37 2306.55M2309 2257.5L2368 2190.5M2309 2257.5L2342 2293M2368 2190.5L2363 2099.5M2368 2190.5L2401 2226M2363 2099.5L2396 2135M2475.5 2177.5L2396 2135M2475.5 2177.5L2518.17 2154.54M2549 2226L2608 2292M2608 2292L2521 2309M2431 2309L2449.96 2341.36M2431 2309L2417.37 2306.55M2342 2293L2401 2226M2342 2293L2417.37 2306.55M2401 2226L2396 2135" stroke="#021F25" stroke-width="5" stroke-linejoin="round"/>
<path d="M2217.5 2073.93C2217.5 2073.93 2225.46 1958.97 2171.95 1959.54C2171.22 1959.55 2170.5 1959.58 2169.79 1959.63C2157.49 1993.23 2161.13 2041.3 2161.13 2041.3L2127 2073.16C2127 2073.16 2125.95 2059.32 2126.89 2041.29C2128.58 2008.51 2136.82 1961.92 2169.79 1959.63C2176.36 1941.69 2187.46 1927.87 2206.08 1927.68C2259.58 1927.11 2251.63 2042.06 2251.63 2042.06L2217.5 2073.93Z" fill="#B8E2C8"/>
<path d="M2206.43 1838.68C2167.63 1838.52 2132.52 1858.37 2107.54 1890.37C2084 1920.53 2069.44 1961.48 2069.26 2006.63L2069.13 2041.13C2091.37 2041.22 2110.56 2041.27 2126.89 2041.29C2140.15 2041.31 2151.53 2041.31 2161.13 2041.3C2161.13 2041.3 2157.49 1993.23 2169.79 1959.63C2176.36 1941.69 2187.46 1927.87 2206.08 1927.68C2259.58 1927.11 2251.63 2042.06 2251.63 2042.06C2268.57 2042.23 2288.29 2042.28 2308.13 2042.02C2319.59 2041.87 2331.09 2041.61 2342.13 2041.22L2342.26 2007.72C2342.63 1914.66 2281.82 1838.98 2206.43 1838.68Z" fill="white"/>
<path d="M2308.14 2039.58L2308.13 2042.02M2035 2073L2035.14 2038.5C2035.39 1974.33 2064.67 1918.65 2107.54 1890.37M2035 2073C2075.32 2073.16 2105.6 2073.19 2127 2073.16M2035 2073L2069.13 2041.13M2308 2073.08C2277.86 2074.17 2244.24 2074.19 2217.5 2073.93M2308 2073.08L2342.13 2041.22M2308 2073.08L2308.13 2042.02M2127 2073.16L2161.13 2041.3M2127 2073.16C2127 2073.16 2125.95 2059.32 2126.89 2041.29M2217.5 2073.93C2217.5 2073.93 2225.46 1958.97 2171.95 1959.54C2171.22 1959.55 2170.5 1959.58 2169.79 1959.63M2217.5 2073.93L2251.63 2042.06M2069.13 2041.13L2069.26 2006.63C2069.44 1961.48 2084 1920.53 2107.54 1890.37M2069.13 2041.13C2091.37 2041.22 2110.56 2041.27 2126.89 2041.29M2342.13 2041.22L2342.26 2007.72C2342.63 1914.66 2281.82 1838.98 2206.43 1838.68C2167.63 1838.52 2132.52 1858.37 2107.54 1890.37M2342.13 2041.22C2331.09 2041.61 2319.59 2041.87 2308.13 2042.02M2161.13 2041.3C2161.13 2041.3 2157.49 1993.23 2169.79 1959.63M2161.13 2041.3C2151.53 2041.31 2140.15 2041.31 2126.89 2041.29M2251.63 2042.06C2251.63 2042.06 2259.58 1927.11 2206.08 1927.68C2187.46 1927.87 2176.36 1941.69 2169.79 1959.63M2251.63 2042.06C2268.57 2042.23 2288.29 2042.28 2308.13 2042.02" stroke="#021F25" stroke-width="5" stroke-linejoin="round"/>
<path d="M2632 1738.71H2279.89L2242 1703.06H2283.5H2594.11L2632 1738.71Z" fill="#007EA7"/>
<path d="M2242 1703.06C2242 1605.82 2320.82 1527 2418.06 1527C2474.13 1527 2524.08 1553.22 2556.33 1594.06C2602.06 1625.86 2632 1678.79 2632 1738.71L2594.11 1703.06C2594.11 1661.9 2579.99 1624.04 2556.33 1594.06C2527.85 1574.26 2493.25 1562.66 2455.94 1562.66C2370.93 1562.66 2299.98 1622.92 2283.5 1703.06H2242Z" fill="white"/>
<path d="M2556.33 1594.06C2527.85 1574.26 2493.25 1562.66 2455.94 1562.66C2370.93 1562.66 2299.98 1622.92 2283.5 1703.06H2242C2242 1605.82 2320.82 1527 2418.06 1527C2474.13 1527 2524.08 1553.22 2556.33 1594.06ZM2556.33 1594.06C2602.06 1625.86 2632 1678.79 2632 1738.71L2594.11 1703.06C2594.11 1661.9 2579.99 1624.04 2556.33 1594.06Z" stroke="#021F25" stroke-width="5" stroke-linejoin="round"/>
<path d="M2242 1703.06C2242 1605.82 2320.82 1527 2418.06 1527C2474.13 1527 2524.08 1553.22 2556.33 1594.06M2242 1703.06L2279.89 1738.71H2632M2242 1703.06H2283.5M2594.11 1703.06L2632 1738.71M2594.11 1703.06C2594.11 1661.9 2579.99 1624.04 2556.33 1594.06M2594.11 1703.06H2283.5M2632 1738.71C2632 1678.79 2602.06 1625.86 2556.33 1594.06M2556.33 1594.06C2527.85 1574.26 2493.25 1562.66 2455.94 1562.66C2370.93 1562.66 2299.98 1622.92 2283.5 1703.06" stroke="#021F25" stroke-width="5" stroke-linejoin="round"/>
<path d="M2231 2112L2296 2227L2231 2343H2201.49H2091L2026 2230.5L2085.13 2132.5L2097.5 2112H2231Z" fill="#007EA7"/>
<path d="M2050 2363.5H2190L2231 2343H2201.49H2091L2050 2363.5Z" fill="white"/>
<path d="M2056.5 2132.5L2097.5 2112L2085.13 2132.5H2056.5Z" fill="white"/>
<path d="M2097.5 2112H2231L2296 2227L2231 2343M2097.5 2112L2056.5 2132.5M2097.5 2112L2085.13 2132.5M2026 2230.5L2091 2343M2026 2230.5L1985 2251M2026 2230.5L2085.13 2132.5M2091 2343L2050 2363.5M2091 2343H2201.49M2231 2343L2190 2363.5M2231 2343H2201.49M2056.5 2132.5L1985 2251M2056.5 2132.5H2085.13M1985 2251L2050 2363.5M2050 2363.5H2190M2190 2363.5L2201.49 2343" stroke="#021F25" stroke-width="5" stroke-linejoin="round"/>
<path d="M2446.13 1838H2565L2564 1955.62L2563 2072.5L2328 1838H2446.13Z" fill="white"/>
<path d="M2563 2072.5L2621 2012.5L2564 1955.62L2563 2072.5Z" fill="#F7DAB4"/>
<path d="M2328 1838L2386 1778L2446.13 1838H2328Z" fill="#F7DAB4"/>
<path d="M2621 2012.5L2623 1778M2621 2012.5L2563 2072.5M2621 2012.5L2564 1955.62M2623 1778H2386M2623 1778L2565 1838M2386 1778L2328 1838M2386 1778L2446.13 1838M2563 2072.5L2328 1838M2563 2072.5L2564 1955.62M2565 1838H2446.13M2565 1838L2564 1955.62M2328 1838H2446.13" stroke="#021F25" stroke-width="5" stroke-linejoin="round"/>
<path d="M1687 2340.5C1687 2247.44 1748.11 2172 1823.5 2172C1846.9 2172 1868.93 2179.27 1888.18 2192.08C1911.61 2222.33 1926 2263.34 1926 2308.5V2343L1960 2375V2340.5C1960 2276.33 1930.94 2220.54 1888.18 2192.08C1863.33 2159.99 1828.31 2140 1789.5 2140C1714.11 2140 1653 2215.44 1653 2308.5V2342L1687 2374V2342.94V2340.5Z" fill="white"/>
<path d="M1960 2375C1919.68 2375 1889.4 2374.91 1868 2374.8L1834 2342.8C1843.59 2342.85 1854.97 2342.89 1868.24 2342.93C1884.57 2342.97 1903.76 2343 1926 2343L1960 2375Z" fill="#B8E2C8"/>
<path d="M1777.5 2375.21C1750.76 2375.36 1717.14 2375.21 1687 2374L1653 2342C1664.04 2342.44 1675.54 2342.74 1687 2342.94C1706.84 2343.28 1726.55 2343.31 1743.5 2343.21L1777.5 2375.21Z" fill="#B8E2C8"/>
<path d="M1960 2375V2340.5C1960 2276.33 1930.94 2220.54 1888.18 2192.08M1960 2375C1919.68 2375 1889.4 2374.91 1868 2374.8L1834 2342.8M1960 2375L1926 2343M1777.5 2375.21C1750.76 2375.36 1717.14 2375.21 1687 2374L1653 2342M1777.5 2375.21C1777.5 2375.21 1770 2260.22 1823.5 2261C1824.23 2261.01 1824.95 2261.04 1825.66 2261.09M1777.5 2375.21L1743.5 2343.21M1926 2343V2308.5C1926 2263.34 1911.61 2222.33 1888.18 2192.08M1926 2343C1903.76 2343 1884.57 2342.97 1868.24 2342.93M1653 2342V2308.5C1653 2215.44 1714.11 2140 1789.5 2140C1828.31 2140 1863.33 2159.99 1888.18 2192.08M1653 2342C1664.04 2342.44 1675.54 2342.74 1687 2342.94M1834 2342.8C1834 2342.8 1837.83 2294.75 1825.66 2261.09M1834 2342.8C1843.59 2342.85 1854.97 2342.89 1868.24 2342.93M1743.5 2343.21C1743.5 2343.21 1736 2228.22 1789.5 2229C1808.12 2229.27 1819.16 2243.13 1825.66 2261.09M1743.5 2343.21C1726.55 2343.31 1706.84 2343.28 1687 2342.94M1888.18 2192.08C1868.93 2179.27 1846.9 2172 1823.5 2172C1748.11 2172 1687 2247.44 1687 2340.5V2342.94M1825.66 2261.09C1858.63 2263.52 1866.68 2310.14 1868.24 2342.93" stroke="#021F25" stroke-width="5" stroke-linejoin="round"/>
<path d="M1737 1377H1933V1714H1849H1737V1463V1377Z" fill="#B8E2C8"/>
<path d="M1653 1463V1800H1849L1933 1714H1849H1737V1463V1377L1653 1463Z" fill="white"/>
<path d="M1653 1463V1800M1653 1463L1737 1377M1653 1463H1737M1653 1800H1849M1653 1800L1737 1714M1849 1800L1933 1714M1849 1800V1714M1737 1377H1933V1714M1737 1377V1463M1737 1714V1463M1737 1714H1849M1933 1714H1849" stroke="#021F25" stroke-width="5" stroke-linejoin="round"/>
<path d="M2035 1392.78C2035 1345.76 2061.82 1305.01 2101 1284.98C2105.88 1282.48 2110.96 1280.31 2116.19 1278.48C2123.16 1276.06 2130.41 1274.25 2137.89 1273.13C2109.36 1295.27 2091 1329.88 2091 1368.78C2091 1441.86 2158.4 1499.2 2230.11 1488.44C2219.24 1496.88 2206.88 1503.5 2193.5 1507.86C2117.5 1532.61 2035 1473.96 2035 1392.78Z" fill="#B4ADEA"/>
<path d="M2266.5 1476.85C2305.95 1456.91 2333 1416.01 2333 1368.78C2333 1286.95 2249.24 1228.26 2173 1254.21C2160.2 1258.56 2148.36 1265.01 2137.89 1273.13C2209.6 1262.37 2277 1319.7 2277 1392.78C2277 1431.69 2258.64 1466.3 2230.11 1488.44C2243.02 1486.5 2255.26 1482.52 2266.5 1476.85Z" fill="#B4ADEA"/>
<path d="M2173 1254.21L2101 1284.98M2173 1254.21C2160.2 1258.56 2148.36 1265.01 2137.89 1273.13M2173 1254.21C2249.24 1228.26 2333 1286.95 2333 1368.78C2333 1416.01 2305.95 1456.91 2266.5 1476.85M2266.5 1476.85L2193.5 1507.86M2266.5 1476.85C2255.26 1482.52 2243.02 1486.5 2230.11 1488.44M2193.5 1507.86C2206.88 1503.5 2219.24 1496.88 2230.11 1488.44M2193.5 1507.86C2117.5 1532.61 2035 1473.96 2035 1392.78C2035 1345.76 2061.82 1305.01 2101 1284.98M2101 1284.98C2112.37 1279.16 2124.79 1275.1 2137.89 1273.13M2230.11 1488.44C2258.64 1466.3 2277 1431.69 2277 1392.78C2277 1319.7 2209.6 1262.37 2137.89 1273.13M2230.11 1488.44C2158.4 1499.2 2091 1441.86 2091 1368.78C2091 1329.88 2109.36 1295.27 2137.89 1273.13" stroke="#021F25" stroke-width="5"/>
<path d="M1011 1690H1207V1776V2027H1095H1011V1690Z" fill="white"/>
<path d="M1012 1691L1096 1605V1691H1012Z" fill="#B8E2C8"/>
<path d="M1292 1942L1208 2028V1942H1292Z" fill="#B8E2C8"/>
<path d="M1208 1691L1292 1605M1208 1691H1096M1208 1691V1942M1012 1691V2028H1208M1012 1691L1096 1605M1012 1691H1096M1208 2028L1292 1942M1208 2028V1942M1292 1605H1096M1292 1605V1942M1096 1605V1691M1292 1942H1208" stroke="#021F25" stroke-width="5" stroke-linejoin="round"/>
</svg>
