<svg width="2777" height="2364" viewBox="0 0 2777 2364" fill="none" xmlns="http://www.w3.org/2000/svg">
<path d="M1597.33 1405.06C1568.85 1385.26 1534.25 1373.66 1496.94 1373.66C1411.93 1373.66 1340.98 1433.92 1324.5 1514.06H1635.11C1635.11 1472.9 1620.99 1435.04 1597.33 1405.06Z" fill="white"/>
<path d="M1283 1514.06C1283 1416.82 1361.82 1338 1459.06 1338C1515.13 1338 1565.08 1364.22 1597.33 1405.06C1643.06 1436.86 1673 1489.79 1673 1549.71L1635.11 1514.06C1635.11 1472.9 1620.99 1435.04 1597.33 1405.06C1568.85 1385.26 1534.25 1373.66 1496.94 1373.66C1411.93 1373.66 1340.98 1433.92 1324.5 1514.06C1322.13 1525.57 1320.89 1537.5 1320.89 1549.71L1283 1514.06Z" fill="#007EA7"/>
<path d="M1597.33 1405.06C1568.85 1385.26 1534.25 1373.66 1496.94 1373.66C1411.93 1373.66 1340.98 1433.92 1324.5 1514.06C1322.13 1525.57 1320.89 1537.5 1320.89 1549.71L1283 1514.06C1283 1416.82 1361.82 1338 1459.06 1338C1515.13 1338 1565.08 1364.22 1597.33 1405.06ZM1597.33 1405.06C1643.06 1436.86 1673 1489.79 1673 1549.71L1635.11 1514.06C1635.11 1472.9 1620.99 1435.04 1597.33 1405.06Z" stroke="#021F25" stroke-width="5" stroke-linejoin="round"/>
<path d="M1635.11 1514.06L1673 1549.71M1635.11 1514.06C1635.11 1472.9 1620.99 1435.04 1597.33 1405.06M1635.11 1514.06H1324.5M1320.89 1549.71H1673M1320.89 1549.71L1283 1514.06C1283 1416.82 1361.82 1338 1459.06 1338C1515.13 1338 1565.08 1364.22 1597.33 1405.06M1320.89 1549.71C1320.89 1537.5 1322.13 1525.57 1324.5 1514.06M1673 1549.71C1673 1489.79 1643.06 1436.86 1597.33 1405.06M1597.33 1405.06C1568.85 1385.26 1534.25 1373.66 1496.94 1373.66C1411.93 1373.66 1340.98 1433.92 1324.5 1514.06" stroke="#021F25" stroke-width="5" stroke-linejoin="round"/>
<path d="M1237 1560.5L1235 1326L1178 1382.88L1060.13 1500.5L1000 1560.5H1237Z" fill="#F7DAB4"/>
<path d="M1177 1266L1235 1326L1178 1382.88L1177 1266Z" fill="white"/>
<path d="M942 1500.5L1000 1560.5L1060.13 1500.5H942Z" fill="white"/>
<path d="M1235 1326L1237 1560.5H1000M1235 1326L1177 1266M1235 1326L1178 1382.88M1000 1560.5L942 1500.5M1000 1560.5L1060.13 1500.5M1177 1266L942 1500.5M1177 1266L1178 1382.88M942 1500.5H1060.13M1060.13 1500.5L1178 1382.88" stroke="#021F25" stroke-width="5" stroke-linejoin="round"/>
<path d="M1389 643.5L1457 784L1511.91 679.477L1529.5 646L1512.33 610.383L1462.5 507L1389 643.5Z" fill="white"/>
<path d="M1562.5 784L1635 646H1529.5L1511.91 679.477L1457 784H1562.5Z" fill="#F96557"/>
<path d="M1457 784L1389 643.5L1462.5 507M1457 784H1562.5L1635 646M1457 784L1511.91 679.477L1529.5 646M1462.5 507H1568M1462.5 507L1512.33 610.383M1529.5 646H1635M1529.5 646L1512.33 610.383M1568 507L1635 646M1568 507L1512.33 610.383" stroke="#021F25" stroke-width="5" stroke-linejoin="round"/>
<path d="M1520 976H1632H1716V1313H1520V1227V976Z" fill="#B8E2C8"/>
<path d="M1436 890H1632V976H1520V1227H1436V890Z" fill="white"/>
<path d="M1520 976L1436 890M1520 976H1632M1520 976V1227M1716 976V1313H1520M1716 976L1632 890M1716 976H1632M1520 1313L1436 1227M1520 1313V1227M1436 890H1632M1436 890V1227M1632 890V976M1436 1227H1520" stroke="#021F25" stroke-width="5" stroke-linejoin="round"/>
<path d="M1376 714H1151V750V940H1344H1376V714Z" fill="#F7DAB4"/>
<path d="M1344 976H1119V750H1151V940H1344V958V976Z" fill="white"/>
<path d="M1151 714H1376M1151 714L1119 750M1151 714V750M1376 714V940M1376 714L1344 750M1376 940L1344 976M1376 940H1344M1151 940H1344M1151 940V750M1151 940L1119 976M1119 750V976M1119 750H1151M1344 750V940M1344 750H1151M1344 976H1119M1344 976V940" stroke="#021F25" stroke-width="5" stroke-linejoin="round"/>
<path d="M1211.89 1242.44C1183.36 1220.3 1165 1185.69 1165 1146.78C1165 1073.7 1232.4 1016.37 1304.11 1027.13C1332.64 1049.27 1351 1083.88 1351 1122.78C1351 1195.86 1283.6 1253.2 1211.89 1242.44Z" fill="white"/>
<path d="M1175.5 1230.85C1136.05 1210.91 1109 1170.01 1109 1122.78C1109 1040.95 1192.76 982.263 1269 1008.21C1281.8 1012.56 1293.64 1019.01 1304.11 1027.13C1232.4 1016.37 1165 1073.7 1165 1146.78C1165 1185.69 1183.36 1220.3 1211.89 1242.44C1198.98 1240.5 1186.74 1236.52 1175.5 1230.85Z" fill="#B4ADEA"/>
<path d="M1269 1008.21L1341 1038.98M1269 1008.21C1281.8 1012.56 1293.64 1019.01 1304.11 1027.13M1269 1008.21C1192.76 982.263 1109 1040.95 1109 1122.78C1109 1170.01 1136.05 1210.91 1175.5 1230.85M1175.5 1230.85L1248.5 1261.86M1175.5 1230.85C1186.74 1236.52 1198.98 1240.5 1211.89 1242.44M1248.5 1261.86C1235.12 1257.5 1222.76 1250.88 1211.89 1242.44M1248.5 1261.86C1324.5 1286.61 1407 1227.96 1407 1146.78C1407 1099.76 1380.18 1059.01 1341 1038.98M1341 1038.98C1329.63 1033.16 1317.21 1029.1 1304.11 1027.13M1211.89 1242.44C1183.36 1220.3 1165 1185.69 1165 1146.78C1165 1073.7 1232.4 1016.37 1304.11 1027.13M1211.89 1242.44C1283.6 1253.2 1351 1195.86 1351 1122.78C1351 1083.88 1332.64 1049.27 1304.11 1027.13" stroke="#021F25" stroke-width="5"/>
<path d="M833 976L768 1091L833 1207H862.513H973L1038 1094.5L978.869 996.5L966.5 976H833Z" fill="white"/>
<path d="M973 1207L1038 1094.5L978.869 996.5H1007.5L1079 1115L1014 1227.5H874L862.513 1207H973Z" fill="#007EA7"/>
<path d="M966.5 976H833L768 1091L833 1207M966.5 976L1007.5 996.5M966.5 976L978.869 996.5M1038 1094.5L973 1207M1038 1094.5L1079 1115M1038 1094.5L978.869 996.5M973 1207L1014 1227.5M973 1207H862.513M833 1207L874 1227.5M833 1207H862.513M1007.5 996.5L1079 1115M1007.5 996.5H978.869M1079 1115L1014 1227.5M1014 1227.5H874M874 1227.5L862.513 1207" stroke="#021F25" stroke-width="5" stroke-linejoin="round"/>
<path d="M933.5 894.5L854.5 937L857.827 881.957L900.5 859L980 901.5L975 810.5L1011.52 769.026L1067 779L1008 846L1013 937L933.5 894.5Z" fill="#B4ADEA"/>
<path d="M945 727.5L926.037 695.139L932 684.5L958.634 729.951L945 727.5Z" fill="#B4ADEA"/>
<path d="M821.5 901.5L857.827 881.957L900.5 859L980 901.5L975 810.5L1011.52 769.026L1034 743.5L958.634 729.951L945 727.5L926.037 695.139L899 649L855 727.5L768 744.5L827 810.5L821.5 901.5Z" fill="white"/>
<path d="M933.5 894.5L854.5 937M933.5 894.5L1013 937M933.5 894.5L900.5 859M854.5 937L821.5 901.5M854.5 937L857.827 881.957M932 684.5L899 649M932 684.5L926.037 695.139M932 684.5L958.634 729.951M1067 779L1008 846M1067 779L1034 743.5M1067 779L1011.52 769.026M1008 846L1013 937M1008 846L975 810.5M1013 937L980 901.5M900.5 859L980 901.5M900.5 859L857.827 881.957M821.5 901.5L827 810.5L768 744.5L855 727.5L899 649M821.5 901.5L857.827 881.957M899 649L926.037 695.139M1034 743.5L958.634 729.951M1034 743.5L1011.52 769.026M975 810.5L980 901.5M975 810.5L1011.52 769.026M926.037 695.139L945 727.5L958.634 729.951" stroke="#021F25" stroke-width="5" stroke-linejoin="round"/>
<path d="M619.5 662L611.966 675.103L500.642 868.71L481.5 902L759 900.5L619.5 662Z" fill="#F96557"/>
<path d="M585 629L447 869L500.642 868.71L611.966 675.103L585 629Z" fill="white"/>
<path d="M481.5 902L759 900.5L619.5 662M481.5 902L447 869M481.5 902L500.642 868.71M619.5 662L585 629M619.5 662L611.966 675.103M447 869L585 629M447 869L500.642 868.71M585 629L611.966 675.103M500.642 868.71L611.966 675.103" stroke="#021F25" stroke-width="5" stroke-linejoin="round"/>
<path d="M1146 456C1058.74 456 988 526.739 988 614H1025.24H1304C1304 577.063 1291.33 543.086 1270.09 516.182C1241.15 479.527 1196.32 456 1146 456Z" fill="white"/>
<path d="M1022 646L988 614H1025.24C1023.12 624.334 1022 635.037 1022 646Z" fill="#007EA7"/>
<path d="M988 614C988 526.739 1058.74 456 1146 456C1196.32 456 1241.15 479.527 1270.09 516.182M988 614L1022 646M988 614H1025.24M1304 614L1338 646M1304 614C1304 577.063 1291.33 543.086 1270.09 516.182M1304 614H1025.24M1022 646H1338M1022 646C1022 635.037 1023.12 624.334 1025.24 614M1338 646C1338 592.222 1311.13 544.719 1270.09 516.182" stroke="#021F25" stroke-width="5" stroke-linejoin="round"/>
<path d="M818 589L883 476.5L823.869 378.5H719L654 493.5L707.513 589H818Z" fill="white"/>
<path d="M818 589L883 476.5L823.869 378.5L811.5 358L852.5 378.5L924 497L859 609.5H719L678 589H707.513H818Z" fill="#007EA7"/>
<path d="M613 473L678 358M613 473L678 589M613 473L654 493.5M678 358H811.5M678 358L719 378.5M811.5 358L852.5 378.5L924 497M811.5 358L823.869 378.5M883 476.5L818 589M883 476.5L924 497M883 476.5L823.869 378.5M818 589L859 609.5M818 589H707.513M678 589L719 609.5H859M678 589H707.513M654 493.5L719 378.5M654 493.5L707.513 589M719 378.5H823.869M924 497L859 609.5" stroke="#021F25" stroke-width="5" stroke-linejoin="round"/>
<path d="M1287 302.785C1287 350.006 1314.05 390.909 1353.5 410.845C1364.74 416.523 1376.98 420.5 1389.89 422.438C1461.6 433.203 1529 375.865 1529 302.785C1529 263.882 1510.64 229.267 1482.11 207.131C1471.64 199.007 1459.8 192.564 1447 188.207C1370.76 162.263 1287 220.949 1287 302.785Z" fill="#B4ADEA"/>
<path d="M1447 188.207L1519 218.978M1447 188.207C1459.8 192.564 1471.64 199.007 1482.11 207.131M1447 188.207C1370.76 162.263 1287 220.949 1287 302.785C1287 350.006 1314.05 390.909 1353.5 410.845M1353.5 410.845L1426.5 441.861M1353.5 410.845C1364.74 416.523 1376.98 420.5 1389.89 422.438M1426.5 441.861C1413.12 437.504 1400.76 430.878 1389.89 422.438M1426.5 441.861C1502.5 466.61 1585 407.962 1585 326.785C1585 279.763 1558.18 239.006 1519 218.978M1519 218.978C1507.63 213.165 1495.21 209.098 1482.11 207.131M1389.89 422.438C1361.36 400.303 1343 365.688 1343 326.785C1343 253.704 1410.4 196.366 1482.11 207.131M1389.89 422.438C1461.6 433.203 1529 375.865 1529 302.785C1529 263.882 1510.64 229.267 1482.11 207.131" stroke="#021F25" stroke-width="5"/>
<path d="M533.5 357.5L497.173 377.043L454.5 400L375 357.5L380 448.5L343.478 489.974L321 515.5L396.366 529.049L410 531.5L428.963 563.861L456 610L500 531.5L587 514.5L528 448.5L533.5 357.5Z" fill="white"/>
<path d="M456 610L423 574.5L396.366 529.049L410 531.5L428.963 563.861L456 610Z" fill="#B4ADEA"/>
<path d="M533.5 357.5L500.5 322L497.75 367.5L497.173 377.043L533.5 357.5Z" fill="#B4ADEA"/>
<path d="M321 515.5L288 480L343.478 489.974L321 515.5Z" fill="#B4ADEA"/>
<path d="M421.5 364.5L500.5 322M421.5 364.5L342 322M421.5 364.5L454.5 400M500.5 322L533.5 357.5M500.5 322L497.75 367.5L497.173 377.043M288 480L347 413M288 480L321 515.5M288 480L343.478 489.974M347 413L342 322M347 413L380 448.5M342 322L375 357.5M454.5 400L375 357.5M454.5 400L497.173 377.043M533.5 357.5L528 448.5L587 514.5L500 531.5L456 610M533.5 357.5L497.173 377.043M456 610L423 574.5L396.366 529.049M456 610L428.963 563.861L410 531.5L396.366 529.049M321 515.5L396.366 529.049M321 515.5L343.478 489.974M380 448.5L375 357.5M380 448.5L343.478 489.974" stroke="#021F25" stroke-width="5" stroke-linejoin="round"/>
<path d="M1085.5 151L1093.03 164.103L1204.36 357.71L1223.5 391L946 389.5L1085.5 151Z" fill="white"/>
<path d="M1120 118L1085.5 151L1093.03 164.103L1120 118Z" fill="#F96557"/>
<path d="M1258 358L1223.5 391L1204.36 357.71L1258 358Z" fill="#F96557"/>
<path d="M1223.5 391L946 389.5L1085.5 151M1223.5 391L1258 358M1223.5 391L1204.36 357.71M1085.5 151L1120 118M1085.5 151L1093.03 164.103M1258 358L1120 118M1258 358L1204.36 357.71M1120 118L1093.03 164.103M1204.36 357.71L1093.03 164.103" stroke="#021F25" stroke-width="5" stroke-linejoin="round"/>
<path d="M310 841.5L308.997 723.882L308 607L73 841.5H191.128H310Z" fill="#F7DAB4"/>
<path d="M366 667L368 901.5H131L191.128 841.5H310L308.997 723.882L366 667Z" fill="white"/>
<path d="M366 667L368 901.5M366 667L308 607M366 667L308.997 723.882M368 901.5H131M368 901.5L310 841.5M131 901.5L73 841.5M131 901.5L191.128 841.5M308 607L73 841.5M308 607L308.997 723.882M310 841.5H191.128M310 841.5L308.997 723.882M73 841.5H191.128" stroke="#021F25" stroke-width="5" stroke-linejoin="round"/>
<path d="M310 1389.5V1284L414.523 1338.91L310 1389.5Z" fill="#F96557"/>
<path d="M587 1395V1289.5L483.617 1339.33L587 1395Z" fill="#F96557"/>
<path d="M450.5 1216L310 1284L448 1356.5L587 1289.5L450.5 1216Z" fill="white"/>
<path d="M310 1284L450.5 1216L587 1289.5M310 1284V1389.5M310 1284L414.523 1338.91M587 1289.5V1395M587 1289.5L483.617 1339.33M448 1356.5V1462M448 1356.5L483.617 1339.33M448 1356.5L414.523 1338.91M310 1389.5L448 1462M310 1389.5L414.523 1338.91M587 1395L448 1462M587 1395L483.617 1339.33" stroke="#021F25" stroke-width="5" stroke-linejoin="round"/>
<path d="M481 234L546 121.5L486.869 23.5L474.5 3L515.5 23.5L587 142L522 254.5H382L341 234H370.513H481Z" fill="white"/>
<path d="M481 234L546 121.5L486.869 23.5H382L317 138.5L370.513 234H481Z" fill="#007EA7"/>
<path d="M276 118L341 3M276 118L341 234M276 118L317 138.5M341 3H474.5M341 3L382 23.5M474.5 3L515.5 23.5L587 142M474.5 3L486.869 23.5M546 121.5L481 234M546 121.5L587 142M546 121.5L486.869 23.5M481 234L522 254.5M481 234H370.513M341 234L382 254.5H522M341 234H370.513M317 138.5L382 23.5M317 138.5L370.513 234M382 23.5H486.869M587 142L522 254.5" stroke="#021F25" stroke-width="5" stroke-linejoin="round"/>
<path d="M1722 839.757C1722 932.817 1783.11 1008.26 1858.5 1008.26C1897.31 1008.26 1932.33 988.268 1957.18 956.176C1980.61 925.923 1995 884.915 1995 839.757V805.257C1972.76 805.257 1953.57 805.286 1937.24 805.329C1923.97 805.364 1912.59 805.409 1903 805.456C1903 805.456 1906.83 853.507 1894.66 887.163C1888.16 905.124 1877.12 918.985 1858.5 919.257C1805 920.04 1812.5 805.051 1812.5 805.051C1795.55 804.951 1775.84 804.978 1756 805.318C1744.54 805.515 1733.04 805.816 1722 806.257V839.757Z" fill="#B8E2C8"/>
<path d="M2029 773.257C1988.68 773.257 1958.4 773.35 1937 773.456L1903 805.456C1912.59 805.409 1923.97 805.364 1937.24 805.329C1953.57 805.286 1972.76 805.257 1995 805.257L2029 773.257Z" fill="white"/>
<path d="M1846.5 773.051C1819.76 772.893 1786.14 773.052 1756 774.257L1722 806.257C1733.04 805.816 1744.54 805.515 1756 805.318C1775.84 804.978 1795.55 804.951 1812.5 805.051L1846.5 773.051Z" fill="white"/>
<path d="M1756 807.757V805.318M2029 773.257V807.757C2029 871.928 1999.94 927.72 1957.18 956.176M2029 773.257C1988.68 773.257 1958.4 773.35 1937 773.456M2029 773.257L1995 805.257M1756 774.257C1786.14 773.052 1819.76 772.893 1846.5 773.051M1756 774.257L1722 806.257M1756 774.257V805.318M1937 773.456L1903 805.456M1937 773.456C1937 773.456 1938.1 787.299 1937.24 805.329M1846.5 773.051C1846.5 773.051 1839 888.04 1892.5 887.257C1893.23 887.247 1893.95 887.215 1894.66 887.163M1846.5 773.051L1812.5 805.051M1995 805.257V839.757C1995 884.915 1980.61 925.923 1957.18 956.176M1995 805.257C1972.76 805.257 1953.57 805.286 1937.24 805.329M1722 806.257V839.757C1722 932.817 1783.11 1008.26 1858.5 1008.26C1897.31 1008.26 1932.33 988.268 1957.18 956.176M1722 806.257C1733.04 805.816 1744.54 805.515 1756 805.318M1903 805.456C1903 805.456 1906.83 853.507 1894.66 887.163M1903 805.456C1912.59 805.409 1923.97 805.364 1937.24 805.329M1812.5 805.051C1812.5 805.051 1805 920.04 1858.5 919.257C1877.12 918.985 1888.16 905.124 1894.66 887.163M1812.5 805.051C1795.55 804.951 1775.84 804.978 1756 805.318" stroke="#021F25" stroke-width="5" stroke-linejoin="round"/>
<path d="M2003 1109.5L2072.5 969H2177.5L2125.19 1073.25L2107 1109.5H2003Z" fill="white"/>
<path d="M2142 1106.5H2248.5L2177.5 1247.5H2072.5L2124.06 1142.9L2142 1106.5Z" fill="white"/>
<path d="M2177.5 969L2248.5 1106.5H2142L2124.06 1142.9L2107 1109.5L2125.19 1073.25L2177.5 969Z" fill="#F96557"/>
<path d="M2072.5 969L2003 1109.5M2072.5 969H2177.5M2072.5 969L2125.19 1073.25M2003 1109.5L2072.5 1247.5M2003 1109.5H2107M2072.5 1247.5H2177.5L2248.5 1106.5M2072.5 1247.5L2124.06 1142.9M2142 1106.5H2248.5M2142 1106.5L2124.06 1142.9M2142 1106.5L2125.19 1073.25M2177.5 969L2248.5 1106.5M2177.5 969L2125.19 1073.25M2107 1109.5L2124.06 1142.9M2107 1109.5L2125.19 1073.25" stroke="#021F25" stroke-width="5" stroke-linejoin="round"/>
<path d="M515.057 953C417.823 953 339 1031.82 339 1129.06H380.499H691.114C691.114 1087.9 676.991 1050.04 653.326 1020.06C621.085 979.216 571.132 953 515.057 953Z" fill="#007EA7"/>
<path d="M728.999 1164.71L691.114 1129.06C691.114 1087.9 676.99 1050.04 653.326 1020.06C699.061 1051.86 728.999 1104.79 728.999 1164.71Z" fill="white"/>
<path d="M339 1129.06C339 1031.82 417.823 953 515.057 953C571.132 953 621.085 979.216 653.326 1020.06M339 1129.06L376.886 1164.71M339 1129.06H380.499M691.114 1129.06L729 1164.71M691.114 1129.06C691.114 1087.9 676.991 1050.04 653.326 1020.06M691.114 1129.06H380.499M376.886 1164.71H729M376.886 1164.71C376.886 1152.5 378.13 1140.57 380.499 1129.06M729 1164.71C729 1104.79 699.062 1051.86 653.326 1020.06" stroke="#021F25" stroke-width="5" stroke-linejoin="round"/>
<path d="M1875.5 740L1796.5 697.5L1717 740L1722 649L1663 582L1718.48 572.026L1755.5 614.5L1750 704L1829 662.5L1872.17 684.957L1872.75 694.5L1875.5 740Z" fill="#B4ADEA"/>
<path d="M1929 583L1870 649L1872.17 684.957L1872.75 694.5L1875.5 740L1908.5 704.5L1903 613.5L1962 547.5L1875 530.5L1831 452L1798 487.5L1771.37 532.951L1696 546.5L1663 582L1718.48 572.026L1752 566L1771.37 532.951L1798 487.5L1803.96 498.139L1842 566L1929 583Z" fill="white"/>
<path d="M1796.5 697.5L1875.5 740M1796.5 697.5L1717 740M1796.5 697.5L1829.5 662M1875.5 740L1908.5 704.5L1903 613.5M1875.5 740L1872.75 694.5L1872.17 684.957M1870 649L1929 583M1870 649L1903 613.5M1870 649L1872.17 684.957M1929 583L1842 566M1929 583L1962 547.5M1842 566L1803.96 498.139L1798 487.5M1842 566L1858.5 548.25L1875 530.5M1798 487.5L1831 452L1875 530.5M1798 487.5L1771.37 532.951M1663 582L1722 649M1663 582L1696 546.5L1771.37 532.951M1663 582L1718.48 572.026M1722 649L1717 740M1722 649L1755 613.5M1717 740L1750 704.5M1829.5 662L1750 704.5M1829.5 662L1872.17 684.957M1903 613.5L1962 547.5M1962 547.5L1875 530.5M1755 613.5L1750 704.5M1755 613.5L1718.48 572.026M1771.37 532.951L1752 566L1718.48 572.026" stroke="#021F25" stroke-width="5" stroke-linejoin="round"/>
<path d="M873 2035.8L839 2067.8C839 2067.8 837.898 2053.96 838.758 2035.93C852.027 2035.89 863.406 2035.85 873 2035.8Z" fill="#B8E2C8"/>
<path d="M1054 2035L1020 2067V2035.94C1031.46 2035.74 1042.96 2035.44 1054 2035Z" fill="#B8E2C8"/>
<path d="M883.5 1865C860.097 1865 838.069 1872.27 818.818 1885.08C776.059 1913.54 747 1969.33 747 2033.5V2068C787.322 2068 817.601 2067.91 839 2067.8C839 2067.8 837.898 2053.96 838.758 2035.93C840.322 2003.14 848.375 1956.52 881.342 1954.09C882.05 1954.04 882.769 1954.01 883.5 1954C937 1953.22 929.5 2068.21 929.5 2068.21C956.241 2068.36 989.864 2068.21 1020 2067V2035.94V2033.5C1020 1940.44 958.887 1865 883.5 1865Z" fill="white"/>
<path d="M1020 2067C989.864 2068.21 956.241 2068.36 929.5 2068.21C929.5 2068.21 937 1953.22 883.5 1954C882.769 1954.01 882.05 1954.04 881.342 1954.09M1020 2067L1054 2035M1020 2067V2035.94M839 2067.8C817.601 2067.91 787.322 2068 747 2068V2033.5C747 1969.33 776.059 1913.54 818.818 1885.08M839 2067.8L873 2035.8M839 2067.8C839 2067.8 837.898 2053.96 838.758 2035.93M1054 2035V2001.5C1054 1908.44 992.887 1833 917.5 1833C878.694 1833 843.671 1852.99 818.818 1885.08M1054 2035C1042.96 2035.44 1031.46 2035.74 1020 2035.94M873 2035.8C873 2035.8 869.174 1987.75 881.342 1954.09M873 2035.8C863.406 2035.85 852.027 2035.89 838.758 2035.93M818.818 1885.08C838.069 1872.27 860.097 1865 883.5 1865C958.887 1865 1020 1940.44 1020 2033.5V2035.94M881.342 1954.09C848.375 1956.52 840.322 2003.14 838.758 2035.93" stroke="#021F25" stroke-width="5" stroke-linejoin="round"/>
<path d="M2634.5 1248L2626.97 1261.1L2515.64 1454.71L2496.5 1488L2774 1486.5L2634.5 1248Z" fill="white"/>
<path d="M2600 1215L2634.5 1248L2626.97 1261.1L2600 1215Z" fill="#F96557"/>
<path d="M2462 1455L2496.5 1488L2515.64 1454.71L2462 1455Z" fill="#F96557"/>
<path d="M2496.5 1488L2774 1486.5L2634.5 1248M2496.5 1488L2462 1455M2496.5 1488L2515.64 1454.71M2634.5 1248L2600 1215M2634.5 1248L2626.97 1261.1M2462 1455L2600 1215M2462 1455L2515.64 1454.71M2600 1215L2626.97 1261.1M2515.64 1454.71L2626.97 1261.1" stroke="#021F25" stroke-width="5" stroke-linejoin="round"/>
<path d="M917 51H692V87V277H885H917V51Z" fill="white"/>
<path d="M660 87L692 51V87H660Z" fill="#F7DAB4"/>
<path d="M917 277L885 313V277H917Z" fill="#F7DAB4"/>
<path d="M692 51H917V277M692 51L660 87M692 51V87M917 277L885 313M917 277H885M692 277H885M692 277V87M692 277L660 313M660 87V313M660 87H692M885 313H660M885 313V277" stroke="#021F25" stroke-width="5" stroke-linejoin="round"/>
<path d="M1543 2361H1768V2325V2135H1575H1543V2361Z" fill="white"/>
<path d="M1575 2099H1800V2325H1768V2135H1575V2099Z" fill="#F7DAB4"/>
<path d="M1575 2099H1800M1575 2099L1543 2135M1575 2099V2135M1800 2099V2325M1800 2099L1768 2135M1800 2325L1768 2361M1800 2325H1768M1543 2135V2361H1768M1543 2135H1575M1768 2135V2325M1768 2135H1575M1768 2361V2325" stroke="#021F25" stroke-width="5" stroke-linejoin="round"/>
<path d="M1992 1335.5H1755L1813 1275.5H1931.87H2050L1992 1335.5Z" fill="#F7DAB4"/>
<path d="M1813 1275.5L1814 1157.88L1815 1041L2050 1275.5H1931.87H1813Z" fill="white"/>
<path d="M1757 1101L1755 1335.5M1757 1101L1815 1041M1757 1101L1814 1157.88M1755 1335.5H1992M1755 1335.5L1813 1275.5M1992 1335.5L2050 1275.5M1992 1335.5L1961.94 1305.5L1931.87 1275.5M1815 1041L2050 1275.5M1815 1041L1814 1157.88M1813 1275.5H1931.87M1813 1275.5L1814 1157.88M2050 1275.5H1931.87M1931.87 1275.5L1814 1157.88" stroke="#021F25" stroke-width="5" stroke-linejoin="round"/>
<path d="M1968.11 2073.44C1996.64 2051.3 2015 2016.69 2015 1977.78C2015 1904.7 1947.6 1847.37 1875.89 1858.13C1847.36 1880.27 1829 1914.88 1829 1953.78C1829 2026.86 1896.4 2084.2 1968.11 2073.44Z" fill="#B4ADEA"/>
<path d="M2004.5 2061.85C2043.95 2041.91 2071 2001.01 2071 1953.78C2071 1871.95 1987.24 1813.26 1911 1839.21C1898.2 1843.56 1886.36 1850.01 1875.89 1858.13C1947.6 1847.37 2015 1904.7 2015 1977.78C2015 2016.69 1996.64 2051.3 1968.11 2073.44C1981.02 2071.5 1993.26 2067.52 2004.5 2061.85Z" fill="white"/>
<path d="M1911 1839.21L1839 1869.98M1911 1839.21C1898.2 1843.56 1886.36 1850.01 1875.89 1858.13M1911 1839.21C1987.24 1813.26 2071 1871.95 2071 1953.78C2071 2001.01 2043.95 2041.91 2004.5 2061.85M2004.5 2061.85L1931.5 2092.86M2004.5 2061.85C1993.26 2067.52 1981.02 2071.5 1968.11 2073.44M1931.5 2092.86C1944.88 2088.5 1957.24 2081.88 1968.11 2073.44M1931.5 2092.86C1855.5 2117.61 1773 2058.96 1773 1977.78C1773 1930.76 1799.82 1890.01 1839 1869.98M1839 1869.98C1850.37 1864.16 1862.79 1860.1 1875.89 1858.13M1968.11 2073.44C1996.64 2051.3 2015 2016.69 2015 1977.78C2015 1904.7 1947.6 1847.37 1875.89 1858.13M1968.11 2073.44C1896.4 2084.2 1829 2026.86 1829 1953.78C1829 1914.88 1847.36 1880.27 1875.89 1858.13" stroke="#021F25" stroke-width="5"/>
<path d="M2153 1539L2015 1779L2068.64 1778.71L2179.97 1585.1L2153 1539Z" fill="#F96557"/>
<path d="M2187.5 1572L2179.97 1585.1L2068.64 1778.71L2049.5 1812L2327 1810.5L2187.5 1572Z" fill="white"/>
<path d="M2049.5 1812L2327 1810.5L2187.5 1572M2049.5 1812L2015 1779M2049.5 1812L2068.64 1778.71M2187.5 1572L2153 1539M2187.5 1572L2179.97 1585.1M2015 1779L2153 1539M2015 1779L2068.64 1778.71M2153 1539L2179.97 1585.1M2068.64 1778.71L2179.97 1585.1" stroke="#021F25" stroke-width="5" stroke-linejoin="round"/>
<path d="M2598 2142.5L2685 2125.5L2686.11 2125.33L2659 2095L2664.5 2004L2585.5 2046.5L2506 2004L2511 2095L2452 2162L2527.37 2175.55L2541 2178L2559.96 2210.36L2598 2142.5Z" fill="white"/>
<path d="M2627 2059L2632.5 1968L2665.5 2003.5L2660 2094.5L2719 2160.5L2632 2177.5L2588 2256L2555 2220.5L2599 2142L2686 2125L2627 2059Z" fill="#B4ADEA"/>
<path d="M2552.5 2011L2631.5 1968.5M2552.5 2011L2473 1968.5M2552.5 2011L2585.5 2046.5M2631.5 1968.5L2664.5 2004L2659 2095M2631.5 1968.5L2628.17 2023.54M2626 2059.5L2685 2125.5M2626 2059.5L2659 2095M2626 2059.5L2628.17 2023.54M2685 2125.5L2598 2142.5M2685 2125.5L2718 2161M2598 2142.5L2631 2178M2598 2142.5L2559.96 2210.36M2554 2221L2587 2256.5L2631 2178M2554 2221L2559.96 2210.36M2554 2221L2527.37 2175.55M2508 2142.5L2419 2126.5M2508 2142.5L2541 2178M2508 2142.5L2527.37 2175.55M2419 2126.5L2478 2059.5M2419 2126.5L2452 2162M2478 2059.5L2473 1968.5M2478 2059.5L2511 2095M2473 1968.5L2506 2004M2585.5 2046.5L2506 2004M2585.5 2046.5L2628.17 2023.54M2659 2095L2718 2161M2718 2161L2631 2178M2541 2178L2559.96 2210.36M2541 2178L2527.37 2175.55M2452 2162L2511 2095M2452 2162L2527.37 2175.55M2511 2095L2506 2004" stroke="#021F25" stroke-width="5" stroke-linejoin="round"/>
<path d="M2287.5 2073.93C2287.5 2073.93 2295.46 1958.97 2241.95 1959.54C2241.22 1959.55 2240.5 1959.58 2239.79 1959.63C2227.49 1993.23 2231.13 2041.3 2231.13 2041.3L2197 2073.16C2197 2073.16 2195.95 2059.32 2196.89 2041.29C2198.58 2008.51 2206.82 1961.92 2239.79 1959.63C2246.36 1941.69 2257.46 1927.87 2276.08 1927.68C2329.58 1927.11 2321.63 2042.06 2321.63 2042.06L2287.5 2073.93Z" fill="#B8E2C8"/>
<path d="M2276.43 1838.68C2237.63 1838.52 2202.52 1858.37 2177.54 1890.37C2154 1920.53 2139.44 1961.48 2139.26 2006.63L2139.13 2041.13C2161.37 2041.22 2180.56 2041.27 2196.89 2041.29C2210.15 2041.31 2221.53 2041.31 2231.13 2041.3C2231.13 2041.3 2227.49 1993.23 2239.79 1959.63C2246.36 1941.69 2257.46 1927.87 2276.08 1927.68C2329.58 1927.11 2321.63 2042.06 2321.63 2042.06C2338.57 2042.23 2358.29 2042.28 2378.13 2042.02C2389.59 2041.87 2401.09 2041.61 2412.13 2041.22L2412.26 2007.72C2412.63 1914.66 2351.82 1838.98 2276.43 1838.68Z" fill="white"/>
<path d="M2378.14 2039.58L2378.13 2042.02M2105 2073L2105.14 2038.5C2105.39 1974.33 2134.67 1918.65 2177.54 1890.37M2105 2073C2145.32 2073.16 2175.6 2073.19 2197 2073.16M2105 2073L2139.13 2041.13M2378 2073.08C2347.86 2074.17 2314.24 2074.19 2287.5 2073.93M2378 2073.08L2412.13 2041.22M2378 2073.08L2378.13 2042.02M2197 2073.16L2231.13 2041.3M2197 2073.16C2197 2073.16 2195.95 2059.32 2196.89 2041.29M2287.5 2073.93C2287.5 2073.93 2295.46 1958.97 2241.95 1959.54C2241.22 1959.55 2240.5 1959.58 2239.79 1959.63M2287.5 2073.93L2321.63 2042.06M2139.13 2041.13L2139.26 2006.63C2139.44 1961.48 2154 1920.53 2177.54 1890.37M2139.13 2041.13C2161.37 2041.22 2180.56 2041.27 2196.89 2041.29M2412.13 2041.22L2412.26 2007.72C2412.63 1914.66 2351.82 1838.98 2276.43 1838.68C2237.63 1838.52 2202.52 1858.37 2177.54 1890.37M2412.13 2041.22C2401.09 2041.61 2389.59 2041.87 2378.13 2042.02M2231.13 2041.3C2231.13 2041.3 2227.49 1993.23 2239.79 1959.63M2231.13 2041.3C2221.53 2041.31 2210.15 2041.31 2196.89 2041.29M2321.63 2042.06C2321.63 2042.06 2329.58 1927.11 2276.08 1927.68C2257.46 1927.87 2246.36 1941.69 2239.79 1959.63M2321.63 2042.06C2338.57 2042.23 2358.29 2042.28 2378.13 2042.02" stroke="#021F25" stroke-width="5" stroke-linejoin="round"/>
<path d="M2702 1738.71H2349.89L2312 1703.06H2353.5H2664.11L2702 1738.71Z" fill="#007EA7"/>
<path d="M2312 1703.06C2312 1605.82 2390.82 1527 2488.06 1527C2544.13 1527 2594.08 1553.22 2626.33 1594.06C2672.06 1625.86 2702 1678.79 2702 1738.71L2664.11 1703.06C2664.11 1661.9 2649.99 1624.04 2626.33 1594.06C2597.85 1574.26 2563.25 1562.66 2525.94 1562.66C2440.93 1562.66 2369.98 1622.92 2353.5 1703.06H2312Z" fill="white"/>
<path d="M2626.33 1594.06C2597.85 1574.26 2563.25 1562.66 2525.94 1562.66C2440.93 1562.66 2369.98 1622.92 2353.5 1703.06H2312C2312 1605.82 2390.82 1527 2488.06 1527C2544.13 1527 2594.08 1553.22 2626.33 1594.06ZM2626.33 1594.06C2672.06 1625.86 2702 1678.79 2702 1738.71L2664.11 1703.06C2664.11 1661.9 2649.99 1624.04 2626.33 1594.06Z" stroke="#021F25" stroke-width="5" stroke-linejoin="round"/>
<path d="M2312 1703.06C2312 1605.82 2390.82 1527 2488.06 1527C2544.13 1527 2594.08 1553.22 2626.33 1594.06M2312 1703.06L2349.89 1738.71H2702M2312 1703.06H2353.5M2664.11 1703.06L2702 1738.71M2664.11 1703.06C2664.11 1661.9 2649.99 1624.04 2626.33 1594.06M2664.11 1703.06H2353.5M2702 1738.71C2702 1678.79 2672.06 1625.86 2626.33 1594.06M2626.33 1594.06C2597.85 1574.26 2563.25 1562.66 2525.94 1562.66C2440.93 1562.66 2369.98 1622.92 2353.5 1703.06" stroke="#021F25" stroke-width="5" stroke-linejoin="round"/>
<path d="M2354 672L2419 787L2354 903H2324.49H2214L2149 790.5L2208.13 692.5L2220.5 672H2354Z" fill="#007EA7"/>
<path d="M2173 923.5H2313L2354 903H2324.49H2214L2173 923.5Z" fill="white"/>
<path d="M2179.5 692.5L2220.5 672L2208.13 692.5H2179.5Z" fill="white"/>
<path d="M2220.5 672H2354L2419 787L2354 903M2220.5 672L2179.5 692.5M2220.5 672L2208.13 692.5M2149 790.5L2214 903M2149 790.5L2108 811M2149 790.5L2208.13 692.5M2214 903L2173 923.5M2214 903H2324.49M2354 903L2313 923.5M2354 903H2324.49M2179.5 692.5L2108 811M2179.5 692.5H2208.13M2108 811L2173 923.5M2173 923.5H2313M2313 923.5L2324.49 903" stroke="#021F25" stroke-width="5" stroke-linejoin="round"/>
<path d="M1828.87 352.5H1710L1711 234.882L1712 118L1947 352.5H1828.87Z" fill="white"/>
<path d="M1712 118L1654 178L1711 234.882L1712 118Z" fill="#F7DAB4"/>
<path d="M1947 352.5L1889 412.5L1828.87 352.5H1947Z" fill="#F7DAB4"/>
<path d="M1654 178L1652 412.5M1654 178L1712 118M1654 178L1711 234.882M1652 412.5H1889M1652 412.5L1710 352.5M1889 412.5L1947 352.5M1889 412.5L1828.87 352.5M1712 118L1947 352.5M1712 118L1711 234.882M1710 352.5H1828.87M1710 352.5L1711 234.882M1947 352.5H1828.87" stroke="#021F25" stroke-width="5" stroke-linejoin="round"/>
<path d="M37 344.5C37 251.44 98.1131 176 173.5 176C196.903 176 218.931 183.271 238.182 196.082C261.61 226.335 276 267.343 276 312.5V347L310 379V344.5C310 280.33 280.941 224.538 238.182 196.082C213.329 163.989 178.306 144 139.5 144C64.1131 144 3 219.44 3 312.5V346L37 378V346.939V344.5Z" fill="white"/>
<path d="M310 379C269.678 379 239.399 378.907 218 378.801L184 346.801C193.594 346.849 204.973 346.894 218.242 346.929C234.569 346.972 253.756 347 276 347L310 379Z" fill="#B8E2C8"/>
<path d="M127.5 379.206C100.759 379.365 67.1357 379.205 37 378L3 346C14.0354 346.441 25.5385 346.743 37 346.939C56.8378 347.279 76.5512 347.307 93.5 347.206L127.5 379.206Z" fill="#B8E2C8"/>
<path d="M310 379V344.5C310 280.33 280.941 224.538 238.182 196.082M310 379C269.678 379 239.399 378.907 218 378.801L184 346.801M310 379L276 347M127.5 379.206C100.759 379.365 67.1357 379.205 37 378L3 346M127.5 379.206C127.5 379.206 120 264.218 173.5 265C174.231 265.011 174.95 265.042 175.658 265.094M127.5 379.206L93.5 347.206M276 347V312.5C276 267.343 261.61 226.335 238.182 196.082M276 347C253.756 347 234.569 346.972 218.242 346.929M3 346V312.5C3 219.44 64.1131 144 139.5 144C178.306 144 213.329 163.989 238.182 196.082M3 346C14.0354 346.441 25.5385 346.743 37 346.939M184 346.801C184 346.801 187.826 298.751 175.658 265.094M184 346.801C193.594 346.849 204.973 346.894 218.242 346.929M93.5 347.206C93.5 347.206 86 232.218 139.5 233C158.116 233.272 169.164 247.134 175.658 265.094M93.5 347.206C76.5512 347.307 56.8378 347.279 37 346.939M238.182 196.082C218.931 183.271 196.903 176 173.5 176C98.1131 176 37 251.44 37 344.5V346.939M175.658 265.094C208.625 267.517 216.678 314.145 218.242 346.929" stroke="#021F25" stroke-width="5" stroke-linejoin="round"/>
<path d="M1807 1377H2003V1714H1919H1807V1463V1377Z" fill="#B8E2C8"/>
<path d="M1723 1463V1800H1919L2003 1714H1919H1807V1463V1377L1723 1463Z" fill="white"/>
<path d="M1723 1463V1800M1723 1463L1807 1377M1723 1463H1807M1723 1800H1919M1723 1800L1807 1714M1919 1800L2003 1714M1919 1800V1714M1807 1377H2003V1714M1807 1377V1463M1807 1714V1463M1807 1714H1919M2003 1714H1919" stroke="#021F25" stroke-width="5" stroke-linejoin="round"/>
<path d="M2105 1392.78C2105 1345.76 2131.82 1305.01 2171 1284.98C2175.88 1282.48 2180.96 1280.31 2186.19 1278.48C2193.16 1276.06 2200.41 1274.25 2207.89 1273.13C2179.36 1295.27 2161 1329.88 2161 1368.78C2161 1441.86 2228.4 1499.2 2300.11 1488.44C2289.24 1496.88 2276.88 1503.5 2263.5 1507.86C2187.5 1532.61 2105 1473.96 2105 1392.78Z" fill="#B4ADEA"/>
<path d="M2336.5 1476.85C2375.95 1456.91 2403 1416.01 2403 1368.78C2403 1286.95 2319.24 1228.26 2243 1254.21C2230.2 1258.56 2218.36 1265.01 2207.89 1273.13C2279.6 1262.37 2347 1319.7 2347 1392.78C2347 1431.69 2328.64 1466.3 2300.11 1488.44C2313.02 1486.5 2325.26 1482.52 2336.5 1476.85Z" fill="#B4ADEA"/>
<path d="M2243 1254.21L2171 1284.98M2243 1254.21C2230.2 1258.56 2218.36 1265.01 2207.89 1273.13M2243 1254.21C2319.24 1228.26 2403 1286.95 2403 1368.78C2403 1416.01 2375.95 1456.91 2336.5 1476.85M2336.5 1476.85L2263.5 1507.86M2336.5 1476.85C2325.26 1482.52 2313.02 1486.5 2300.11 1488.44M2263.5 1507.86C2276.88 1503.5 2289.24 1496.88 2300.11 1488.44M2263.5 1507.86C2187.5 1532.61 2105 1473.96 2105 1392.78C2105 1345.76 2131.82 1305.01 2171 1284.98M2171 1284.98C2182.37 1279.16 2194.79 1275.1 2207.89 1273.13M2300.11 1488.44C2328.64 1466.3 2347 1431.69 2347 1392.78C2347 1319.7 2279.6 1262.37 2207.89 1273.13M2300.11 1488.44C2228.4 1499.2 2161 1441.86 2161 1368.78C2161 1329.88 2179.36 1295.27 2207.89 1273.13" stroke="#021F25" stroke-width="5"/>
<path d="M1371 1722H1567V1808V2059H1455H1371V1722Z" fill="white"/>
<path d="M1372 1723L1456 1637V1723H1372Z" fill="#B8E2C8"/>
<path d="M1652 1974L1568 2060V1974H1652Z" fill="#B8E2C8"/>
<path d="M1568 1723L1652 1637M1568 1723H1456M1568 1723V1974M1372 1723V2060H1568M1372 1723L1456 1637M1372 1723H1456M1568 2060L1652 1974M1568 2060V1974M1652 1637H1456M1652 1637V1974M1456 1637V1723M1652 1974H1568" stroke="#021F25" stroke-width="5" stroke-linejoin="round"/>
</svg>
