<svg width="3605" height="2191" viewBox="0 0 3605 2191" fill="none" xmlns="http://www.w3.org/2000/svg">
<g clip-path="url(#clip0)">
<path d="M3155.33 848.06C3126.85 828.263 3092.25 816.657 3054.94 816.657C2969.93 816.657 2898.98 876.918 2882.5 957.057H3193.11C3193.11 915.899 3178.99 878.039 3155.33 848.06Z" fill="white"/>
<path d="M2841 957.057C2841 859.823 2919.82 781 3017.06 781C3073.13 781 3123.08 807.216 3155.33 848.06C3201.06 879.858 3231 932.79 3231 992.714L3193.11 957.057C3193.11 915.899 3178.99 878.039 3155.33 848.06C3126.85 828.262 3092.25 816.657 3054.94 816.657C2969.93 816.657 2898.98 876.918 2882.5 957.057C2880.13 968.572 2878.89 980.498 2878.89 992.714L2841 957.057Z" fill="#007EA7"/>
<path d="M3155.33 848.06C3126.85 828.262 3092.25 816.657 3054.94 816.657C2969.93 816.657 2898.98 876.918 2882.5 957.057C2880.13 968.572 2878.89 980.498 2878.89 992.714L2841 957.057C2841 859.823 2919.82 781 3017.06 781C3073.13 781 3123.08 807.216 3155.33 848.06ZM3155.33 848.06C3201.06 879.858 3231 932.79 3231 992.714L3193.11 957.057C3193.11 915.899 3178.99 878.039 3155.33 848.06Z" stroke="#021F25" stroke-width="5" stroke-linejoin="round"/>
<path d="M3193.11 957.057L3231 992.714M3193.11 957.057C3193.11 915.899 3178.99 878.039 3155.33 848.06M3193.11 957.057H2882.5M2878.89 992.714H3231M2878.89 992.714L2841 957.057C2841 859.823 2919.82 781 3017.06 781C3073.13 781 3123.08 807.216 3155.33 848.06M2878.89 992.714C2878.89 980.498 2880.13 968.572 2882.5 957.057M3231 992.714C3231 932.79 3201.06 879.858 3155.33 848.06M3155.33 848.06C3126.85 828.262 3092.25 816.657 3054.94 816.657C2969.93 816.657 2898.98 876.918 2882.5 957.057" stroke="#021F25" stroke-width="5" stroke-linejoin="round"/>
<path d="M2795 1003.5L2793 769L2736 825.882L2618.13 943.5L2558 1003.5H2795Z" fill="#F7DAB4"/>
<path d="M2735 709L2793 769L2736 825.882L2735 709Z" fill="white"/>
<path d="M2500 943.5L2558 1003.5L2618.13 943.5H2500Z" fill="white"/>
<path d="M2793 769L2795 1003.5H2558M2793 769L2735 709M2793 769L2736 825.882M2558 1003.5L2500 943.5M2558 1003.5L2618.13 943.5M2735 709L2500 943.5M2735 709L2736 825.882M2500 943.5H2618.13M2618.13 943.5L2736 825.882" stroke="#021F25" stroke-width="5" stroke-linejoin="round"/>
<path d="M2947 86.5L3015 227L3069.91 122.477L3087.5 89L3070.33 53.3831L3020.5 -50L2947 86.5Z" fill="white"/>
<path d="M3120.5 227L3193 89H3087.5L3069.91 122.477L3015 227H3120.5Z" fill="#F96557"/>
<path d="M3015 227L2947 86.5L3020.5 -50M3015 227H3120.5L3193 89M3015 227L3069.91 122.477L3087.5 89M3020.5 -50H3126M3020.5 -50L3070.33 53.3831M3087.5 89L3193 89M3087.5 89L3070.33 53.3831M3126 -50L3193 89M3126 -50L3070.33 53.3831" stroke="#021F25" stroke-width="5" stroke-linejoin="round"/>
<path d="M3078 419H3190H3274V756H3078V670V419Z" fill="#B8E2C8"/>
<path d="M2994 333H3190V419H3078V670H2994V333Z" fill="white"/>
<path d="M3078 419L2994 333M3078 419H3190M3078 419V670M3274 419V756H3078M3274 419L3190 333M3274 419H3190M3078 756L2994 670M3078 756V670M2994 333H3190M2994 333V670M3190 333V419M2994 670H3078" stroke="#021F25" stroke-width="5" stroke-linejoin="round"/>
<path d="M2934 157H2709V193V383H2902H2934V157Z" fill="#F7DAB4"/>
<path d="M2902 419H2677V193H2709V383H2902V401V419Z" fill="white"/>
<path d="M2709 157H2934M2709 157L2677 193M2709 157V193M2934 157V383M2934 157L2902 193M2934 383L2902 419M2934 383H2902M2709 383H2902M2709 383V193M2709 383L2677 419M2677 193V419M2677 193H2709M2902 193V383M2902 193H2709M2902 419H2677M2902 419V383" stroke="#021F25" stroke-width="5" stroke-linejoin="round"/>
<path d="M2769.89 685.438C2741.36 663.303 2723 628.688 2723 589.785C2723 516.705 2790.4 459.366 2862.11 470.132C2890.64 492.267 2909 526.882 2909 565.785C2909 638.865 2841.6 696.204 2769.89 685.438Z" fill="white"/>
<path d="M2733.5 673.845C2694.05 653.909 2667 613.006 2667 565.785C2667 483.949 2750.76 425.263 2827 451.207C2839.8 455.564 2851.64 462.007 2862.11 470.131C2790.4 459.366 2723 516.704 2723 589.785C2723 628.688 2741.36 663.303 2769.89 685.438C2756.98 683.5 2744.74 679.523 2733.5 673.845Z" fill="#B4ADEA"/>
<path d="M2827 451.207L2899 481.978M2827 451.207C2839.8 455.564 2851.64 462.007 2862.11 470.131M2827 451.207C2750.76 425.263 2667 483.949 2667 565.785C2667 613.006 2694.05 653.909 2733.5 673.845M2733.5 673.845L2806.5 704.861M2733.5 673.845C2744.74 679.523 2756.98 683.5 2769.89 685.438M2806.5 704.861C2793.12 700.504 2780.76 693.878 2769.89 685.438M2806.5 704.861C2882.5 729.61 2965 670.962 2965 589.785C2965 542.763 2938.18 502.006 2899 481.978M2899 481.978C2887.63 476.165 2875.21 472.098 2862.11 470.131M2769.89 685.438C2741.36 663.303 2723 628.688 2723 589.785C2723 516.704 2790.4 459.366 2862.11 470.131M2769.89 685.438C2841.6 696.203 2909 638.865 2909 565.785C2909 526.882 2890.64 492.267 2862.11 470.131" stroke="#021F25" stroke-width="5"/>
<path d="M2391 419L2326 534L2391 650H2420.51H2531L2596 537.5L2536.87 439.5L2524.5 419H2391Z" fill="white"/>
<path d="M2531 650L2596 537.5L2536.87 439.5H2565.5L2637 558L2572 670.5H2432L2420.51 650H2531Z" fill="#007EA7"/>
<path d="M2524.5 419H2391L2326 534L2391 650M2524.5 419L2565.5 439.5M2524.5 419L2536.87 439.5M2596 537.5L2531 650M2596 537.5L2637 558M2596 537.5L2536.87 439.5M2531 650L2572 670.5M2531 650H2420.51M2391 650L2432 670.5M2391 650H2420.51M2565.5 439.5L2637 558M2565.5 439.5H2536.87M2637 558L2572 670.5M2572 670.5H2432M2432 670.5L2420.51 650" stroke="#021F25" stroke-width="5" stroke-linejoin="round"/>
<path d="M2491.5 337.5L2412.5 380L2415.83 324.957L2458.5 302L2538 344.5L2533 253.5L2569.52 212.026L2625 222L2566 289L2571 380L2491.5 337.5Z" fill="#B4ADEA"/>
<path d="M2503 170.5L2484.04 138.139L2490 127.5L2516.63 172.951L2503 170.5Z" fill="#B4ADEA"/>
<path d="M2379.5 344.5L2415.83 324.957L2458.5 302L2538 344.5L2533 253.5L2569.52 212.026L2592 186.5L2516.63 172.951L2503 170.5L2484.04 138.139L2457 92L2413 170.5L2326 187.5L2385 253.5L2379.5 344.5Z" fill="white"/>
<path d="M2491.5 337.5L2412.5 380M2491.5 337.5L2571 380M2491.5 337.5L2458.5 302M2412.5 380L2379.5 344.5M2412.5 380L2415.83 324.957M2490 127.5L2457 92M2490 127.5L2484.04 138.139M2490 127.5L2516.63 172.951M2625 222L2566 289M2625 222L2592 186.5M2625 222L2569.52 212.026M2566 289L2571 380M2566 289L2533 253.5M2571 380L2538 344.5M2458.5 302L2538 344.5M2458.5 302L2415.83 324.957M2379.5 344.5L2385 253.5L2326 187.5L2413 170.5L2457 92M2379.5 344.5L2415.83 324.957M2457 92L2484.04 138.139M2592 186.5L2516.63 172.951M2592 186.5L2569.52 212.026M2533 253.5L2538 344.5M2533 253.5L2569.52 212.026M2484.04 138.139L2503 170.5L2516.63 172.951" stroke="#021F25" stroke-width="5" stroke-linejoin="round"/>
<path d="M2177.5 105L2169.97 118.103L2058.64 311.71L2039.5 345L2317 343.5L2177.5 105Z" fill="#F96557"/>
<path d="M2143 72L2005 312L2058.64 311.71L2169.97 118.103L2143 72Z" fill="white"/>
<path d="M2039.5 345L2317 343.5L2177.5 105M2039.5 345L2005 312M2039.5 345L2058.64 311.71M2177.5 105L2143 72M2177.5 105L2169.97 118.103M2005 312L2143 72M2005 312L2058.64 311.71M2143 72L2169.97 118.103M2058.64 311.71L2169.97 118.103" stroke="#021F25" stroke-width="5" stroke-linejoin="round"/>
<path d="M2704 -101C2616.74 -101 2546 -30.261 2546 57H2583.24H2862C2862 20.063 2849.33 -13.9136 2828.09 -40.8178C2799.15 -77.4729 2754.32 -101 2704 -101Z" fill="white"/>
<path d="M2580 89L2546 57H2583.24C2581.12 67.3342 2580 78.0367 2580 89Z" fill="#007EA7"/>
<path d="M2546 57C2546 -30.261 2616.74 -101 2704 -101C2754.32 -101 2799.15 -77.4729 2828.09 -40.8178M2546 57L2580 89M2546 57H2583.24M2862 57L2896 89M2862 57C2862 20.063 2849.33 -13.9136 2828.09 -40.8178M2862 57H2583.24M2580 89H2896M2580 89C2580 78.0367 2581.12 67.3342 2583.24 57M2896 89C2896 35.2218 2869.13 -12.2812 2828.09 -40.8178" stroke="#021F25" stroke-width="5" stroke-linejoin="round"/>
<path d="M2376 32L2441 -80.5L2381.87 -178.5H2277L2212 -63.5L2265.51 32H2376Z" fill="white"/>
<path d="M2376 32L2441 -80.5L2381.87 -178.5L2369.5 -199L2410.5 -178.5L2482 -60L2417 52.5H2277L2236 32H2265.51H2376Z" fill="#007EA7"/>
<path d="M2171 -84L2236 -199M2171 -84L2236 32M2171 -84L2212 -63.5M2236 -199H2369.5M2236 -199L2277 -178.5M2369.5 -199L2410.5 -178.5L2482 -60M2369.5 -199L2381.87 -178.5M2441 -80.5L2376 32M2441 -80.5L2482 -60M2441 -80.5L2381.87 -178.5M2376 32L2417 52.5M2376 32H2265.51M2236 32L2277 52.5H2417M2236 32H2265.51M2212 -63.5L2277 -178.5M2212 -63.5L2265.51 32M2277 -178.5H2381.87M2482 -60L2417 52.5" stroke="#021F25" stroke-width="5" stroke-linejoin="round"/>
<path d="M2091.5 -199.5L2055.17 -179.957L2012.5 -157L1933 -199.5L1938 -108.5L1901.48 -67.0264L1879 -41.5L1954.37 -27.951L1968 -25.5L1986.96 6.86111L2014 53L2058 -25.5L2145 -42.5L2086 -108.5L2091.5 -199.5Z" fill="white"/>
<path d="M2014 53L1981 17.5L1954.37 -27.951L1968 -25.5L1986.96 6.86111L2014 53Z" fill="#B4ADEA"/>
<path d="M2091.5 -199.5L2058.5 -235L2055.75 -189.5L2055.17 -179.957L2091.5 -199.5Z" fill="#B4ADEA"/>
<path d="M1879 -41.5L1846 -77L1901.48 -67.0264L1879 -41.5Z" fill="#B4ADEA"/>
<path d="M1979.5 -192.5L2058.5 -235M1979.5 -192.5L1900 -235M1979.5 -192.5L2012.5 -157M2058.5 -235L2091.5 -199.5M2058.5 -235L2055.75 -189.5L2055.17 -179.957M1846 -77L1905 -144M1846 -77L1879 -41.5M1846 -77L1901.48 -67.0264M1905 -144L1900 -235M1905 -144L1938 -108.5M1900 -235L1933 -199.5M2012.5 -157L1933 -199.5M2012.5 -157L2055.17 -179.957M2091.5 -199.5L2086 -108.5L2145 -42.5L2058 -25.5L2014 53M2091.5 -199.5L2055.17 -179.957M2014 53L1981 17.5L1954.37 -27.951M2014 53L1986.96 6.86111L1968 -25.5L1954.37 -27.951M1879 -41.5L1954.37 -27.951M1879 -41.5L1901.48 -67.0264M1938 -108.5L1933 -199.5M1938 -108.5L1901.48 -67.0264" stroke="#021F25" stroke-width="5" stroke-linejoin="round"/>
<path d="M1868 284.5L1867 166.882L1866 50L1631 284.5H1749.13H1868Z" fill="#F7DAB4"/>
<path d="M1924 110L1926 344.5H1689L1749.13 284.5H1868L1867 166.882L1924 110Z" fill="white"/>
<path d="M1924 110L1926 344.5M1924 110L1866 50M1924 110L1867 166.882M1926 344.5H1689M1926 344.5L1868 284.5M1689 344.5L1631 284.5M1689 344.5L1749.13 284.5M1866 50L1631 284.5M1866 50L1867 166.882M1868 284.5H1749.13M1868 284.5L1867 166.882M1631 284.5H1749.13" stroke="#021F25" stroke-width="5" stroke-linejoin="round"/>
<path d="M1868 832.5V727L1972.52 781.912L1868 832.5Z" fill="#F96557"/>
<path d="M2145 838V732.5L2041.62 782.332L2145 838Z" fill="#F96557"/>
<path d="M2008.5 659L1868 727L2006 799.5L2145 732.5L2008.5 659Z" fill="white"/>
<path d="M1868 727L2008.5 659L2145 732.5M1868 727V832.5M1868 727L1972.52 781.912M2145 732.5V838M2145 732.5L2041.62 782.332M2006 799.5V905M2006 799.5L2041.62 782.332M2006 799.5L1972.52 781.912M1868 832.5L2006 905M1868 832.5L1972.52 781.912M2145 838L2006 905M2145 838L2041.62 782.332" stroke="#021F25" stroke-width="5" stroke-linejoin="round"/>
<path d="M3280 282.757C3280 375.817 3341.11 451.257 3416.5 451.257C3455.31 451.257 3490.33 431.268 3515.18 399.176C3538.61 368.923 3553 327.914 3553 282.757V248.257C3530.76 248.257 3511.57 248.286 3495.24 248.329C3481.97 248.364 3470.59 248.409 3461 248.456C3461 248.456 3464.83 296.507 3452.66 330.163C3446.16 348.124 3435.12 361.985 3416.5 362.257C3363 363.04 3370.5 248.051 3370.5 248.051C3353.55 247.951 3333.84 247.978 3314 248.318C3302.54 248.515 3291.04 248.816 3280 249.257V282.757Z" fill="#B8E2C8"/>
<path d="M3587 216.257C3546.68 216.257 3516.4 216.35 3495 216.456L3461 248.456C3470.59 248.409 3481.97 248.364 3495.24 248.329C3511.57 248.286 3530.76 248.257 3553 248.257L3587 216.257Z" fill="white"/>
<path d="M3404.5 216.051C3377.76 215.893 3344.14 216.052 3314 217.257L3280 249.257C3291.04 248.816 3302.54 248.515 3314 248.318C3333.84 247.978 3353.55 247.951 3370.5 248.051L3404.5 216.051Z" fill="white"/>
<path d="M3314 250.757V248.318M3587 216.257V250.757C3587 314.927 3557.94 370.72 3515.18 399.176M3587 216.257C3546.68 216.257 3516.4 216.35 3495 216.456M3587 216.257L3553 248.257M3314 217.257C3344.14 216.052 3377.76 215.893 3404.5 216.051M3314 217.257L3280 249.257M3314 217.257V248.318M3495 216.456L3461 248.456M3495 216.456C3495 216.456 3496.1 230.299 3495.24 248.329M3404.5 216.051C3404.5 216.051 3397 331.04 3450.5 330.257C3451.23 330.247 3451.95 330.215 3452.66 330.163M3404.5 216.051L3370.5 248.051M3553 248.257V282.757C3553 327.914 3538.61 368.923 3515.18 399.176M3553 248.257C3530.76 248.257 3511.57 248.286 3495.24 248.329M3280 249.257V282.757C3280 375.817 3341.11 451.257 3416.5 451.257C3455.31 451.257 3490.33 431.268 3515.18 399.176M3280 249.257C3291.04 248.816 3302.54 248.515 3314 248.318M3461 248.456C3461 248.456 3464.83 296.507 3452.66 330.163M3461 248.456C3470.59 248.409 3481.97 248.364 3495.24 248.329M3370.5 248.051C3370.5 248.051 3363 363.04 3416.5 362.257C3435.12 361.985 3446.16 348.124 3452.66 330.163M3370.5 248.051C3353.55 247.951 3333.84 247.978 3314 248.318" stroke="#021F25" stroke-width="5" stroke-linejoin="round"/>
<path d="M3561 552.5L3630.5 412H3735.5L3683.19 516.246L3665 552.5H3561Z" fill="white"/>
<path d="M3700 549.5H3806.5L3735.5 690.5H3630.5L3682.06 585.895L3700 549.5Z" fill="white"/>
<path d="M3630.5 412L3561 552.5M3630.5 412H3735.5M3630.5 412L3683.19 516.246M3561 552.5L3630.5 690.5M3561 552.5H3665M3630.5 690.5H3735.5L3806.5 549.5M3630.5 690.5L3682.06 585.895M3700 549.5H3806.5M3700 549.5L3682.06 585.895M3700 549.5L3683.19 516.246M3735.5 412L3806.5 549.5M3735.5 412L3683.19 516.246M3665 552.5L3682.06 585.895M3665 552.5L3683.19 516.246" stroke="#021F25" stroke-width="5" stroke-linejoin="round"/>
<path d="M2073.06 396C1975.82 396 1897 474.823 1897 572.057H1938.5H2249.11C2249.11 530.899 2234.99 493.039 2211.33 463.06C2179.08 422.216 2129.13 396 2073.06 396Z" fill="#007EA7"/>
<path d="M2287 607.714L2249.11 572.057C2249.11 530.899 2234.99 493.039 2211.33 463.06C2257.06 494.858 2287 547.79 2287 607.714Z" fill="white"/>
<path d="M1897 572.057C1897 474.823 1975.82 396 2073.06 396C2129.13 396 2179.08 422.216 2211.33 463.06M1897 572.057L1934.89 607.714M1897 572.057H1938.5M2249.11 572.057L2287 607.714M2249.11 572.057C2249.11 530.899 2234.99 493.039 2211.33 463.06M2249.11 572.057H1938.5M1934.89 607.714H2287M1934.89 607.714C1934.89 595.498 1936.13 583.572 1938.5 572.057M2287 607.714C2287 547.79 2257.06 494.858 2211.33 463.06" stroke="#021F25" stroke-width="5" stroke-linejoin="round"/>
<path d="M3433.5 183L3354.5 140.5L3275 183L3280 92L3221 25L3276.48 15.0264L3313.5 57.5L3308 147L3387 105.5L3430.17 127.957L3430.75 137.5L3433.5 183Z" fill="#B4ADEA"/>
<path d="M3487 26L3428 92L3430.17 127.957L3430.75 137.5L3433.5 183L3466.5 147.5L3461 56.5L3520 -9.5L3433 -26.5L3389 -105L3356 -69.5L3329.37 -24.049L3254 -10.5L3221 25L3276.48 15.0264L3310 9L3329.37 -24.049L3356 -69.5L3361.96 -58.8611L3400 9L3487 26Z" fill="white"/>
<path d="M3354.5 140.5L3433.5 183M3354.5 140.5L3275 183M3354.5 140.5L3387.5 105M3433.5 183L3466.5 147.5L3461 56.5M3433.5 183L3430.75 137.5L3430.17 127.957M3428 92L3487 26M3428 92L3461 56.5M3428 92L3430.17 127.957M3487 26L3400 9M3487 26L3520 -9.5M3400 9L3361.96 -58.8611L3356 -69.5M3400 9L3416.5 -8.75L3433 -26.5M3356 -69.5L3389 -105L3433 -26.5M3356 -69.5L3329.37 -24.049M3221 25L3280 92M3221 25L3254 -10.5L3329.37 -24.049M3221 25L3276.48 15.0264M3280 92L3275 183M3280 92L3313 56.5M3275 183L3308 147.5M3387.5 105L3308 147.5M3387.5 105L3430.17 127.957M3461 56.5L3520 -9.5M3520 -9.5L3433 -26.5M3313 56.5L3308 147.5M3313 56.5L3276.48 15.0264M3329.37 -24.049L3310 9L3276.48 15.0264" stroke="#021F25" stroke-width="5" stroke-linejoin="round"/>
<path d="M2431 1478.8L2397 1510.8C2397 1510.8 2395.9 1496.96 2396.76 1478.93C2410.03 1478.89 2421.41 1478.85 2431 1478.8Z" fill="#B8E2C8"/>
<path d="M2612 1478L2578 1510V1478.94C2589.46 1478.74 2600.96 1478.44 2612 1478Z" fill="#B8E2C8"/>
<path d="M2441.5 1308C2418.1 1308 2396.07 1315.27 2376.82 1328.08C2334.06 1356.54 2305 1412.33 2305 1476.5V1511C2345.32 1511 2375.6 1510.91 2397 1510.8C2397 1510.8 2395.9 1496.96 2396.76 1478.93C2398.32 1446.14 2406.37 1399.52 2439.34 1397.09C2440.05 1397.04 2440.77 1397.01 2441.5 1397C2495 1396.22 2487.5 1511.21 2487.5 1511.21C2514.24 1511.36 2547.86 1511.21 2578 1510V1478.94V1476.5C2578 1383.44 2516.89 1308 2441.5 1308Z" fill="white"/>
<path d="M2578 1510C2547.86 1511.21 2514.24 1511.36 2487.5 1511.21C2487.5 1511.21 2495 1396.22 2441.5 1397C2440.77 1397.01 2440.05 1397.04 2439.34 1397.09M2578 1510L2612 1478M2578 1510V1478.94M2397 1510.8C2375.6 1510.91 2345.32 1511 2305 1511V1476.5C2305 1412.33 2334.06 1356.54 2376.82 1328.08M2397 1510.8L2431 1478.8M2397 1510.8C2397 1510.8 2395.9 1496.96 2396.76 1478.93M2612 1478V1444.5C2612 1351.44 2550.89 1276 2475.5 1276C2436.69 1276 2401.67 1295.99 2376.82 1328.08M2612 1478C2600.96 1478.44 2589.46 1478.74 2578 1478.94M2431 1478.8C2431 1478.8 2427.17 1430.75 2439.34 1397.09M2431 1478.8C2421.41 1478.85 2410.03 1478.89 2396.76 1478.93M2376.82 1328.08C2396.07 1315.27 2418.1 1308 2441.5 1308C2516.89 1308 2578 1383.44 2578 1476.5V1478.94M2439.34 1397.09C2406.37 1399.52 2398.32 1446.14 2396.76 1478.93" stroke="#021F25" stroke-width="5" stroke-linejoin="round"/>
<path d="M3101 1804H3326V1768V1578H3133H3101V1804Z" fill="white"/>
<path d="M3133 1542H3358V1768H3326V1578H3133V1542Z" fill="#F7DAB4"/>
<path d="M3133 1542H3358M3133 1542L3101 1578M3133 1542V1578M3358 1542V1768M3358 1542L3326 1578M3358 1768L3326 1804M3358 1768H3326M3101 1578V1804H3326M3101 1578H3133M3326 1578V1768M3326 1578H3133M3326 1804V1768" stroke="#021F25" stroke-width="5" stroke-linejoin="round"/>
<path d="M3550 778.5H3313L3371 718.5H3489.87H3608L3550 778.5Z" fill="#F7DAB4"/>
<path d="M3371 718.5L3372 600.882L3373 484L3608 718.5H3489.87H3371Z" fill="white"/>
<path d="M3315 544L3313 778.5M3315 544L3373 484M3315 544L3372 600.882M3313 778.5H3550M3313 778.5L3371 718.5M3550 778.5L3608 718.5M3550 778.5L3519.94 748.5L3489.87 718.5M3373 484L3608 718.5M3373 484L3372 600.882M3371 718.5H3489.87M3371 718.5L3372 600.882M3608 718.5H3489.87M3489.87 718.5L3372 600.882" stroke="#021F25" stroke-width="5" stroke-linejoin="round"/>
<path d="M3526.11 1516.44C3554.64 1494.3 3573 1459.69 3573 1420.78C3573 1347.7 3505.6 1290.37 3433.89 1301.13C3405.36 1323.27 3387 1357.88 3387 1396.78C3387 1469.87 3454.4 1527.2 3526.11 1516.44Z" fill="#B4ADEA"/>
<path d="M3562.5 1504.85C3601.95 1484.91 3629 1444.01 3629 1396.78C3629 1314.95 3545.24 1256.26 3469 1282.21C3456.2 1286.56 3444.36 1293.01 3433.89 1301.13C3505.6 1290.37 3573 1347.7 3573 1420.78C3573 1459.69 3554.64 1494.3 3526.11 1516.44C3539.02 1514.5 3551.26 1510.52 3562.5 1504.85Z" fill="white"/>
<path d="M3469 1282.21L3397 1312.98M3469 1282.21C3456.2 1286.56 3444.36 1293.01 3433.89 1301.13M3469 1282.21C3545.24 1256.26 3629 1314.95 3629 1396.78C3629 1444.01 3601.95 1484.91 3562.5 1504.85M3562.5 1504.85L3489.5 1535.86M3562.5 1504.85C3551.26 1510.52 3539.02 1514.5 3526.11 1516.44M3489.5 1535.86C3502.88 1531.5 3515.24 1524.88 3526.11 1516.44M3489.5 1535.86C3413.5 1560.61 3331 1501.96 3331 1420.78C3331 1373.76 3357.82 1333.01 3397 1312.98M3397 1312.98C3408.37 1307.16 3420.79 1303.1 3433.89 1301.13M3526.11 1516.44C3554.64 1494.3 3573 1459.69 3573 1420.78C3573 1347.7 3505.6 1290.37 3433.89 1301.13M3526.11 1516.44C3454.4 1527.2 3387 1469.86 3387 1396.78C3387 1357.88 3405.36 1323.27 3433.89 1301.13" stroke="#021F25" stroke-width="5"/>
<path d="M3711 982L3573 1222L3626.64 1221.71L3737.97 1028.1L3711 982Z" fill="#F96557"/>
<path d="M3607.5 1255L3885 1253.5L3745.5 1015M3607.5 1255L3573 1222M3607.5 1255L3626.64 1221.71M3745.5 1015L3711 982M3745.5 1015L3737.97 1028.1M3573 1222L3711 982M3573 1222L3626.64 1221.71M3711 982L3737.97 1028.1M3626.64 1221.71L3737.97 1028.1" stroke="#021F25" stroke-width="5" stroke-linejoin="round"/>
<path d="M3365 820H3561V1157H3477H3365V906V820Z" fill="#B8E2C8"/>
<path d="M3281 906V1243H3477L3561 1157H3477H3365V906V820L3281 906Z" fill="white"/>
<path d="M3281 906V1243M3281 906L3365 820M3281 906H3365M3281 1243H3477M3281 1243L3365 1157M3477 1243L3561 1157M3477 1243V1157M3365 820H3561V1157M3365 820V906M3365 1157V906M3365 1157H3477M3561 1157H3477" stroke="#021F25" stroke-width="5" stroke-linejoin="round"/>
<path d="M2929 1165H3125V1251V1502H3013H2929V1165Z" fill="white"/>
<path d="M2930 1166L3014 1080V1166H2930Z" fill="#B8E2C8"/>
<path d="M3210 1417L3126 1503V1417H3210Z" fill="#B8E2C8"/>
<path d="M3126 1166L3210 1080M3126 1166H3014M3126 1166V1417M2930 1166V1503H3126M2930 1166L3014 1080M2930 1166H3014M3126 1503L3210 1417M3126 1503V1417M3210 1080H3014M3210 1080V1417M3014 1080V1166M3210 1417H3126" stroke="#021F25" stroke-width="5" stroke-linejoin="round"/>
<path d="M1476 34.5C1476 -58.56 1537.11 -134 1612.5 -134C1635.9 -134 1657.93 -126.729 1677.18 -113.918C1700.61 -83.6654 1715 -42.6572 1715 2.5V37L1749 69V34.5C1749 -29.6701 1719.94 -85.4622 1677.18 -113.918C1652.33 -146.011 1617.31 -166 1578.5 -166C1503.11 -166 1442 -90.56 1442 2.5V36L1476 68V36.9392V34.5Z" fill="white"/>
<path d="M1749 69C1708.68 69 1678.4 68.907 1657 68.8012L1623 36.8012C1632.59 36.8487 1643.97 36.8935 1657.24 36.9286C1673.57 36.9717 1692.76 37 1715 37L1749 69Z" fill="#B8E2C8"/>
<path d="M1566.5 69.2063C1539.76 69.3647 1506.14 69.2054 1476 68L1442 36C1453.04 36.4414 1464.54 36.7425 1476 36.9392C1495.84 37.2795 1515.55 37.3067 1532.5 37.2063L1566.5 69.2063Z" fill="#B8E2C8"/>
<path d="M1749 69V34.5C1749 -29.6701 1719.94 -85.4622 1677.18 -113.918M1749 69C1708.68 69 1678.4 68.907 1657 68.8012L1623 36.8012M1749 69L1715 37M1566.5 69.2063C1539.76 69.3647 1506.14 69.2054 1476 68L1442 36M1566.5 69.2063C1566.5 69.2063 1559 -45.7825 1612.5 -45C1613.23 -44.9893 1613.95 -44.9577 1614.66 -44.9057M1566.5 69.2063L1532.5 37.2063M1715 37V2.5C1715 -42.6572 1700.61 -83.6654 1677.18 -113.918M1715 37C1692.76 37 1673.57 36.9717 1657.24 36.9286M1442 36V2.5C1442 -90.56 1503.11 -166 1578.5 -166C1617.31 -166 1652.33 -146.011 1677.18 -113.918M1442 36C1453.04 36.4414 1464.54 36.7425 1476 36.9392M1623 36.8012C1623 36.8012 1626.83 -11.2494 1614.66 -44.9057M1623 36.8012C1632.59 36.8487 1643.97 36.8935 1657.24 36.9286M1532.5 37.2063C1532.5 37.2063 1525 -77.7825 1578.5 -77C1597.12 -76.7277 1608.16 -62.8663 1614.66 -44.9057M1532.5 37.2063C1515.55 37.3067 1495.84 37.2795 1476 36.9392M1677.18 -113.918C1657.93 -126.729 1635.9 -134 1612.5 -134C1537.11 -134 1476 -58.56 1476 34.5V36.9392M1614.66 -44.9057C1647.63 -42.4828 1655.68 4.14467 1657.24 36.9286" stroke="#021F25" stroke-width="5" stroke-linejoin="round"/>
<path d="M3696 1615L3761 1730L3696 1846H3666.49H3556L3491 1733.5L3550.13 1635.5L3562.5 1615H3696Z" fill="#007EA7"/>
<path d="M3515 1866.5H3655L3696 1846H3666.49H3556L3515 1866.5Z" fill="white"/>
<path d="M3521.5 1635.5L3562.5 1615L3550.13 1635.5H3521.5Z" fill="white"/>
<path d="M3562.5 1615H3696L3761 1730L3696 1846M3562.5 1615L3521.5 1635.5M3562.5 1615L3550.13 1635.5M3491 1733.5L3556 1846M3491 1733.5L3450 1754M3491 1733.5L3550.13 1635.5M3556 1846L3515 1866.5M3556 1846H3666.49M3696 1846L3655 1866.5M3696 1846H3666.49M3521.5 1635.5L3450 1754M3521.5 1635.5H3550.13M3450 1754L3515 1866.5M3515 1866.5H3655M3655 1866.5L3666.49 1846" stroke="#021F25" stroke-width="5" stroke-linejoin="round"/>
</g>
<defs>
<clipPath id="clip0">
<rect width="3605" height="2191" fill="white"/>
</clipPath>
</defs>
</svg>
