<svg width="2005" height="2169" viewBox="0 0 2005 2169" fill="none" xmlns="http://www.w3.org/2000/svg">
<g clip-path="url(#clip0)">
<path d="M2019.33 1187.06C1990.85 1167.26 1956.25 1155.66 1918.94 1155.66C1833.93 1155.66 1762.98 1215.92 1746.5 1296.06H2057.11C2057.11 1254.9 2042.99 1217.04 2019.33 1187.06Z" fill="white"/>
<path d="M1705 1296.06C1705 1198.82 1783.82 1120 1881.06 1120C1937.13 1120 1987.08 1146.22 2019.33 1187.06C2065.06 1218.86 2095 1271.79 2095 1331.71L2057.11 1296.06C2057.11 1254.9 2042.99 1217.04 2019.33 1187.06C1990.85 1167.26 1956.25 1155.66 1918.94 1155.66C1833.93 1155.66 1762.98 1215.92 1746.5 1296.06C1744.13 1307.57 1742.89 1319.5 1742.89 1331.71L1705 1296.06Z" fill="#007EA7"/>
<path d="M2019.33 1187.06C1990.85 1167.26 1956.25 1155.66 1918.94 1155.66C1833.93 1155.66 1762.98 1215.92 1746.5 1296.06C1744.13 1307.57 1742.89 1319.5 1742.89 1331.71L1705 1296.06C1705 1198.82 1783.82 1120 1881.06 1120C1937.13 1120 1987.08 1146.22 2019.33 1187.06ZM2019.33 1187.06C2065.06 1218.86 2095 1271.79 2095 1331.71L2057.11 1296.06C2057.11 1254.9 2042.99 1217.04 2019.33 1187.06Z" stroke="#021F25" stroke-width="5" stroke-linejoin="round"/>
<path d="M2057.11 1296.06L2095 1331.71M2057.11 1296.06C2057.11 1254.9 2042.99 1217.04 2019.33 1187.06M2057.11 1296.06H1746.5M1742.89 1331.71H2095M1742.89 1331.71L1705 1296.06C1705 1198.82 1783.82 1120 1881.06 1120C1937.13 1120 1987.08 1146.22 2019.33 1187.06M1742.89 1331.71C1742.89 1319.5 1744.13 1307.57 1746.5 1296.06M2095 1331.71C2095 1271.79 2065.06 1218.86 2019.33 1187.06M2019.33 1187.06C1990.85 1167.26 1956.25 1155.66 1918.94 1155.66C1833.93 1155.66 1762.98 1215.92 1746.5 1296.06" stroke="#021F25" stroke-width="5" stroke-linejoin="round"/>
<path d="M1659 1342.5L1657 1108L1600 1164.88L1482.13 1282.5L1422 1342.5H1659Z" fill="#F7DAB4"/>
<path d="M1599 1048L1657 1108L1600 1164.88L1599 1048Z" fill="white"/>
<path d="M1364 1282.5L1422 1342.5L1482.13 1282.5H1364Z" fill="white"/>
<path d="M1657 1108L1659 1342.5H1422M1657 1108L1599 1048M1657 1108L1600 1164.88M1422 1342.5L1364 1282.5M1422 1342.5L1482.13 1282.5M1599 1048L1364 1282.5M1599 1048L1600 1164.88M1364 1282.5H1482.13M1482.13 1282.5L1600 1164.88" stroke="#021F25" stroke-width="5" stroke-linejoin="round"/>
<path d="M1811 425.5L1879 566L1933.91 461.477L1951.5 428L1934.33 392.383L1884.5 289L1811 425.5Z" fill="white"/>
<path d="M1984.5 566L2057 428H1951.5L1933.91 461.477L1879 566H1984.5Z" fill="#F96557"/>
<path d="M1879 566L1811 425.5L1884.5 289M1879 566H1984.5L2057 428M1879 566L1933.91 461.477L1951.5 428M1884.5 289H1990M1884.5 289L1934.33 392.383M1951.5 428H2057M1951.5 428L1934.33 392.383M1990 289L2057 428M1990 289L1934.33 392.383" stroke="#021F25" stroke-width="5" stroke-linejoin="round"/>
<path d="M1942 758H2054H2138V1095H1942V1009V758Z" fill="#B8E2C8"/>
<path d="M1858 672H2054V758H1942V1009H1858V672Z" fill="white"/>
<path d="M1942 758L1858 672M1942 758H2054M1942 758V1009M2138 758V1095H1942M2138 758L2054 672M2138 758H2054M1942 1095L1858 1009M1942 1095V1009M1858 672H2054M1858 672V1009M2054 672V758M1858 1009H1942" stroke="#021F25" stroke-width="5" stroke-linejoin="round"/>
<path d="M1798 496H1573V532V722H1766H1798V496Z" fill="#F7DAB4"/>
<path d="M1766 758H1541V532H1573V722H1766V740V758Z" fill="white"/>
<path d="M1573 496H1798M1573 496L1541 532M1573 496V532M1798 496V722M1798 496L1766 532M1798 722L1766 758M1798 722H1766M1573 722H1766M1573 722V532M1573 722L1541 758M1541 532V758M1541 532H1573M1766 532V722M1766 532H1573M1766 758H1541M1766 758V722" stroke="#021F25" stroke-width="5" stroke-linejoin="round"/>
<path d="M1633.89 1024.44C1605.36 1002.3 1587 967.688 1587 928.785C1587 855.704 1654.4 798.366 1726.11 809.131C1754.64 831.267 1773 865.882 1773 904.785C1773 977.865 1705.6 1035.2 1633.89 1024.44Z" fill="white"/>
<path d="M1597.5 1012.85C1558.05 992.909 1531 952.006 1531 904.785C1531 822.949 1614.76 764.263 1691 790.207C1703.8 794.564 1715.64 801.007 1726.11 809.131C1654.4 798.366 1587 855.704 1587 928.785C1587 967.688 1605.36 1002.3 1633.89 1024.44C1620.98 1022.5 1608.74 1018.52 1597.5 1012.85Z" fill="#B4ADEA"/>
<path d="M1691 790.207L1763 820.978M1691 790.207C1703.8 794.564 1715.64 801.007 1726.11 809.131M1691 790.207C1614.76 764.263 1531 822.949 1531 904.785C1531 952.006 1558.05 992.909 1597.5 1012.85M1597.5 1012.85L1670.5 1043.86M1597.5 1012.85C1608.74 1018.52 1620.98 1022.5 1633.89 1024.44M1670.5 1043.86C1657.12 1039.5 1644.76 1032.88 1633.89 1024.44M1670.5 1043.86C1746.5 1068.61 1829 1009.96 1829 928.785C1829 881.763 1802.18 841.006 1763 820.978M1763 820.978C1751.63 815.165 1739.21 811.098 1726.11 809.131M1633.89 1024.44C1605.36 1002.3 1587 967.688 1587 928.785C1587 855.704 1654.4 798.366 1726.11 809.131M1633.89 1024.44C1705.6 1035.2 1773 977.865 1773 904.785C1773 865.882 1754.64 831.267 1726.11 809.131" stroke="#021F25" stroke-width="5"/>
<path d="M1255 758L1190 873L1255 989H1284.51H1395L1460 876.5L1400.87 778.5L1388.5 758H1255Z" fill="white"/>
<path d="M1395 989L1460 876.5L1400.87 778.5H1429.5L1501 897L1436 1009.5H1296L1284.51 989H1395Z" fill="#007EA7"/>
<path d="M1388.5 758H1255L1190 873L1255 989M1388.5 758L1429.5 778.5M1388.5 758L1400.87 778.5M1460 876.5L1395 989M1460 876.5L1501 897M1460 876.5L1400.87 778.5M1395 989L1436 1009.5M1395 989H1284.51M1255 989L1296 1009.5M1255 989H1284.51M1429.5 778.5L1501 897M1429.5 778.5H1400.87M1501 897L1436 1009.5M1436 1009.5H1296M1296 1009.5L1284.51 989" stroke="#021F25" stroke-width="5" stroke-linejoin="round"/>
<path d="M1355.5 676.5L1276.5 719L1279.83 663.957L1322.5 641L1402 683.5L1397 592.5L1433.52 551.026L1489 561L1430 628L1435 719L1355.5 676.5Z" fill="#B4ADEA"/>
<path d="M1367 509.5L1348.04 477.139L1354 466.5L1380.63 511.951L1367 509.5Z" fill="#B4ADEA"/>
<path d="M1243.5 683.5L1279.83 663.957L1322.5 641L1402 683.5L1397 592.5L1433.52 551.026L1456 525.5L1380.63 511.951L1367 509.5L1348.04 477.139L1321 431L1277 509.5L1190 526.5L1249 592.5L1243.5 683.5Z" fill="white"/>
<path d="M1355.5 676.5L1276.5 719M1355.5 676.5L1435 719M1355.5 676.5L1322.5 641M1276.5 719L1243.5 683.5M1276.5 719L1279.83 663.957M1354 466.5L1321 431M1354 466.5L1348.04 477.139M1354 466.5L1380.63 511.951M1489 561L1430 628M1489 561L1456 525.5M1489 561L1433.52 551.026M1430 628L1435 719M1430 628L1397 592.5M1435 719L1402 683.5M1322.5 641L1402 683.5M1322.5 641L1279.83 663.957M1243.5 683.5L1249 592.5L1190 526.5L1277 509.5L1321 431M1243.5 683.5L1279.83 663.957M1321 431L1348.04 477.139M1456 525.5L1380.63 511.951M1456 525.5L1433.52 551.026M1397 592.5L1402 683.5M1397 592.5L1433.52 551.026M1348.04 477.139L1367 509.5L1380.63 511.951" stroke="#021F25" stroke-width="5" stroke-linejoin="round"/>
<path d="M1041.5 444L1033.97 457.103L922.642 650.71L903.5 684L1181 682.5L1041.5 444Z" fill="#F96557"/>
<path d="M1007 411L869 651L922.642 650.71L1033.97 457.103L1007 411Z" fill="white"/>
<path d="M903.5 684L1181 682.5L1041.5 444M903.5 684L869 651M903.5 684L922.642 650.71M1041.5 444L1007 411M1041.5 444L1033.97 457.103M869 651L1007 411M869 651L922.642 650.71M1007 411L1033.97 457.103M922.642 650.71L1033.97 457.103" stroke="#021F25" stroke-width="5" stroke-linejoin="round"/>
<path d="M1568 238C1480.74 238 1410 308.739 1410 396H1447.24H1726C1726 359.063 1713.33 325.086 1692.09 298.182C1663.15 261.527 1618.32 238 1568 238Z" fill="white"/>
<path d="M1444 428L1410 396H1447.24C1445.12 406.334 1444 417.037 1444 428Z" fill="#007EA7"/>
<path d="M1410 396C1410 308.739 1480.74 238 1568 238C1618.32 238 1663.15 261.527 1692.09 298.182M1410 396L1444 428M1410 396H1447.24M1726 396L1760 428M1726 396C1726 359.063 1713.33 325.086 1692.09 298.182M1726 396H1447.24M1444 428H1760M1444 428C1444 417.037 1445.12 406.334 1447.24 396M1760 428C1760 374.222 1733.13 326.719 1692.09 298.182" stroke="#021F25" stroke-width="5" stroke-linejoin="round"/>
<path d="M1240 371L1305 258.5L1245.87 160.5H1141L1076 275.5L1129.51 371H1240Z" fill="white"/>
<path d="M1240 371L1305 258.5L1245.87 160.5L1233.5 140L1274.5 160.5L1346 279L1281 391.5H1141L1100 371H1129.51H1240Z" fill="#007EA7"/>
<path d="M1035 255L1100 140M1035 255L1100 371M1035 255L1076 275.5M1100 140H1233.5M1100 140L1141 160.5M1233.5 140L1274.5 160.5L1346 279M1233.5 140L1245.87 160.5M1305 258.5L1240 371M1305 258.5L1346 279M1305 258.5L1245.87 160.5M1240 371L1281 391.5M1240 371H1129.51M1100 371L1141 391.5H1281M1100 371H1129.51M1076 275.5L1141 160.5M1076 275.5L1129.51 371M1141 160.5H1245.87M1346 279L1281 391.5" stroke="#021F25" stroke-width="5" stroke-linejoin="round"/>
<path d="M1083 95H1308V59V-131H1115H1083V95Z" fill="white"/>
<path d="M1115 -167H1340V59H1308V-131H1115V-167Z" fill="#F7DAB4"/>
<path d="M1115 -167H1340M1115 -167L1083 -131M1115 -167V-131M1340 -167V59M1340 -167L1308 -131M1340 59L1308 95M1340 59H1308M1083 -131V95H1308M1083 -131H1115M1308 -131V59M1308 -131H1115M1308 95V59" stroke="#021F25" stroke-width="5" stroke-linejoin="round"/>
<path d="M1686 84.7846C1686 132.006 1713.05 172.909 1752.5 192.845C1763.74 198.523 1775.98 202.5 1788.89 204.438C1860.6 215.203 1928 157.865 1928 84.7846C1928 45.8816 1909.64 11.2666 1881.11 -10.8687C1870.64 -18.9928 1858.8 -25.4358 1846 -29.7928C1769.76 -55.7367 1686 2.94939 1686 84.7846Z" fill="#B4ADEA"/>
<path d="M1846 -29.7928L1918 0.97818M1846 -29.7928C1858.8 -25.4358 1870.64 -18.9928 1881.11 -10.8687M1846 -29.7928C1769.76 -55.7367 1686 2.94939 1686 84.7846C1686 132.006 1713.05 172.909 1752.5 192.845M1752.5 192.845L1825.5 223.861M1752.5 192.845C1763.74 198.523 1775.98 202.5 1788.89 204.438M1825.5 223.861C1812.12 219.504 1799.76 212.878 1788.89 204.438M1825.5 223.861C1901.5 248.61 1984 189.962 1984 108.785C1984 61.763 1957.18 21.006 1918 0.97818M1918 0.97818C1906.63 -4.83526 1894.21 -8.90215 1881.11 -10.8687M1788.89 204.438C1760.36 182.303 1742 147.688 1742 108.785C1742 35.7043 1809.4 -21.6342 1881.11 -10.8687M1788.89 204.438C1860.6 215.203 1928 157.865 1928 84.7846C1928 45.8816 1909.64 11.2666 1881.11 -10.8687" stroke="#021F25" stroke-width="5"/>
<path d="M955.5 139.5L919.173 159.043L876.5 182L797 139.5L802 230.5L765.478 271.974L743 297.5L818.366 311.049L832 313.5L850.963 345.861L878 392L922 313.5L1009 296.5L950 230.5L955.5 139.5Z" fill="white"/>
<path d="M878 392L845 356.5L818.366 311.049L832 313.5L850.963 345.861L878 392Z" fill="#B4ADEA"/>
<path d="M955.5 139.5L922.5 104L919.75 149.5L919.173 159.043L955.5 139.5Z" fill="#B4ADEA"/>
<path d="M743 297.5L710 262L765.478 271.974L743 297.5Z" fill="#B4ADEA"/>
<path d="M843.5 146.5L922.5 104M843.5 146.5L764 104M843.5 146.5L876.5 182M922.5 104L955.5 139.5M922.5 104L919.75 149.5L919.173 159.043M710 262L769 195M710 262L743 297.5M710 262L765.478 271.974M769 195L764 104M769 195L802 230.5M764 104L797 139.5M876.5 182L797 139.5M876.5 182L919.173 159.043M955.5 139.5L950 230.5L1009 296.5L922 313.5L878 392M955.5 139.5L919.173 159.043M878 392L845 356.5L818.366 311.049M878 392L850.963 345.861L832 313.5L818.366 311.049M743 297.5L818.366 311.049M743 297.5L765.478 271.974M802 230.5L797 139.5M802 230.5L765.478 271.974" stroke="#021F25" stroke-width="5" stroke-linejoin="round"/>
<path d="M1486.5 -67L1494.03 -53.8971L1605.36 139.71L1624.5 173L1347 171.5L1486.5 -67Z" fill="white"/>
<path d="M1521 -100L1486.5 -67L1494.03 -53.8971L1521 -100Z" fill="#F96557"/>
<path d="M1659 140L1624.5 173L1605.36 139.71L1659 140Z" fill="#F96557"/>
<path d="M1624.5 173L1347 171.5L1486.5 -67M1624.5 173L1659 140M1624.5 173L1605.36 139.71M1486.5 -67L1521 -100M1486.5 -67L1494.03 -53.8971M1659 140L1521 -100M1659 140L1605.36 139.71M1521 -100L1494.03 -53.8971M1605.36 139.71L1494.03 -53.8971" stroke="#021F25" stroke-width="5" stroke-linejoin="round"/>
<path d="M732 623.5L730.997 505.882L730 389L495 623.5H613.128H732Z" fill="#F7DAB4"/>
<path d="M788 449L790 683.5H553L613.128 623.5H732L730.997 505.882L788 449Z" fill="white"/>
<path d="M788 449L790 683.5M788 449L730 389M788 449L730.997 505.882M790 683.5H553M790 683.5L732 623.5M553 683.5L495 623.5M553 683.5L613.128 623.5M730 389L495 623.5M730 389L730.997 505.882M732 623.5H613.128M732 623.5L730.997 505.882M495 623.5H613.128" stroke="#021F25" stroke-width="5" stroke-linejoin="round"/>
<path d="M1028 1197.5V1092L1132.52 1146.91L1028 1197.5Z" fill="#F96557"/>
<path d="M1305 1203V1097.5L1201.62 1147.33L1305 1203Z" fill="#F96557"/>
<path d="M1168.5 1024L1028 1092L1166 1164.5L1305 1097.5L1168.5 1024Z" fill="white"/>
<path d="M1028 1092L1168.5 1024L1305 1097.5M1028 1092V1197.5M1028 1092L1132.52 1146.91M1305 1097.5V1203M1305 1097.5L1201.62 1147.33M1166 1164.5V1270M1166 1164.5L1201.62 1147.33M1166 1164.5L1132.52 1146.91M1028 1197.5L1166 1270M1028 1197.5L1132.52 1146.91M1305 1203L1166 1270M1305 1203L1201.62 1147.33" stroke="#021F25" stroke-width="5" stroke-linejoin="round"/>
<path d="M903 16L968 -96.5L908.869 -194.5L896.5 -215L937.5 -194.5L1009 -76L944 36.5H804L763 16H792.513H903Z" fill="white"/>
<path d="M903 16L968 -96.5L908.869 -194.5H804L739 -79.5L792.513 16H903Z" fill="#007EA7"/>
<path d="M698 -100L763 -215M698 -100L763 16M698 -100L739 -79.5M763 -215H896.5M763 -215L804 -194.5M896.5 -215L937.5 -194.5L1009 -76M896.5 -215L908.869 -194.5M968 -96.5L903 16M968 -96.5L1009 -76M968 -96.5L908.869 -194.5M903 16L944 36.5M903 16H792.513M763 16L804 36.5H944M763 16H792.513M739 -79.5L804 -194.5M739 -79.5L792.513 16M804 -194.5H908.869M1009 -76L944 36.5" stroke="#021F25" stroke-width="5" stroke-linejoin="round"/>
<path d="M697 141.5C697 48.44 635.887 -27 560.5 -27C521.694 -27 486.671 -7.01067 461.818 25.0817C438.39 55.3346 424 96.3428 424 141.5V176C446.244 176 465.431 175.972 481.758 175.929C495.027 175.894 506.406 175.849 516 175.801C516 175.801 512.174 127.751 524.342 94.0943C530.836 76.1337 541.884 62.2723 560.5 62C614 61.2175 606.5 176.206 606.5 176.206C623.449 176.307 643.162 176.279 663 175.939C674.462 175.743 685.965 175.441 697 175V141.5Z" fill="#B8E2C8"/>
<path d="M390 208C430.322 208 460.601 207.907 482 207.801L516 175.801C506.406 175.849 495.027 175.894 481.758 175.929C465.431 175.972 446.244 176 424 176L390 208Z" fill="white"/>
<path d="M572.5 208.206C599.241 208.365 632.864 208.205 663 207L697 175C685.965 175.441 674.462 175.743 663 175.939C643.162 176.279 623.449 176.307 606.5 176.206L572.5 208.206Z" fill="white"/>
<path d="M663 173.5V175.939M390 208V173.5C390 109.33 419.059 53.5378 461.818 25.0817M390 208C430.322 208 460.601 207.907 482 207.801M390 208L424 176M663 207C632.864 208.205 599.241 208.365 572.5 208.206M663 207L697 175M663 207V175.939M482 207.801L516 175.801M482 207.801C482 207.801 480.898 193.958 481.758 175.929M572.5 208.206C572.5 208.206 580 93.2175 526.5 94C525.769 94.0107 525.05 94.0423 524.342 94.0943M572.5 208.206L606.5 176.206M424 176V141.5C424 96.3428 438.39 55.3346 461.818 25.0817M424 176C446.244 176 465.431 175.972 481.758 175.929M697 175V141.5C697 48.44 635.887 -27 560.5 -27C521.694 -27 486.671 -7.01067 461.818 25.0817M697 175C685.965 175.441 674.462 175.743 663 175.939M516 175.801C516 175.801 512.174 127.751 524.342 94.0943M516 175.801C506.406 175.849 495.027 175.894 481.758 175.929M606.5 176.206C606.5 176.206 614 61.2175 560.5 62C541.884 62.2723 530.836 76.1337 524.342 94.0943M606.5 176.206C623.449 176.307 643.162 176.279 663 175.939" stroke="#021F25" stroke-width="5" stroke-linejoin="round"/>
<path d="M1881.06 1939C1783.82 1939 1705 2017.82 1705 2115.06H1746.5H2057.11C2057.11 2073.9 2042.99 2036.04 2019.33 2006.06C1987.08 1965.22 1937.13 1939 1881.06 1939Z" fill="#007EA7"/>
<path d="M1705 2115.06C1705 2017.82 1783.82 1939 1881.06 1939C1937.13 1939 1987.08 1965.22 2019.33 2006.06M1705 2115.06L1742.89 2150.71M1705 2115.06H1746.5M2057.11 2115.06L2095 2150.71M2057.11 2115.06C2057.11 2073.9 2042.99 2036.04 2019.33 2006.06M2057.11 2115.06H1746.5M1742.89 2150.71H2095M1742.89 2150.71C1742.89 2138.5 1744.13 2126.57 1746.5 2115.06M2095 2150.71C2095 2090.79 2065.06 2037.86 2019.33 2006.06" stroke="#021F25" stroke-width="5" stroke-linejoin="round"/>
<path d="M1183 1965.8L1149 1997.8C1149 1997.8 1147.9 1983.96 1148.76 1965.93C1162.03 1965.89 1173.41 1965.85 1183 1965.8Z" fill="#B8E2C8"/>
<path d="M1364 1965L1330 1997V1965.94C1341.46 1965.74 1352.96 1965.44 1364 1965Z" fill="#B8E2C8"/>
<path d="M1193.5 1795C1170.1 1795 1148.07 1802.27 1128.82 1815.08C1086.06 1843.54 1057 1899.33 1057 1963.5V1998C1097.32 1998 1127.6 1997.91 1149 1997.8C1149 1997.8 1147.9 1983.96 1148.76 1965.93C1150.32 1933.14 1158.37 1886.52 1191.34 1884.09C1192.05 1884.04 1192.77 1884.01 1193.5 1884C1247 1883.22 1239.5 1998.21 1239.5 1998.21C1266.24 1998.36 1299.86 1998.21 1330 1997V1965.94V1963.5C1330 1870.44 1268.89 1795 1193.5 1795Z" fill="white"/>
<path d="M1330 1997C1299.86 1998.21 1266.24 1998.36 1239.5 1998.21C1239.5 1998.21 1247 1883.22 1193.5 1884C1192.77 1884.01 1192.05 1884.04 1191.34 1884.09M1330 1997L1364 1965M1330 1997V1965.94M1149 1997.8C1127.6 1997.91 1097.32 1998 1057 1998V1963.5C1057 1899.33 1086.06 1843.54 1128.82 1815.08M1149 1997.8L1183 1965.8M1149 1997.8C1149 1997.8 1147.9 1983.96 1148.76 1965.93M1364 1965V1931.5C1364 1838.44 1302.89 1763 1227.5 1763C1188.69 1763 1153.67 1782.99 1128.82 1815.08M1364 1965C1352.96 1965.44 1341.46 1965.74 1330 1965.94M1183 1965.8C1183 1965.8 1179.17 1917.75 1191.34 1884.09M1183 1965.8C1173.41 1965.85 1162.03 1965.89 1148.76 1965.93M1128.82 1815.08C1148.07 1802.27 1170.1 1795 1193.5 1795C1268.89 1795 1330 1870.44 1330 1963.5V1965.94M1191.34 1884.09C1158.37 1886.52 1150.32 1933.14 1148.76 1965.93" stroke="#021F25" stroke-width="5" stroke-linejoin="round"/>
<path d="M2005.5 1387L1997.97 1400.1L1886.64 1593.71L1867.5 1627L2145 1625.5L2005.5 1387Z" fill="white"/>
<path d="M1971 1354L2005.5 1387L1997.97 1400.1L1971 1354Z" fill="#F96557"/>
<path d="M1833 1594L1867.5 1627L1886.64 1593.71L1833 1594Z" fill="#F96557"/>
<path d="M1867.5 1627L2145 1625.5L2005.5 1387M1867.5 1627L1833 1594M1867.5 1627L1886.64 1593.71M2005.5 1387L1971 1354M2005.5 1387L1997.97 1400.1M1833 1594L1971 1354M1833 1594L1886.64 1593.71M1971 1354L1997.97 1400.1M1886.64 1593.71L1997.97 1400.1" stroke="#021F25" stroke-width="5" stroke-linejoin="round"/>
<path d="M1503 1472H1699V1558V1809H1587H1503V1472Z" fill="white"/>
<path d="M1504 1473L1588 1387V1473H1504Z" fill="#B8E2C8"/>
<path d="M1784 1724L1700 1810V1724H1784Z" fill="#B8E2C8"/>
<path d="M1700 1473L1784 1387M1700 1473H1588M1700 1473V1724M1504 1473V1810H1700M1504 1473L1588 1387M1504 1473H1588M1700 1810L1784 1724M1700 1810V1724M1784 1387H1588M1784 1387V1724M1588 1387V1473M1784 1724H1700" stroke="#021F25" stroke-width="5" stroke-linejoin="round"/>
</g>
<defs>
<clipPath id="clip0">
<rect width="2005" height="2169" fill="white"/>
</clipPath>
</defs>
</svg>
