<svg width="9620" height="300" viewBox="0 0 9620 300" fill="none" xmlns="http://www.w3.org/2000/svg">
<g clip-path="url(#clip0)">
<path d="M3.51776 210.497L-20.5957 233.192C-20.5957 233.192 -21.3775 223.375 -20.7674 210.588C-11.3569 210.563 -3.28663 210.531 3.51776 210.497Z" fill="#B8E2C8"/>
<path d="M131.887 209.929L107.773 232.624V210.595C115.902 210.456 124.06 210.242 131.887 209.929Z" fill="#B8E2C8"/>
<path d="M10.9645 89.3618C-5.63359 89.3618 -21.2561 94.5182 -34.9091 103.604C-65.2351 123.786 -85.844 163.355 -85.844 208.865V233.333C-57.2471 233.333 -35.7726 233.268 -20.5958 233.192C-20.5958 233.192 -21.3776 223.375 -20.7675 210.588C-19.6582 187.337 -13.9469 154.268 9.43396 152.549C9.93596 152.512 10.4461 152.49 10.9645 152.482C48.9078 151.927 43.5886 233.48 43.5886 233.48C62.554 233.592 86.4002 233.479 107.773 232.624V210.595V208.865C107.773 142.865 64.4304 89.3618 10.9645 89.3618Z" fill="white"/>
<path d="M107.773 232.624C86.4002 233.479 62.554 233.592 43.5886 233.479C43.5886 233.479 48.9078 151.927 10.9645 152.482C10.4461 152.49 9.93596 152.512 9.43396 152.549M107.773 232.624L131.887 209.929M107.773 232.624V210.595M-20.5958 233.192C-35.7726 233.267 -57.2471 233.333 -85.844 233.333V208.865C-85.844 163.354 -65.2351 123.786 -34.9091 103.604M-20.5958 233.192L3.5177 210.497M-20.5958 233.192C-20.5958 233.192 -21.3776 223.375 -20.7675 210.587M131.887 209.929V186.17C131.887 120.17 88.5439 66.6665 35.078 66.6665C7.55632 66.6665 -17.283 80.8433 -34.9091 103.604M131.887 209.929C124.06 210.242 115.902 210.456 107.773 210.595M3.5177 210.497C3.5177 210.497 0.80395 176.419 9.43396 152.549M3.5177 210.497C-3.28669 210.531 -11.357 210.563 -20.7675 210.587M-34.9091 103.604C-21.2561 94.5179 -5.63359 89.3615 10.9645 89.3615C64.4304 89.3615 107.773 142.865 107.773 208.865V210.595M9.43396 152.549C-13.9469 154.267 -19.6582 187.336 -20.7675 210.587" stroke="#021F25" stroke-width="5" stroke-linejoin="round"/>
<path d="M8315.57 208.866C8315.57 142.866 8358.92 89.362 8412.38 89.362C8428.98 89.362 8444.6 94.5184 8458.26 103.604C8474.87 125.06 8485.08 154.144 8485.08 186.171V210.639L8509.19 233.334V208.866C8509.19 163.355 8488.58 123.786 8458.26 103.604C8440.63 80.8438 8415.79 66.667 8388.27 66.667C8334.8 66.667 8291.46 120.171 8291.46 186.171V209.929L8315.57 232.624V210.595V208.866Z" fill="white"/>
<path d="M8509.19 233.334C8480.59 233.334 8459.12 233.268 8443.94 233.193L8419.83 210.498C8426.63 210.531 8434.7 210.563 8444.11 210.588C8455.69 210.619 8469.3 210.639 8485.08 210.639L8509.19 233.334Z" fill="#B8E2C8"/>
<path d="M8379.76 233.48C8360.79 233.592 8336.95 233.48 8315.57 232.625L8291.46 209.93C8299.29 210.243 8307.45 210.456 8315.57 210.596C8329.64 210.837 8343.62 210.856 8355.65 210.785L8379.76 233.48Z" fill="#B8E2C8"/>
<path d="M8509.19 233.334V208.866C8509.19 163.355 8488.58 123.786 8458.26 103.604M8509.19 233.334C8480.59 233.334 8459.12 233.268 8443.94 233.193L8419.83 210.498M8509.19 233.334L8485.08 210.639M8379.76 233.48C8360.79 233.592 8336.95 233.479 8315.57 232.624L8291.46 209.929M8379.76 233.48C8379.76 233.48 8374.44 151.928 8412.38 152.483C8412.9 152.49 8413.41 152.513 8413.91 152.55M8379.76 233.48L8355.65 210.785M8485.08 210.639V186.171C8485.08 154.144 8474.87 125.06 8458.26 103.604M8485.08 210.639C8469.3 210.639 8455.69 210.619 8444.11 210.588M8291.46 209.929V186.171C8291.46 120.171 8334.8 66.667 8388.27 66.667C8415.79 66.667 8440.63 80.8438 8458.26 103.604M8291.46 209.929C8299.29 210.242 8307.45 210.456 8315.57 210.595M8419.83 210.498C8419.83 210.498 8422.54 176.419 8413.91 152.55M8419.83 210.498C8426.63 210.531 8434.7 210.563 8444.11 210.588M8355.65 210.785C8355.65 210.785 8350.33 129.233 8388.27 129.788C8401.47 129.981 8409.31 139.811 8413.91 152.55M8355.65 210.785C8343.62 210.856 8329.64 210.837 8315.57 210.595M8458.26 103.604C8444.6 94.5184 8428.98 89.362 8412.38 89.362C8358.92 89.362 8315.57 142.866 8315.57 208.866V210.595M8413.91 152.55C8437.29 154.268 8443.01 187.337 8444.11 210.588" stroke="#021F25" stroke-width="5" stroke-linejoin="round"/>
<path d="M1651.44 233.283C1651.44 233.283 1657.08 151.752 1619.13 152.157C1618.62 152.162 1618.11 152.182 1617.6 152.217C1608.88 176.053 1611.46 210.142 1611.46 210.142L1587.25 232.741C1587.25 232.741 1586.51 222.92 1587.17 210.136C1588.37 186.889 1594.22 153.843 1617.6 152.217C1622.26 139.498 1630.13 129.698 1643.34 129.557C1681.28 129.153 1675.64 210.684 1675.64 210.684L1651.44 233.283Z" fill="#B8E2C8"/>
<path d="M1643.59 66.4369C1616.07 66.3277 1591.17 80.4058 1573.45 103.096C1556.75 124.486 1546.43 153.529 1546.31 185.555L1546.21 210.023C1561.98 210.086 1575.59 210.12 1587.17 210.135C1596.58 210.148 1604.65 210.148 1611.46 210.141C1611.46 210.141 1608.88 176.052 1617.6 152.217C1622.26 139.497 1630.13 129.698 1643.34 129.557C1681.28 129.153 1675.64 210.683 1675.64 210.683C1687.66 210.802 1701.64 210.838 1715.71 210.653C1723.84 210.546 1732 210.364 1739.83 210.082L1739.92 186.324C1740.18 120.324 1697.05 66.649 1643.59 66.4369Z" fill="white"/>
<path d="M1715.72 208.923L1715.71 210.653M1522.01 232.623L1522.1 208.155C1522.28 162.645 1543.05 123.158 1573.45 103.097M1522.01 232.623C1550.6 232.736 1572.08 232.756 1587.25 232.741M1522.01 232.623L1546.21 210.024M1715.62 232.682C1694.25 233.452 1670.4 233.47 1651.44 233.283M1715.62 232.682L1739.83 210.083M1715.62 232.682L1715.71 210.653M1587.25 232.741L1611.46 210.142M1587.25 232.741C1587.25 232.741 1586.51 222.92 1587.17 210.136M1651.44 233.283C1651.44 233.283 1657.08 151.752 1619.13 152.157C1618.62 152.162 1618.11 152.183 1617.6 152.217M1651.44 233.283L1675.64 210.684M1546.21 210.024L1546.31 185.556C1546.43 153.53 1556.75 124.487 1573.45 103.097M1546.21 210.024C1561.98 210.086 1575.59 210.12 1587.17 210.136M1739.83 210.083L1739.92 186.324C1740.18 120.325 1697.05 66.6495 1643.59 66.4374C1616.07 66.3281 1591.17 80.4063 1573.45 103.097M1739.83 210.083C1732 210.365 1723.84 210.546 1715.71 210.653M1611.46 210.142C1611.46 210.142 1608.88 176.053 1617.6 152.217M1611.46 210.142C1604.65 210.148 1596.58 210.148 1587.17 210.136M1675.64 210.684C1675.64 210.684 1681.28 129.153 1643.34 129.557C1630.13 129.698 1622.26 139.498 1617.6 152.217M1675.64 210.684C1687.66 210.803 1701.64 210.839 1715.71 210.653" stroke="#021F25" stroke-width="5" stroke-linejoin="round"/>
<path d="M809.901 53.1914L712.028 223.404L750.072 223.199L829.025 85.8885L809.901 53.1914Z" fill="#F96557"/>
<path d="M834.369 76.5957L829.025 85.8885L750.072 223.199L736.496 246.808L933.305 245.745L834.369 76.5957Z" fill="white"/>
<path d="M736.496 246.808L933.305 245.745L834.369 76.5957M736.496 246.808L712.028 223.404M736.496 246.808L750.072 223.199M834.369 76.5957L809.901 53.1914M834.369 76.5957L829.025 85.8885M712.028 223.404L809.901 53.1914M712.028 223.404L750.072 223.199M809.901 53.1914L829.025 85.8885M750.072 223.199L829.025 85.8885" stroke="#021F25" stroke-width="5" stroke-linejoin="round"/>
<path d="M6382.6 76.5957L6387.94 85.8885L6466.89 223.199L6480.47 246.808L6283.66 245.745L6382.6 76.5957Z" fill="white"/>
<path d="M6407.06 53.1914L6382.6 76.5957L6387.94 85.8885L6407.06 53.1914Z" fill="#F96557"/>
<path d="M6504.94 223.404L6480.47 246.808L6466.89 223.199L6504.94 223.404Z" fill="#F96557"/>
<path d="M6480.47 246.808L6283.66 245.745L6382.6 76.5957M6480.47 246.808L6504.94 223.404M6480.47 246.808L6466.89 223.199M6382.6 76.5957L6407.06 53.1914M6382.6 76.5957L6387.94 85.8885M6504.94 223.404L6407.06 53.1914M6504.94 223.404L6466.89 223.199M6407.06 53.1914L6387.94 85.8885M6466.89 223.199L6387.94 85.8885" stroke="#021F25" stroke-width="5" stroke-linejoin="round"/>
<path d="M3620.18 76.5957L3614.84 85.8885L3535.89 223.199L3522.31 246.808L3719.12 245.745L3620.18 76.5957Z" fill="#F96557"/>
<path d="M3595.72 53.1914L3497.84 223.404L3535.89 223.199L3614.84 85.8885L3595.72 53.1914Z" fill="white"/>
<path d="M3522.31 246.808L3719.12 245.745L3620.18 76.5957M3522.31 246.808L3497.84 223.404M3522.31 246.808L3535.89 223.199M3620.18 76.5957L3595.72 53.1914M3620.18 76.5957L3614.84 85.8885M3497.84 223.404L3595.72 53.1914M3497.84 223.404L3535.89 223.199M3595.72 53.1914L3614.84 85.8885M3535.89 223.199L3614.84 85.8885" stroke="#021F25" stroke-width="5" stroke-linejoin="round"/>
<path d="M6748.2 60.9927H6827.63H6887.21V300H6748.2V239.007V60.9927Z" fill="#B8E2C8"/>
<path d="M6688.62 0H6827.63V60.9929H6748.2V239.007H6688.62V0Z" fill="white"/>
<path d="M6748.2 60.9929L6688.62 0M6748.2 60.9929H6827.63M6748.2 60.9929V239.007M6887.21 60.9929V300H6748.2M6887.21 60.9929L6827.63 0M6887.21 60.9929H6827.63M6748.2 300L6688.62 239.007M6748.2 300V239.007M6688.62 0H6827.63M6688.62 0V239.007M6827.63 0V60.9929M6688.62 239.007H6748.2" stroke="#021F25" stroke-width="5" stroke-linejoin="round"/>
<path d="M3168.77 0H3307.77V239.007H3248.2H3168.77V60.9929V0Z" fill="#B8E2C8"/>
<path d="M3109.19 60.9929V300H3248.2L3307.77 239.007H3248.2H3168.77V60.9929V0L3109.19 60.9929Z" fill="white"/>
<path d="M3109.19 60.9929V300M3109.19 60.9929L3168.77 0M3109.19 60.9929H3168.77M3109.19 300H3248.2M3109.19 300L3168.77 239.007M3248.2 300L3307.77 239.007M3248.2 300V239.007M3168.77 0H3307.77V239.007M3168.77 0V60.9929M3168.77 239.007V60.9929M3168.77 239.007H3248.2M3307.77 239.007H3248.2" stroke="#021F25" stroke-width="5" stroke-linejoin="round"/>
<path d="M4783.75 87.9433H4868.06L4867.35 171.36L4866.64 254.255L4699.97 87.9433H4783.75Z" fill="white"/>
<path d="M4866.64 254.255L4907.77 211.702L4867.35 171.36L4866.64 254.255Z" fill="#F7DAB4"/>
<path d="M4699.97 87.9433L4741.11 45.3901L4783.75 87.9433H4699.97Z" fill="#F7DAB4"/>
<path d="M4907.77 211.702L4909.19 45.3901M4907.77 211.702L4866.64 254.255M4907.77 211.702L4867.35 171.36M4909.19 45.3901H4741.11M4909.19 45.3901L4868.06 87.9433M4741.11 45.3901L4699.97 87.9433M4741.11 45.3901L4783.75 87.9433M4866.64 254.255L4699.97 87.9433M4866.64 254.255L4867.35 171.36M4868.06 87.9433H4783.75M4868.06 87.9433L4867.35 171.36M4699.97 87.9433H4783.75" stroke="#021F25" stroke-width="5" stroke-linejoin="round"/>
<path d="M4112.03 254.255L4110.61 87.9434L4070.18 128.285L3986.59 211.702L3943.94 254.255H4112.03Z" fill="#F7DAB4"/>
<path d="M4069.48 45.3901L4110.61 87.9433L4070.18 128.285L4069.48 45.3901Z" fill="white"/>
<path d="M3902.81 211.702L3943.94 254.255L3986.59 211.702H3902.81Z" fill="white"/>
<path d="M4110.61 87.9433L4112.03 254.255H3943.94M4110.61 87.9433L4069.48 45.3901M4110.61 87.9433L4070.18 128.285M3943.94 254.255L3902.81 211.702M3943.94 254.255L3986.59 211.702M4069.48 45.3901L3902.81 211.702M4069.48 45.3901L4070.18 128.285M3902.81 211.702H3986.59M3986.59 211.702L4070.18 128.285" stroke="#021F25" stroke-width="5" stroke-linejoin="round"/>
<path d="M7238.98 254.255H7070.89L7112.03 211.702H7196.33H7280.11L7238.98 254.255Z" fill="#F7DAB4"/>
<path d="M7112.03 211.702L7112.74 128.285L7113.45 45.3901L7280.11 211.702H7196.33H7112.03Z" fill="white"/>
<path d="M7072.31 87.9433L7070.89 254.255M7072.31 87.9433L7113.45 45.3901M7072.31 87.9433L7112.74 128.285M7070.89 254.255H7238.98M7070.89 254.255L7112.03 211.702M7238.98 254.255L7280.11 211.702M7238.98 254.255L7217.66 232.979L7196.33 211.702M7113.45 45.3901L7280.11 211.702M7113.45 45.3901L7112.74 128.285M7112.03 211.702H7196.33M7112.03 211.702L7112.74 128.285M7280.11 211.702H7196.33M7196.33 211.702L7112.74 128.285" stroke="#021F25" stroke-width="5" stroke-linejoin="round"/>
<path d="M9270.18 57.4468H9110.61V82.9787V217.73H9247.49H9270.18V57.4468Z" fill="white"/>
<path d="M9087.92 82.9787L9110.61 57.4468V82.9787H9087.92Z" fill="#F7DAB4"/>
<path d="M9270.18 217.73L9247.49 243.262V217.73H9270.18Z" fill="#F7DAB4"/>
<path d="M9110.61 57.4468H9270.18V217.73M9110.61 57.4468L9087.92 82.9787M9110.61 57.4468V82.9787M9270.18 217.73L9247.49 243.262M9270.18 217.73H9247.49M9110.61 217.73H9247.49M9110.61 217.73V82.9787M9110.61 217.73L9087.92 243.262M9087.92 82.9787V243.262M9087.92 82.9787H9110.61M9247.49 243.262H9087.92M9247.49 243.262V217.73" stroke="#021F25" stroke-width="5" stroke-linejoin="round"/>
<path d="M2486.5 57.4468H2326.92V82.9787V217.73H2463.8H2486.5V57.4468Z" fill="#F7DAB4"/>
<path d="M2463.8 243.262H2304.23V82.9785H2326.92V217.73H2463.8V230.496V243.262Z" fill="white"/>
<path d="M2326.92 57.4468H2486.5M2326.92 57.4468L2304.23 82.9787M2326.92 57.4468V82.9787M2486.5 57.4468V217.73M2486.5 57.4468L2463.8 82.9787M2486.5 217.73L2463.8 243.262M2486.5 217.73H2463.8M2326.92 217.73H2463.8M2326.92 217.73V82.9787M2326.92 217.73L2304.23 243.262M2304.23 82.9787V243.262M2304.23 82.9787H2326.92M2463.8 82.9787V217.73M2463.8 82.9787H2326.92M2463.8 243.262H2304.23M2463.8 243.262V217.73" stroke="#021F25" stroke-width="5" stroke-linejoin="round"/>
<path d="M7971.6 82.9785C7909.72 82.9785 7859.55 133.148 7859.55 195.035H7885.96H8083.66C8083.66 168.839 8074.67 144.742 8059.61 125.661C8039.09 99.6644 8007.29 82.9785 7971.6 82.9785Z" fill="white"/>
<path d="M7883.66 217.731L7859.55 195.036H7885.96C7884.45 202.365 7883.66 209.955 7883.66 217.731Z" fill="#007EA7"/>
<path d="M7859.55 195.035C7859.55 133.148 7909.72 82.9785 7971.6 82.9785C8007.29 82.9785 8039.09 99.6644 8059.61 125.661M7859.55 195.035L7883.66 217.73M7859.55 195.035H7885.96M8083.66 195.035L8107.77 217.73M8083.66 195.035C8083.66 168.839 8074.67 144.742 8059.61 125.661M8083.66 195.035H7885.96M7883.66 217.73H8107.77M7883.66 217.73C7883.66 209.955 7884.45 202.364 7885.96 195.035M8107.77 217.73C8107.77 179.59 8088.72 145.9 8059.61 125.661" stroke="#021F25" stroke-width="5" stroke-linejoin="round"/>
<path d="M2918.41 217.731H2694.3L2670.18 195.036H2696.6H2894.3L2918.41 217.731Z" fill="#007EA7"/>
<path d="M2670.18 195.035C2670.18 133.148 2720.35 82.9785 2782.24 82.9785C2817.93 82.9785 2849.73 99.6644 2870.25 125.661C2899.36 145.9 2918.41 179.59 2918.41 217.73L2894.3 195.035C2894.3 168.839 2885.31 144.742 2870.25 125.661C2852.12 113.06 2830.1 105.674 2806.35 105.674C2752.24 105.674 2707.09 144.029 2696.6 195.035H2670.18Z" fill="white"/>
<path d="M2870.25 125.661C2852.12 113.06 2830.1 105.674 2806.35 105.674C2752.24 105.674 2707.09 144.029 2696.6 195.035H2670.18C2670.18 133.148 2720.35 82.9785 2782.24 82.9785C2817.93 82.9785 2849.73 99.6644 2870.25 125.661ZM2870.25 125.661C2899.36 145.9 2918.41 179.59 2918.41 217.73L2894.3 195.035C2894.3 168.839 2885.31 144.742 2870.25 125.661Z" stroke="#021F25" stroke-width="5" stroke-linejoin="round"/>
<path d="M2670.18 195.035C2670.18 133.148 2720.35 82.9785 2782.24 82.9785C2817.93 82.9785 2849.73 99.6644 2870.25 125.661M2670.18 195.035L2694.3 217.73H2918.41M2670.18 195.035H2696.6M2894.3 195.035L2918.41 217.73M2894.3 195.035C2894.3 168.839 2885.31 144.742 2870.25 125.661M2894.3 195.035H2696.6M2918.41 217.73C2918.41 179.59 2899.36 145.9 2870.25 125.661M2870.25 125.661C2852.12 113.06 2830.1 105.674 2806.35 105.674C2752.24 105.674 2707.09 144.029 2696.6 195.035" stroke="#021F25" stroke-width="5" stroke-linejoin="round"/>
<path d="M9653.93 125.661C9635.81 113.06 9613.79 105.674 9590.04 105.674C9535.93 105.674 9490.78 144.029 9480.29 195.036H9677.99C9677.99 168.839 9669 144.742 9653.93 125.661Z" fill="white"/>
<path d="M9453.87 195.035C9453.87 133.148 9504.04 82.9785 9565.93 82.9785C9601.62 82.9785 9633.41 99.6644 9653.93 125.661C9683.04 145.9 9702.1 179.59 9702.1 217.73L9677.99 195.035C9677.99 168.839 9669 144.742 9653.93 125.661C9635.81 113.06 9613.79 105.674 9590.04 105.674C9535.93 105.674 9490.78 144.029 9480.29 195.035C9478.78 202.364 9477.99 209.955 9477.99 217.73L9453.87 195.035Z" fill="#007EA7"/>
<path d="M9653.93 125.661C9635.81 113.06 9613.79 105.674 9590.04 105.674C9535.93 105.674 9490.78 144.029 9480.29 195.035C9478.78 202.364 9477.99 209.955 9477.99 217.73L9453.87 195.035C9453.87 133.148 9504.04 82.9785 9565.93 82.9785C9601.62 82.9785 9633.41 99.6644 9653.93 125.661ZM9653.93 125.661C9683.04 145.9 9702.1 179.59 9702.1 217.73L9677.99 195.035C9677.99 168.839 9669 144.742 9653.93 125.661Z" stroke="#021F25" stroke-width="5" stroke-linejoin="round"/>
<path d="M9677.99 195.035L9702.1 217.73M9677.99 195.035C9677.99 168.839 9669 144.742 9653.93 125.661M9677.99 195.035H9480.29M9477.99 217.73H9702.1M9477.99 217.73L9453.87 195.035C9453.87 133.148 9504.04 82.9785 9565.93 82.9785C9601.62 82.9785 9633.41 99.6644 9653.93 125.661M9477.99 217.73C9477.99 209.955 9478.78 202.364 9480.29 195.035M9702.1 217.73C9702.1 179.59 9683.04 145.9 9653.93 125.661M9653.93 125.661C9635.81 113.06 9613.79 105.674 9590.04 105.674C9535.93 105.674 9490.78 144.029 9480.29 195.035" stroke="#021F25" stroke-width="5" stroke-linejoin="round"/>
<path d="M442.525 171.277L504.227 159.22L505.014 159.097L485.787 137.589L489.688 73.0498L433.66 103.192L377.277 73.0498L380.823 137.589L338.979 185.107L392.43 194.716L402.099 196.454L415.548 219.405L442.525 171.277Z" fill="white"/>
<path d="M463.092 112.057L466.993 47.5181L490.397 72.6954L486.496 137.234L528.34 184.043L466.638 196.1L435.433 251.773L412.028 226.596L443.234 170.922L504.936 158.866L463.092 112.057Z" fill="#B4ADEA"/>
<path d="M410.255 78.0144L466.284 47.8726M410.255 78.0144L353.872 47.8726M410.255 78.0144L433.66 103.192M466.284 47.8726L489.688 73.0499L485.787 137.589M466.284 47.8726L463.924 86.9101M462.383 112.412L504.227 159.22M462.383 112.412L485.787 137.589M462.383 112.412L463.924 86.9101M504.227 159.22L442.525 171.277M504.227 159.22L527.631 184.397M442.525 171.277L465.929 196.454M442.525 171.277L415.548 219.405M411.319 226.951L434.723 252.128L465.929 196.454M411.319 226.951L415.548 219.405M411.319 226.951L392.43 194.716M378.695 171.277L315.574 159.929M378.695 171.277L402.099 196.454M378.695 171.277L392.43 194.716M315.574 159.929L357.418 112.412M315.574 159.929L338.979 185.107M357.418 112.412L353.872 47.8726M357.418 112.412L380.823 137.589M353.872 47.8726L377.277 73.0499M433.66 103.192L377.277 73.0499M433.66 103.192L463.924 86.9101M485.787 137.589L527.631 184.397M527.631 184.397L465.929 196.454M402.099 196.454L415.548 219.405M402.099 196.454L392.43 194.716M338.979 185.107L380.823 137.589M338.979 185.107L392.43 194.716M380.823 137.589L377.277 73.0499" stroke="#021F25" stroke-width="5" stroke-linejoin="round"/>
<path d="M5601.04 222.341L5545.01 252.482L5547.37 213.445L5577.63 197.163L5634.01 227.305L5630.47 162.766L5656.37 133.352L5695.72 140.426L5653.87 187.943L5657.42 252.482L5601.04 222.341Z" fill="#B4ADEA"/>
<path d="M5609.19 103.901L5595.74 80.9497L5599.97 73.4044L5618.86 105.639L5609.19 103.901Z" fill="#B4ADEA"/>
<path d="M5521.6 227.305L5547.37 213.445L5577.63 197.163L5634.01 227.305L5630.47 162.766L5656.37 133.352L5672.31 115.248L5618.86 105.639L5609.19 103.901L5595.74 80.9498L5576.57 48.2272L5545.36 103.901L5483.66 115.958L5525.5 162.766L5521.6 227.305Z" fill="white"/>
<path d="M5601.04 222.341L5545.01 252.482M5601.04 222.341L5657.42 252.482M5601.04 222.341L5577.63 197.163M5545.01 252.482L5521.6 227.305M5545.01 252.482L5547.37 213.445M5599.97 73.4044L5576.57 48.2271M5599.97 73.4044L5595.74 80.9497M5599.97 73.4044L5618.86 105.639M5695.72 140.426L5653.87 187.943M5695.72 140.426L5672.31 115.248M5695.72 140.426L5656.37 133.352M5653.87 187.943L5657.42 252.482M5653.87 187.943L5630.47 162.766M5657.42 252.482L5634.01 227.305M5577.63 197.163L5634.01 227.305M5577.63 197.163L5547.37 213.445M5521.6 227.305L5525.5 162.766L5483.66 115.958L5545.36 103.901L5576.57 48.2271M5521.6 227.305L5547.37 213.445M5576.57 48.2271L5595.74 80.9497M5672.31 115.248L5618.86 105.639M5672.31 115.248L5656.37 133.352M5630.47 162.766L5634.01 227.305M5630.47 162.766L5656.37 133.352M5595.74 80.9497L5609.19 103.901L5618.86 105.639" stroke="#021F25" stroke-width="5" stroke-linejoin="round"/>
<path d="M7637.91 73.4043L7612.15 87.2645L7581.89 103.546L7525.5 73.4043L7529.05 137.943L7503.15 167.357L7487.21 185.461L7540.66 195.07L7550.33 196.809L7563.78 219.76L7582.95 252.482L7614.16 196.809L7675.86 184.752L7634.01 137.943L7637.91 73.4043Z" fill="white"/>
<path d="M7582.95 252.482L7559.55 227.305L7540.66 195.07L7550.33 196.809L7563.78 219.76L7582.95 252.482Z" fill="#B4ADEA"/>
<path d="M7637.91 73.4044L7614.51 48.2271L7612.56 80.4966L7612.15 87.2646L7637.91 73.4044Z" fill="#B4ADEA"/>
<path d="M7487.21 185.461L7463.8 160.284L7503.15 167.357L7487.21 185.461Z" fill="#B4ADEA"/>
<path d="M7558.48 78.3689L7614.51 48.2271M7558.48 78.3689L7502.1 48.2271M7558.48 78.3689L7581.89 103.546M7614.51 48.2271L7637.91 73.4044M7614.51 48.2271L7612.56 80.4966L7612.15 87.2646M7463.8 160.284L7505.65 112.766M7463.8 160.284L7487.21 185.461M7463.8 160.284L7503.15 167.357M7505.65 112.766L7502.1 48.2271M7505.65 112.766L7529.05 137.943M7502.1 48.2271L7525.5 73.4044M7581.89 103.546L7525.5 73.4044M7581.89 103.546L7612.15 87.2646M7637.91 73.4044L7634.01 137.943L7675.86 184.752L7614.16 196.809L7582.95 252.482M7637.91 73.4044L7612.15 87.2646M7582.95 252.482L7559.55 227.305L7540.66 195.07M7582.95 252.482L7563.78 219.76L7550.33 196.809L7540.66 195.07M7487.21 185.461L7540.66 195.07M7487.21 185.461L7503.15 167.357M7529.05 137.943L7525.5 73.4044M7529.05 137.943L7503.15 167.357" stroke="#021F25" stroke-width="5" stroke-linejoin="round"/>
<path d="M4341.82 60.9927L4295.72 142.553L4341.82 224.822H4362.75H4441.11L4487.21 145.035L4445.27 75.5317L4436.5 60.9927H4341.82Z" fill="white"/>
<path d="M4441.11 224.823L4487.21 145.035L4445.27 75.5317H4465.57L4516.28 159.574L4470.18 239.362H4370.89L4362.75 224.823H4441.11Z" fill="#007EA7"/>
<path d="M4436.5 60.9927H4341.82L4295.72 142.553L4341.82 224.822M4436.5 60.9927L4465.57 75.5317M4436.5 60.9927L4445.27 75.5317M4487.21 145.035L4441.11 224.822M4487.21 145.035L4516.28 159.574M4487.21 145.035L4445.27 75.5317M4441.11 224.822L4470.18 239.361M4441.11 224.822H4362.75M4341.82 224.822L4370.89 239.361M4341.82 224.822H4362.75M4465.57 75.5317L4516.28 159.574M4465.57 75.5317H4445.27M4516.28 159.574L4470.18 239.361M4470.18 239.361H4370.89M4370.89 239.361L4362.75 224.822" stroke="#021F25" stroke-width="5" stroke-linejoin="round"/>
<path d="M6024.79 224.823L6070.89 145.035L6028.96 75.5317H5954.58L5908.48 157.092L5946.43 224.823H6024.79Z" fill="white"/>
<path d="M6024.79 224.822L6070.89 145.035L6028.96 75.5317L6020.18 60.9927L6049.26 75.5317L6099.97 159.574L6053.87 239.361H5954.58L5925.5 224.822H5946.43H6024.79Z" fill="#007EA7"/>
<path d="M5879.4 142.553L5925.5 60.9927M5879.4 142.553L5925.5 224.822M5879.4 142.553L5908.48 157.092M5925.5 60.9927H6020.18M5925.5 60.9927L5954.58 75.5317M6020.18 60.9927L6049.26 75.5317L6099.97 159.574M6020.18 60.9927L6028.96 75.5317M6070.89 145.035L6024.79 224.822M6070.89 145.035L6099.97 159.574M6070.89 145.035L6028.96 75.5317M6024.79 224.822L6053.87 239.361M6024.79 224.822H5946.43M5925.5 224.822L5954.58 239.361H6053.87M5925.5 224.822H5946.43M5908.48 157.092L5954.58 75.5317M5908.48 157.092L5946.43 224.822M5954.58 75.5317H6028.96M6099.97 159.574L6053.87 239.361" stroke="#021F25" stroke-width="5" stroke-linejoin="round"/>
<path d="M1304.58 60.9932L1350.68 142.553L1304.58 224.823H1283.65H1205.29L1159.19 145.036L1201.13 75.5322L1209.9 60.9932H1304.58Z" fill="#007EA7"/>
<path d="M1176.21 239.362H1275.5L1304.58 224.823H1283.65H1205.29L1176.21 239.362Z" fill="white"/>
<path d="M1180.82 75.5322L1209.9 60.9932L1201.13 75.5322H1180.82Z" fill="white"/>
<path d="M1209.9 60.9932H1304.58L1350.68 142.553L1304.58 224.823M1209.9 60.9932L1180.82 75.5322M1209.9 60.9932L1201.13 75.5322M1159.19 145.036L1205.29 224.823M1159.19 145.036L1130.11 159.575M1159.19 145.036L1201.13 75.5322M1205.29 224.823L1176.21 239.362M1205.29 224.823H1283.65M1304.58 224.823L1275.5 239.362M1304.58 224.823H1283.65M1180.82 75.5322L1130.11 159.575M1180.82 75.5322H1201.13M1130.11 159.575L1176.21 239.362M1176.21 239.362H1275.5M1275.5 239.362L1283.65 224.823" stroke="#021F25" stroke-width="5" stroke-linejoin="round"/>
<path d="M1924.09 186.17V111.348L1998.21 150.293L1924.09 186.17Z" fill="#F96557"/>
<path d="M2120.54 190.071V115.248L2047.22 150.59L2120.54 190.071Z" fill="#F96557"/>
<path d="M2023.73 63.1206L1924.09 111.348L2021.96 162.766L2120.54 115.248L2023.73 63.1206Z" fill="white"/>
<path d="M1924.09 111.348L2023.73 63.1206L2120.54 115.248M1924.09 111.348V186.17M1924.09 111.348L1998.21 150.293M2120.54 115.248V190.071M2120.54 115.248L2047.22 150.59M2021.96 162.766V237.589M2021.96 162.766L2047.22 150.59M2021.96 162.766L1998.21 150.293M1924.09 186.17L2021.96 237.589M1924.09 186.17L1998.21 150.293M2120.54 190.071L2021.96 237.589M2120.54 190.071L2047.22 150.59" stroke="#021F25" stroke-width="5" stroke-linejoin="round"/>
<path d="M8692.88 141.691C8692.88 175.181 8712.06 204.191 8740.04 218.33C8748.01 222.357 8756.69 225.177 8765.85 226.552C8816.71 234.187 8864.51 193.521 8864.51 141.691C8864.51 114.1 8851.49 89.5507 8831.26 73.8519C8823.83 68.0902 8815.44 63.5207 8806.36 60.4306C8752.28 42.0307 8692.88 83.652 8692.88 141.691Z" fill="#B4ADEA"/>
<path d="M8806.36 60.4306L8857.42 82.254M8806.36 60.4306C8815.44 63.5207 8823.83 68.0902 8831.26 73.8519M8806.36 60.4306C8752.28 42.0307 8692.88 83.652 8692.88 141.691C8692.88 175.181 8712.06 204.191 8740.04 218.33M8740.04 218.33L8791.82 240.327M8740.04 218.33C8748.01 222.357 8756.69 225.177 8765.85 226.552M8791.82 240.327C8782.33 237.237 8773.56 232.538 8765.85 226.552M8791.82 240.327C8845.71 257.879 8904.23 216.285 8904.23 158.712C8904.23 125.364 8885.21 96.4581 8857.42 82.254M8857.42 82.254C8849.35 78.131 8840.55 75.2467 8831.26 73.8519M8765.85 226.552C8745.62 210.853 8732.6 186.303 8732.6 158.712C8732.6 106.882 8780.4 66.2169 8831.26 73.8519M8765.85 226.552C8816.71 234.187 8864.51 193.521 8864.51 141.691C8864.51 114.1 8851.49 89.5507 8831.26 73.8519" stroke="#021F25" stroke-width="5"/>
<path d="M5219.12 76.5957L5213.78 85.8885L5134.82 223.199L5121.25 246.808L5318.06 245.745L5219.12 76.5957Z" fill="white"/>
<path d="M5194.65 53.1914L5219.12 76.5957L5213.78 85.8885L5194.65 53.1914Z" fill="#F96557"/>
<path d="M5096.78 223.404L5121.25 246.808L5134.82 223.199L5096.78 223.404Z" fill="#F96557"/>
<path d="M5121.25 246.808L5318.06 245.745L5219.12 76.5957M5121.25 246.808L5096.78 223.404M5121.25 246.808L5134.82 223.199M5219.12 76.5957L5194.65 53.1914M5219.12 76.5957L5213.78 85.8885M5096.78 223.404L5194.65 53.1914M5096.78 223.404L5134.82 223.199M5194.65 53.1914L5213.78 85.8885M5134.82 223.199L5213.78 85.8885" stroke="#021F25" stroke-width="5" stroke-linejoin="round"/>
</g>
<defs>
<clipPath id="clip0">
<rect width="9619.86" height="300" fill="white"/>
</clipPath>
</defs>
</svg>
