<svg width="4409" height="423" viewBox="0 0 4409 423" fill="none" xmlns="http://www.w3.org/2000/svg">
<g clip-path="url(#clip0)">
<path d="M2186.5 108L2178.97 121.103L2067.64 314.71L2048.5 348L2326 346.5L2186.5 108Z" fill="#F96557"/>
<path d="M2152 75L2014 315L2067.64 314.71L2178.97 121.103L2152 75Z" fill="white"/>
<path d="M2048.5 348L2326 346.5L2186.5 108M2048.5 348L2014 315M2048.5 348L2067.64 314.71M2186.5 108L2152 75M2186.5 108L2178.97 121.103M2014 315L2152 75M2014 315L2067.64 314.71M2152 75L2178.97 121.103M2067.64 314.71L2178.97 121.103" stroke="#021F25" stroke-width="5" stroke-linejoin="round"/>
<path d="M3803 0H3999V337H3915H3803V86V0Z" fill="#B8E2C8"/>
<path d="M3719 86V423H3915L3999 337H3915H3803V86V0L3719 86Z" fill="white"/>
<path d="M3719 86V423M3719 86L3803 0M3719 86H3803M3719 423H3915M3719 423L3803 337M3915 423L3999 337M3915 423V337M3803 0H3999V337M3803 0V86M3803 337V86M3803 337H3915M3999 337H3915" stroke="#021F25" stroke-width="5" stroke-linejoin="round"/>
<path d="M2880 358.5L2878 124L2821 180.882L2703.13 298.5L2643 358.5H2880Z" fill="#F7DAB4"/>
<path d="M2820 64L2878 124L2821 180.882L2820 64Z" fill="white"/>
<path d="M2585 298.5L2643 358.5L2703.13 298.5H2585Z" fill="white"/>
<path d="M2878 124L2880 358.5H2643M2878 124L2820 64M2878 124L2821 180.882M2643 358.5L2585 298.5M2643 358.5L2703.13 298.5M2820 64L2585 298.5M2820 64L2821 180.882M2585 298.5H2703.13M2703.13 298.5L2821 180.882" stroke="#021F25" stroke-width="5" stroke-linejoin="round"/>
<path d="M588 81H363V117V307H556H588V81Z" fill="#F7DAB4"/>
<path d="M556 343H331V117H363V307H556V325V343Z" fill="white"/>
<path d="M363 81H588M363 81L331 117M363 81V117M588 81V307M588 81L556 117M588 307L556 343M588 307H556M363 307H556M363 307V117M363 307L331 343M331 117V343M331 117H363M556 117V307M556 117H363M556 343H331M556 343V307" stroke="#021F25" stroke-width="5" stroke-linejoin="round"/>
<path d="M1197 307H881L847 275H884.242H1163L1197 307Z" fill="#007EA7"/>
<path d="M847 275C847 187.739 917.739 117 1005 117C1055.32 117 1100.15 140.527 1129.09 177.182C1170.13 205.719 1197 253.222 1197 307L1163 275C1163 238.063 1150.33 204.086 1129.09 177.182C1103.53 159.415 1072.48 149 1039 149C962.702 149 899.036 203.081 884.242 275H847Z" fill="white"/>
<path d="M1129.09 177.182C1103.53 159.415 1072.48 149 1039 149C962.702 149 899.036 203.081 884.242 275H847C847 187.739 917.739 117 1005 117C1055.32 117 1100.15 140.527 1129.09 177.182ZM1129.09 177.182C1170.13 205.719 1197 253.222 1197 307L1163 275C1163 238.063 1150.33 204.086 1129.09 177.182Z" stroke="#021F25" stroke-width="5" stroke-linejoin="round"/>
<path d="M847 275C847 187.739 917.739 117 1005 117C1055.32 117 1100.15 140.527 1129.09 177.182M847 275L881 307H1197M847 275H884.242M1163 275L1197 307M1163 275C1163 238.063 1150.33 204.086 1129.09 177.182M1163 275H884.242M1197 307C1197 253.222 1170.13 205.719 1129.09 177.182M1129.09 177.182C1103.53 159.415 1072.48 149 1039 149C962.702 149 899.036 203.081 884.242 275" stroke="#021F25" stroke-width="5" stroke-linejoin="round"/>
<path d="M1621.5 313.5L1542.5 356L1545.83 300.957L1588.5 278L1668 320.5L1663 229.5L1699.52 188.026L1755 198L1696 265L1701 356L1621.5 313.5Z" fill="#B4ADEA"/>
<path d="M1633 146.5L1614.04 114.139L1620 103.5L1646.63 148.951L1633 146.5Z" fill="#B4ADEA"/>
<path d="M1509.5 320.5L1545.83 300.957L1588.5 278L1668 320.5L1663 229.5L1699.52 188.026L1722 162.5L1646.63 148.951L1633 146.5L1614.04 114.139L1587 68L1543 146.5L1456 163.5L1515 229.5L1509.5 320.5Z" fill="white"/>
<path d="M1621.5 313.5L1542.5 356M1621.5 313.5L1701 356M1621.5 313.5L1588.5 278M1542.5 356L1509.5 320.5M1542.5 356L1545.83 300.957M1620 103.5L1587 68M1620 103.5L1614.04 114.139M1620 103.5L1646.63 148.951M1755 198L1696 265M1755 198L1722 162.5M1755 198L1699.52 188.026M1696 265L1701 356M1696 265L1663 229.5M1701 356L1668 320.5M1588.5 278L1668 320.5M1588.5 278L1545.83 300.957M1509.5 320.5L1515 229.5L1456 163.5L1543 146.5L1587 68M1509.5 320.5L1545.83 300.957M1587 68L1614.04 114.139M1722 162.5L1646.63 148.951M1722 162.5L1699.52 188.026M1663 229.5L1668 320.5M1663 229.5L1699.52 188.026M1614.04 114.139L1633 146.5L1646.63 148.951" stroke="#021F25" stroke-width="5" stroke-linejoin="round"/>
<path d="M3204 86L3139 201L3204 317H3233.51H3344L3409 204.5L3349.87 106.5L3337.5 86H3204Z" fill="white"/>
<path d="M3344 317L3409 204.5L3349.87 106.5H3378.5L3450 225L3385 337.5H3245L3233.51 317H3344Z" fill="#007EA7"/>
<path d="M3337.5 86H3204L3139 201L3204 317M3337.5 86L3378.5 106.5M3337.5 86L3349.87 106.5M3409 204.5L3344 317M3409 204.5L3450 225M3409 204.5L3349.87 106.5M3344 317L3385 337.5M3344 317H3233.51M3204 317L3245 337.5M3204 317H3233.51M3378.5 106.5L3450 225M3378.5 106.5H3349.87M3450 225L3385 337.5M3385 337.5H3245M3245 337.5L3233.51 317" stroke="#021F25" stroke-width="5" stroke-linejoin="round"/>
<path d="M-205 262.5V157L-100.477 211.912L-205 262.5Z" fill="#F96557"/>
<path d="M72 268V162.5L-31.3831 212.332L72 268Z" fill="#F96557"/>
<path d="M-64.5 89L-205 157L-67 229.5L72 162.5L-64.5 89Z" fill="white"/>
<path d="M-205 157L-64.5 89L72 162.5M-205 157V262.5M-205 157L-100.477 211.912M72 162.5V268M72 162.5L-31.3831 212.332M-67 229.5V335M-67 229.5L-31.3831 212.332M-67 229.5L-100.477 211.912M-205 262.5L-67 335M-205 262.5L-100.477 211.912M72 268L-67 335M72 268L-31.3831 212.332" stroke="#021F25" stroke-width="5" stroke-linejoin="round"/>
<path d="M4441 108L4433.47 121.103L4322.14 314.71L4303 348L4580.5 346.5L4441 108Z" fill="white"/>
<path d="M4406.5 75L4441 108L4433.47 121.103L4406.5 75Z" fill="#F96557"/>
<path d="M4268.5 315L4303 348L4322.14 314.71L4268.5 315Z" fill="#F96557"/>
<path d="M4303 348L4580.5 346.5L4441 108M4303 348L4268.5 315M4303 348L4322.14 314.71M4441 108L4406.5 75M4441 108L4433.47 121.103M4268.5 315L4406.5 75M4268.5 315L4322.14 314.71M4406.5 75L4433.47 121.103M4322.14 314.71L4433.47 121.103" stroke="#021F25" stroke-width="5" stroke-linejoin="round"/>
</g>
<defs>
<clipPath id="clip0">
<rect width="4409" height="423" fill="white"/>
</clipPath>
</defs>
</svg>
