<svg width="615" height="690" viewBox="0 0 615 690" fill="none" xmlns="http://www.w3.org/2000/svg">
<rect width="615" height="690" fill="white"/>
<rect x="118" y="554" width="235" height="15" rx="7.5" fill="black" fill-opacity="0.1"/>
<path d="M160.423 484.271L156.968 486.288C141.599 495.257 154.763 517.706 163.25 526.813C166.361 530.152 168.331 531.877 172.118 534.426C182.191 541.207 203.209 549.401 209.701 533.918L211.247 530.229C214.45 522.589 210.854 513.799 203.214 510.596C203.214 510.596 195.379 506.345 191.012 502.775C185.641 498.384 180.939 489.667 180.939 489.667C176.763 482.512 167.578 480.096 160.423 484.271Z" fill="#F48F00"/>
<path d="M255.943 539.518L254.038 543.035C245.56 558.681 268.467 571.031 280.449 574.407C284.842 575.645 287.422 576.096 291.981 576.309C304.111 576.873 326.328 572.963 323.836 556.359L323.242 552.404C322.013 544.211 314.375 538.567 306.182 539.796C306.182 539.796 297.28 540.232 291.694 539.449C284.823 538.485 276.278 533.476 276.278 533.476C268.994 529.53 259.89 532.235 255.943 539.518Z" fill="#F48F00"/>
<path d="M179.126 292.426C224.875 311.162 250.033 356.912 242.089 409.092C233.721 464.055 202.415 511.531 95.8996 519.135C81.4364 520.167 73.6875 505.067 81.431 492.355C98.5478 464.255 123.734 420.829 135.226 390.77C145.58 363.687 151.345 330.981 154.285 309.359C155.924 297.3 168.232 287.964 179.126 292.426Z" fill="#71BE00"/>
<path d="M305.725 224.922C282.687 265.363 279.999 335.977 311.589 376.092C344.073 417.342 404.187 407.75 473.708 381.556C487.711 376.28 488.88 358.91 476.224 350.602C449.941 333.349 411.79 307.239 389.052 286.837C368.195 268.123 347.616 243.051 334.431 225.903C326.905 216.116 311.568 214.664 305.725 224.922Z" fill="#71BE00"/>
<path d="M78.0093 290.602C64.6974 257.799 87.3216 221.517 122.591 218.47C168.613 214.493 221.99 209.002 234.089 204.092C240.792 201.372 251.419 192.097 262.987 180.478C290.952 152.389 339.747 159.403 354.651 196.13L408.03 327.665C438.337 402.346 402.365 487.454 327.684 517.761C253.004 548.067 167.895 512.095 137.588 437.415L78.0093 290.602Z" fill="#78C800"/>
<path d="M168.156 329.072C190.385 378.668 222.12 388.503 249.089 377.092C263.403 371.035 279.942 348.41 282.589 330.608L305.861 320.092C321.077 330.335 346.413 336.665 360.727 330.608C387.696 319.197 397.11 288.062 376.061 241.099C363.699 213.515 347.465 196.706 330.561 190.384C330.561 190.384 320.086 169.232 313.6 171.454C308.641 173.153 309.368 187.54 305.861 188.553C304.692 188.891 296.499 164.62 288.903 169.373C283.747 172.599 277.414 214.439 274.833 220.464L274.73 220.705C269.688 232.473 266.485 239.95 254.578 244.988C242.589 250.061 234.095 248.616 221.562 243.005C211.101 238.322 177.032 218.276 172.963 219.998C165.934 222.973 177.446 244.731 177.446 244.731C173.377 246.453 162.422 232.813 157.117 237.668C153.238 241.218 160.681 262.268 160.681 262.268C154.022 278.405 155.645 301.157 168.156 329.072Z" fill="#8EE100"/>
<rect width="76.3301" height="108.844" rx="38.165" transform="matrix(0.905281 -0.424814 0.434878 0.900489 161.089 275.018)" fill="white"/>
<path fill-rule="evenodd" clip-rule="evenodd" d="M218.219 297.85C224.424 295.834 227.662 288.888 225.452 282.335C224.285 278.874 221.831 276.215 218.862 274.774C219.951 274.141 221.125 273.614 222.374 273.208C231.919 270.106 242.258 275.302 245.466 284.812L250.172 298.763C249.577 298.854 248.984 298.994 248.396 299.185C242.191 301.201 238.953 308.148 241.163 314.701C242.256 317.941 244.476 320.478 247.191 321.971C245.284 323.815 242.933 325.266 240.229 326.145C230.683 329.246 220.344 324.051 217.136 314.54L211.541 297.951C213.685 298.564 215.992 298.574 218.219 297.85Z" fill="#484848"/>
<path d="M218.862 274.774L218.606 274.343L217.8 274.811L218.645 275.221L218.862 274.774ZM250.172 298.763L250.253 299.256L250.835 299.166L250.647 298.609L250.172 298.763ZM247.191 321.971L247.543 322.33L248.026 321.863L247.431 321.536L247.191 321.971ZM211.541 297.951L211.675 297.472L210.763 297.211L211.065 298.105L211.541 297.951ZM224.976 282.489C227.107 288.807 223.976 295.454 218.059 297.377L218.379 298.324C224.872 296.214 228.217 288.969 225.927 282.18L224.976 282.489ZM218.645 275.221C221.493 276.604 223.853 279.157 224.976 282.489L225.927 282.18C224.717 278.591 222.17 275.827 219.079 274.326L218.645 275.221ZM219.118 275.204C220.177 274.59 221.318 274.076 222.533 273.682L222.214 272.734C220.931 273.151 219.725 273.693 218.606 274.343L219.118 275.204ZM222.533 273.682C231.817 270.665 241.871 275.718 244.991 284.967L245.942 284.658C242.646 274.886 232.022 269.547 222.214 272.734L222.533 273.682ZM244.991 284.967L249.696 298.918L250.647 298.609L245.942 284.658L244.991 284.967ZM248.556 299.659C249.118 299.477 249.685 299.343 250.253 299.256L250.091 298.271C249.47 298.366 248.85 298.512 248.236 298.712L248.556 299.659ZM241.639 314.546C239.508 308.229 242.639 301.582 248.556 299.659L248.236 298.712C241.743 300.821 238.398 308.067 240.688 314.855L241.639 314.546ZM247.431 321.536C244.826 320.103 242.691 317.666 241.639 314.546L240.688 314.855C241.821 318.216 244.126 320.853 246.951 322.407L247.431 321.536ZM246.84 321.613C244.985 323.406 242.7 324.816 240.069 325.671L240.388 326.618C243.166 325.716 245.582 324.225 247.543 322.33L246.84 321.613ZM240.069 325.671C230.786 328.687 220.731 323.635 217.611 314.386L216.66 314.695C219.956 324.467 230.58 329.805 240.388 326.618L240.069 325.671ZM217.611 314.386L212.016 297.796L211.065 298.105L216.66 314.695L217.611 314.386ZM218.059 297.377C215.932 298.068 213.728 298.059 211.675 297.472L211.406 298.43C213.642 299.069 216.052 299.08 218.379 298.324L218.059 297.377Z" fill="#494949"/>
<ellipse rx="39.6853" ry="26.1125" transform="matrix(0.997516 -0.0704414 0.0815559 0.996669 229.806 336.413)" fill="#8EE100"/>
<rect width="76.33" height="108.844" rx="38.165" transform="matrix(0.90527 -0.424837 0.434899 0.900479 274.089 226.02)" fill="white"/>
<path fill-rule="evenodd" clip-rule="evenodd" d="M331.219 251.85C337.424 249.834 340.662 242.888 338.452 236.335C337.285 232.874 334.831 230.215 331.862 228.774C332.951 228.141 334.125 227.614 335.374 227.208C344.919 224.106 355.258 229.302 358.466 238.813L363.172 252.763C362.577 252.855 361.984 252.994 361.396 253.185C355.191 255.201 351.953 262.148 354.163 268.701C355.256 271.941 357.476 274.478 360.191 275.971C358.284 277.815 355.933 279.266 353.228 280.145C343.683 283.246 333.344 278.051 330.136 268.54L324.54 251.951C326.685 252.564 328.992 252.574 331.219 251.85Z" fill="#484848"/>
<path d="M331.862 228.774L331.606 228.343L330.8 228.811L331.645 229.221L331.862 228.774ZM363.172 252.763L363.252 253.256L363.835 253.166L363.647 252.609L363.172 252.763ZM360.191 275.971L360.543 276.33L361.026 275.863L360.431 275.536L360.191 275.971ZM324.54 251.951L324.675 251.472L323.763 251.211L324.065 252.105L324.54 251.951ZM337.976 236.489C340.107 242.807 336.976 249.454 331.059 251.377L331.379 252.324C337.872 250.215 341.217 242.969 338.928 236.18L337.976 236.489ZM331.645 229.221C334.493 230.604 336.853 233.157 337.976 236.489L338.928 236.18C337.717 232.591 335.17 229.827 332.079 228.326L331.645 229.221ZM332.118 229.204C333.177 228.59 334.318 228.077 335.533 227.682L335.214 226.734C333.931 227.151 332.725 227.693 331.606 228.343L332.118 229.204ZM335.533 227.682C344.817 224.665 354.871 229.718 357.991 238.967L358.942 238.658C355.646 228.886 345.022 223.547 335.214 226.734L335.533 227.682ZM357.991 238.967L362.696 252.918L363.647 252.609L358.942 238.658L357.991 238.967ZM361.556 253.659C362.118 253.477 362.685 253.343 363.252 253.256L363.091 252.271C362.47 252.366 361.85 252.512 361.236 252.712L361.556 253.659ZM354.639 268.547C352.508 262.229 355.639 255.582 361.556 253.659L361.236 252.712C354.743 254.821 351.398 262.067 353.688 268.856L354.639 268.547ZM360.431 275.536C357.826 274.103 355.691 271.666 354.639 268.547L353.688 268.856C354.821 272.216 357.126 274.853 359.951 276.407L360.431 275.536ZM359.84 275.613C357.985 277.406 355.7 278.816 353.069 279.671L353.388 280.619C356.166 279.716 358.582 278.225 360.543 276.33L359.84 275.613ZM353.069 279.671C343.785 282.687 333.731 277.635 330.611 268.386L329.66 268.695C332.956 278.467 343.58 283.806 353.388 280.619L353.069 279.671ZM330.611 268.386L325.016 251.796L324.065 252.105L329.66 268.695L330.611 268.386ZM331.059 251.377C328.932 252.068 326.728 252.059 324.675 251.472L324.406 252.43C326.642 253.069 329.052 253.08 331.379 252.324L331.059 251.377Z" fill="#494949"/>
<ellipse rx="40.034" ry="26.0223" transform="matrix(0.693691 -0.720272 0.727958 0.685622 349.471 293.279)" fill="#8EE100"/>
<path d="M339.369 396.817C345.993 403.044 355.791 405.424 364.938 402.148C374.085 398.872 380.145 390.814 381.31 381.797C381.647 379.188 378.999 377.463 376.522 378.35L340.88 391.114C338.403 392.001 337.452 395.015 339.369 396.817Z" fill="#8EE100"/>
<path d="M275.488 419.694C282.113 425.921 291.91 428.3 301.057 425.025C310.205 421.749 316.264 413.691 317.429 404.674C317.766 402.064 315.118 400.34 312.642 401.227L277 413.991C274.523 414.878 273.571 417.891 275.488 419.694Z" fill="#8EE100"/>
<path d="M318.792 439.769C325.417 445.997 335.214 448.376 344.361 445.1C353.509 441.824 359.568 433.766 360.733 424.749C361.07 422.14 358.422 420.416 355.945 421.303L320.303 434.067C317.827 434.954 316.875 437.967 318.792 439.769Z" fill="#8EE100"/>
<path d="M302.211 301.405C309.702 297.867 318.642 301.071 322.18 308.562L333.926 333.429C339.468 345.164 334.448 359.17 322.713 364.713C310.978 370.256 296.972 365.236 291.43 353.501L279.685 328.634C276.147 321.143 279.351 312.202 286.842 308.664L302.211 301.405Z" fill="#F48F00"/>
<path d="M298.651 303.404C306.141 299.866 315.082 303.07 318.62 310.561L330.262 335.21C334.776 344.767 330.688 356.174 321.131 360.689C311.574 365.203 300.167 361.114 295.653 351.557L284.01 326.908C280.472 319.417 283.677 310.476 291.167 306.938L298.651 303.404Z" fill="#BC6E00"/>
<path d="M298.651 303.404C306.141 299.866 315.082 303.07 318.62 310.561L330.262 335.21C334.776 344.767 330.688 356.174 321.131 360.689C311.574 365.203 300.167 361.114 295.653 351.557L284.01 326.908C280.472 319.417 283.677 310.476 291.167 306.938L298.651 303.404Z" fill="#BC6E00"/>
<path fill-rule="evenodd" clip-rule="evenodd" d="M330.522 350.984C328.741 355.105 325.51 358.62 321.131 360.689C311.574 365.203 300.167 361.114 295.653 351.557L293.589 347.187C296.187 342.239 303.429 338.794 311.868 339.002C321.857 339.247 329.921 344.522 330.522 350.984Z" fill="#FFCBFF"/>
<path d="M320.96 300.908C312.341 293.859 301.33 290.909 290.637 296.186C280.054 301.408 274.11 311.372 273.696 322.201C273.507 327.153 278.489 330.174 283.313 329.039L298.781 325.4C305.224 323.884 311.204 320.83 316.21 316.5L320.493 312.796C324.169 309.617 324.722 303.985 320.96 300.908Z" fill="#FFC100"/>
<path d="M291.516 299.097C286.365 301.639 283.325 306.495 283.631 310.999C283.753 312.801 285.838 313.39 287.367 312.43C289.714 310.956 293.068 308.925 295.72 307.616C298.372 306.308 302.025 304.881 304.622 303.915C306.315 303.285 307.115 301.272 305.76 300.079C302.371 297.097 296.668 296.555 291.516 299.097Z" fill="#FFD900"/>
<path fill-rule="evenodd" clip-rule="evenodd" d="M488.089 384.592C500.239 384.592 510.089 374.966 510.089 363.092C510.089 351.218 500.239 341.592 488.089 341.592C475.939 341.592 466.089 351.218 466.089 363.092C466.089 374.966 475.939 384.592 488.089 384.592ZM490.266 370.592C496.796 370.592 502.089 366.803 502.089 362.814C502.089 358.825 496.796 355.592 490.266 355.592C483.736 355.592 478.089 356.353 478.089 362.814C478.089 369.276 483.736 370.592 490.266 370.592Z" fill="#E3E3E3"/>
<path d="M478.089 362.814C478.089 362.814 478.089 363.271 478.208 363.991C479.092 368.397 484.669 371.392 485.589 369.092C486.903 369.265 488.813 370.592 490.266 370.592C490.266 370.592 492.908 379.48 488.589 378.092C486.089 373.092 483.596 371.722 482.089 370.592C479.326 368.52 478.472 365.599 478.208 363.991C478.131 363.608 478.089 363.215 478.089 362.814C478.089 362.269 478.163 361.721 478.296 361.193C478.645 359.511 479.58 356.758 482.089 354.092C483.209 352.902 483.589 350.092 483.589 346.092C489.026 342.444 490.266 355.592 490.266 355.592C488.042 355.592 486.92 360.22 485.089 360.592C482.909 354.923 479.207 357.592 478.296 361.193C478.089 362.193 478.089 362.814 478.089 362.814Z" fill="#C4C4C4"/>
<path d="M483.099 339.401C482.895 336.647 484.961 334.249 487.715 334.045L552.274 329.259C555.028 329.054 557.426 331.121 557.63 333.875L559.473 358.728C560.999 379.309 545.551 397.231 524.97 398.757C504.389 400.283 486.467 384.835 484.941 364.254L483.099 339.401Z" fill="#E3E3E3"/>
<ellipse cx="520.263" cy="335.559" rx="36.0362" ry="14.4639" transform="rotate(-5.6929 520.263 335.559)" fill="#E6E6E6"/>
<ellipse cx="519.983" cy="336.403" rx="33.7174" ry="13.5332" transform="rotate(-5.6929 519.983 336.403)" fill="#B7B6B6"/>
<path fill-rule="evenodd" clip-rule="evenodd" d="M489.473 344.634C490.997 338.305 503.614 332.295 519.438 330.717C535.235 329.142 548.771 332.529 551.547 338.413C547.025 343.818 535.352 348.471 521.325 349.869C507.329 351.265 494.991 349.02 489.473 344.634Z" fill="#583404"/>
<path d="M497.301 344.936L493.654 343.71C492.88 343.451 492.733 342.434 493.41 341.979C495.999 340.24 501.228 336.905 505.486 335.309C506.639 334.878 507.714 334.54 508.7 334.276C509.815 333.978 509.975 334.887 508.894 335.29C506.692 336.11 504.446 337.178 503.055 338.464C500.566 340.764 499.228 343.098 498.633 344.34C498.395 344.836 497.821 345.11 497.301 344.936Z" fill="#BC6E00"/>
<path d="M496.836 229.592C494.081 224.869 499.836 211.592 499.836 211.592C499.836 211.592 498.336 222.592 502.836 229.592C506.855 235.844 511.744 241.417 513.836 248.592C516.819 258.825 508.336 269.592 508.336 269.592C508.336 269.592 510.773 256.851 508.336 248.592C506.011 240.715 500.336 235.592 496.836 229.592Z" fill="#E2E2E2"/>
<path d="M499.725 280.592C502.48 285.314 496.725 298.592 496.725 298.592C496.725 298.592 498.225 287.592 493.725 280.592C489.706 274.339 484.817 268.767 482.725 261.592C479.742 251.359 488.225 240.592 488.225 240.592C488.225 240.592 485.788 253.333 488.225 261.592C490.55 269.469 496.225 274.592 499.725 280.592Z" fill="#E2E2E2"/>
<path d="M533.738 257.186C535.195 251.916 526.24 240.549 526.24 240.549C526.24 240.549 530.499 250.801 527.937 258.718C525.647 265.79 522.344 272.426 522.154 279.897C521.884 290.553 532.836 298.796 532.836 298.796C532.836 298.796 527.225 287.101 527.472 278.493C527.708 270.283 531.886 263.88 533.738 257.186Z" fill="#E2E2E2"/>
</svg>
