<svg width="615" height="690" viewBox="0 0 615 690" fill="none" xmlns="http://www.w3.org/2000/svg">
<g clip-path="url(#clip0)">
<rect width="615" height="690" fill="white"/>
<rect x="332" y="570" width="220" height="15" rx="7.5" fill="black" fill-opacity="0.1"/>
<path fill-rule="evenodd" clip-rule="evenodd" d="M318.267 601.709C298.688 598.083 284.203 585.137 284.203 569.721C284.203 554.306 298.688 541.36 318.267 537.734C314.698 537.073 310.959 536.721 307.108 536.721C282.133 536.721 261.886 551.496 261.886 569.721C261.886 587.947 282.133 602.721 307.108 602.721C310.959 602.721 314.698 602.37 318.267 601.709Z" fill="#484848"/>
<path fill-rule="evenodd" clip-rule="evenodd" d="M453.346 601.709C433.767 598.083 419.283 585.137 419.283 569.721C419.283 554.306 433.767 541.36 453.346 537.734C449.777 537.073 446.038 536.721 442.188 536.721C417.212 536.721 396.965 551.496 396.965 569.721C396.965 587.947 417.212 602.721 442.188 602.721C446.038 602.721 449.777 602.37 453.346 601.709Z" fill="#484848"/>
<path d="M273.885 197.521L551.502 197.521L543.774 483.521L273.885 477.521L273.885 197.521Z" fill="#90D5FF"/>
<path d="M562.386 195.521L551.027 197.521L543.3 496.021L552.386 488.021L562.386 195.521Z" fill="#6BC1FF"/>
<path d="M551.385 197.521L562.385 195.521L282.886 195.521L273.886 197.521L551.385 197.521Z" fill="#6BC1FF"/>
<path d="M274.386 477.167L543.386 483.167L491.886 526.521L222.886 520.521L274.386 477.167Z" fill="#90D5FF"/>
<path d="M222.886 520.521L491.886 525.021V541.521L222.886 537.021V520.521Z" fill="#6BC1FF"/>
<path d="M552.886 475.521L491.886 525.021V541.521L552.386 491.521L552.886 475.521Z" fill="#6BC1FF"/>
<path d="M212.886 453.23C212.886 448.796 214.883 444.597 218.322 441.798L269.347 400.281C278.976 392.446 293.386 399.299 293.386 411.713C293.386 416.147 291.389 420.346 287.95 423.145L236.925 464.662C227.296 472.497 212.886 465.644 212.886 453.23Z" fill="#6BC1FF"/>
<path d="M226.091 449.734C255.431 492.939 311.695 514.388 376.175 503.736C390.974 501.291 393.947 484.495 382.325 475.077C357.991 455.356 322.407 425.464 301.321 402.92C281.555 381.786 260.812 361.446 247.752 348.901C240.3 341.743 227.55 340.623 217.107 341.679C202.961 343.109 187.883 341.934 187.883 357.722C187.883 368.722 198.383 370.722 199.383 374.222C206.384 398.726 208.481 423.802 226.091 449.734Z" fill="#71BE00"/>
<path d="M523.297 219.631C524.309 184.244 490.434 158.154 456.322 167.621C411.811 179.974 359.88 193.478 346.828 193.105C339.597 192.898 326.4 187.921 311.5 181.076C275.484 164.528 232.215 188.148 231.082 227.768L227.023 369.663C224.719 450.226 288.16 517.403 368.723 519.707C449.286 522.011 516.463 458.57 518.767 378.008L523.297 219.631Z" fill="#78C800"/>
<path d="M315.518 410.467C311.487 418.616 303.139 424.269 293.423 424.395C283.708 424.522 275.215 419.089 270.973 411.047C269.745 408.72 271.624 406.179 274.255 406.145L312.11 405.652C314.741 405.617 316.685 408.108 315.518 410.467Z" fill="#8EE100"/>
<path d="M383.366 409.583C379.335 417.732 370.986 423.385 361.271 423.511C351.555 423.638 343.062 418.205 338.82 410.163C337.593 407.836 339.471 405.295 342.102 405.261L379.957 404.768C382.588 404.733 384.532 407.224 383.366 409.583Z" fill="#8EE100"/>
<path d="M349.805 443.523C345.774 451.672 337.426 457.325 327.71 457.451C317.995 457.578 309.502 452.145 305.26 444.103C304.032 441.776 305.911 439.235 308.542 439.201L346.397 438.708C349.028 438.673 350.972 441.165 349.805 443.523Z" fill="#8EE100"/>
<path d="M466.118 285.165C467.55 339.496 440.836 363.253 409.886 364.722C367.968 366.711 359.041 351.913 348.386 337.038L330.594 337.038C320.749 352.885 299.459 369.617 283.033 370.396C252.083 371.865 228.881 347.932 227.524 296.486C226.727 266.27 229.545 244.068 242.791 231.016C242.791 231.016 243.13 207.411 250.334 206.587C255.843 205.958 261.719 219.227 265.529 218.612C266.799 218.407 263.535 192.989 272.955 193.96C279.349 194.62 309.499 229.532 314.713 233.832L314.921 234.004C325.107 242.404 331.578 247.741 345.243 247.092C359.001 246.439 364.886 231.016 369.386 224.222C375.88 214.416 401.716 191.943 406.386 191.722C414.452 191.339 416.886 212.222 416.886 212.222C421.556 212 427.635 196.005 434.916 198.066C440.239 199.573 442.748 221.765 442.748 221.765C456.471 233.395 465.311 254.585 466.118 285.165Z" fill="#8EE100"/>
<rect width="76.3301" height="108.844" rx="38.165" transform="matrix(-0.99996 0.00895275 -0.00219399 0.999998 442.601 233.821)" fill="white"/>
<path fill-rule="evenodd" clip-rule="evenodd" d="M401.798 280.537C395.274 280.607 389.987 275.058 389.99 268.142C389.991 264.49 391.467 261.187 393.821 258.873C392.587 258.622 391.306 258.496 389.993 258.51C379.956 258.619 371.817 266.844 371.814 276.881L371.809 291.604C372.402 291.5 373.009 291.443 373.627 291.437C380.15 291.366 385.437 296.915 385.435 303.831C385.434 307.25 384.14 310.363 382.044 312.645C384.44 313.784 387.131 314.408 389.975 314.377C400.011 314.269 408.15 306.044 408.153 296.007L408.159 278.499C406.323 279.765 404.14 280.511 401.798 280.537Z" fill="#484848"/>
<path d="M393.821 258.873L393.926 258.383L394.839 258.569L394.169 259.227L393.821 258.873ZM371.809 291.604L371.89 292.096L371.309 292.198L371.309 291.609L371.809 291.604ZM382.044 312.645L381.825 313.097L381.218 312.809L381.677 312.309L382.044 312.645ZM408.159 278.499L407.878 278.089L408.659 277.55L408.659 278.494L408.159 278.499ZM390.49 268.137C390.487 274.804 395.578 280.104 401.798 280.037L401.798 281.037C394.971 281.11 389.487 275.312 389.49 268.148L390.49 268.137ZM394.169 259.227C391.912 261.447 390.491 264.621 390.49 268.137L389.49 268.148C389.491 264.36 391.022 260.927 393.472 258.518L394.169 259.227ZM393.716 259.363C392.516 259.119 391.27 258.996 389.993 259.01L389.993 258.01C391.342 257.996 392.657 258.125 393.926 258.383L393.716 259.363ZM389.993 259.01C380.232 259.116 372.317 267.114 372.314 276.875L371.314 276.886C371.317 266.573 379.68 258.122 389.993 258.01L389.993 259.01ZM372.314 276.875L372.309 291.598L371.309 291.609L371.314 276.886L372.314 276.875ZM373.627 291.937C373.036 291.943 372.456 291.998 371.89 292.096L371.729 291.111C372.348 291.003 372.982 290.944 373.627 290.937L373.627 291.937ZM384.935 303.836C384.937 297.169 379.847 291.869 373.627 291.937L373.627 290.937C380.454 290.863 385.937 296.662 385.935 303.825L384.935 303.836ZM381.677 312.309C383.689 310.12 384.934 307.128 384.935 303.836L385.935 303.825C385.934 307.372 384.592 310.606 382.41 312.981L381.677 312.309ZM382.262 312.193C384.592 313.3 387.208 313.907 389.975 313.877L389.974 314.877C387.053 314.909 384.288 314.268 381.825 313.097L382.262 312.193ZM389.975 313.877C399.735 313.772 407.65 305.773 407.653 296.012L408.653 296.001C408.65 306.315 400.287 314.766 389.974 314.877L389.975 313.877ZM407.653 296.012L407.659 278.505L408.659 278.494L408.653 296.001L407.653 296.012ZM401.798 280.037C404.035 280.012 406.121 279.3 407.878 278.089L408.44 278.91C406.524 280.23 404.244 281.01 401.798 281.037L401.798 280.037Z" fill="#494949"/>
<ellipse rx="45.835" ry="26.1125" transform="matrix(-0.985856 0.167592 0.156593 0.987663 415.161 326.193)" fill="#8EE100"/>
<path d="M383.019 234.682C391.322 220.344 409.677 215.453 424.014 223.757L441.879 234.103C456.216 242.407 461.107 260.761 452.804 275.099L449.247 281.239C448.943 281.765 448.257 281.911 447.777 281.539C443.255 278.031 422.606 262.168 409.643 254.823C398.735 248.642 384.247 243.604 380.063 242.205C379.457 242.003 379.189 241.295 379.509 240.742L383.019 234.682Z" fill="#8EE100"/>
<rect width="76.33" height="108.844" rx="38.165" transform="matrix(-0.99996 0.00892755 -0.00221643 0.999998 314.415 230.677)" fill="white"/>
<path fill-rule="evenodd" clip-rule="evenodd" d="M273.88 284.945C267.356 285.016 262.07 279.467 262.072 272.551C262.073 268.899 263.549 265.596 265.902 263.281C264.668 263.03 263.387 262.905 262.074 262.919C252.038 263.028 243.899 271.253 243.896 281.29L243.892 296.013C244.485 295.91 245.091 295.853 245.709 295.846C252.233 295.775 257.52 301.324 257.518 308.24C257.517 311.659 256.224 314.772 254.127 317.054C256.524 318.193 259.215 318.817 262.058 318.786C272.095 318.677 280.233 310.452 280.236 300.415L280.241 282.907C278.405 284.173 276.222 284.919 273.88 284.945Z" fill="#484848"/>
<path d="M265.902 263.281L266.007 262.791L266.921 262.977L266.251 263.636L265.902 263.281ZM243.892 296.013L243.973 296.506L243.392 296.607L243.392 296.018L243.892 296.013ZM254.127 317.054L253.909 317.506L253.302 317.218L253.761 316.718L254.127 317.054ZM280.241 282.907L279.961 282.496L280.741 281.958L280.741 282.902L280.241 282.907ZM262.571 272.546C262.57 279.213 267.66 284.512 273.88 284.445L273.88 285.445C267.053 285.519 261.569 279.72 261.572 272.556L262.571 272.546ZM266.251 263.636C263.993 265.856 262.572 269.029 262.571 272.546L261.572 272.556C261.573 268.768 263.104 265.336 265.554 262.927L266.251 263.636ZM265.797 263.771C264.597 263.527 263.352 263.405 262.074 263.419L262.074 262.419C263.423 262.404 264.739 262.533 266.007 262.791L265.797 263.771ZM262.074 263.419C252.314 263.525 244.399 271.524 244.396 281.285L243.396 281.295C243.399 270.982 251.762 262.531 262.074 262.419L262.074 263.419ZM244.396 281.285L244.392 296.008L243.392 296.018L243.396 281.295L244.396 281.285ZM245.709 296.346C245.118 296.352 244.539 296.407 243.973 296.506L243.811 295.52C244.43 295.412 245.064 295.353 245.71 295.346L245.709 296.346ZM257.018 308.245C257.02 301.578 251.93 296.278 245.709 296.346L245.71 295.346C252.536 295.272 258.02 301.07 258.018 308.234L257.018 308.245ZM253.761 316.718C255.772 314.528 257.017 311.537 257.018 308.245L258.018 308.234C258.017 311.781 256.675 315.015 254.494 317.39L253.761 316.718ZM254.346 316.602C256.676 317.709 259.292 318.316 262.058 318.286L262.058 319.286C259.137 319.317 256.372 318.676 253.909 317.506L254.346 316.602ZM262.058 318.286C271.819 318.18 279.733 310.181 279.736 300.42L280.736 300.409C280.733 310.722 272.371 319.174 262.058 319.286L262.058 318.286ZM279.736 300.42L279.741 282.913L280.741 282.902L280.736 300.409L279.736 300.42ZM273.88 284.445C276.117 284.42 278.203 283.708 279.961 282.496L280.522 283.318C278.607 284.638 276.327 285.418 273.88 285.445L273.88 284.445Z" fill="#494949"/>
<ellipse rx="50.3103" ry="27.5274" transform="matrix(-0.991285 -0.131734 -0.142772 0.989756 259.688 328.594)" fill="#8EE100"/>
<path d="M225.487 314.592C225.245 311.935 226.969 309.495 229.555 308.837L235.396 307.349C236.68 307.022 238.008 306.901 239.329 306.99L245.343 307.399C248.006 307.58 250.142 309.668 250.384 312.325C250.687 315.653 247.941 318.463 244.607 318.236L239.848 317.913C238.843 317.844 237.834 317.936 236.859 318.185L232.236 319.362C228.998 320.187 225.79 317.92 225.487 314.592Z" fill="#9AF400"/>
<path d="M236.156 258.824C235.998 242.257 249.301 228.698 265.869 228.54L286.512 228.343C303.08 228.185 316.639 241.488 316.797 258.056L316.93 271.998C316.936 272.616 316.402 273.094 315.791 273.002C310.06 272.142 284.26 268.414 269.386 268.722C256.89 268.98 241.916 272.525 237.551 273.624C236.917 273.784 236.294 273.309 236.288 272.655L236.156 258.824Z" fill="#8EE100"/>
<path d="M329.769 325.299C321.491 325.62 314.722 332.597 314.65 340.881L314.346 375.602C314.249 386.735 323.188 395.409 334.312 394.976C345.437 394.544 354.534 385.169 354.631 374.037L354.934 339.315C355.007 331.031 348.355 324.576 340.077 324.898L329.769 325.299Z" fill="#F48F00"/>
<path d="M333.258 325.466C324.98 325.788 318.211 332.764 318.138 341.048L317.845 374.639C317.765 383.705 325.046 390.77 334.106 390.418C343.166 390.066 350.574 382.43 350.654 373.364L350.947 339.773C351.019 331.489 344.368 325.035 336.09 325.356L333.258 325.466Z" fill="#BC6E00"/>
<path d="M333.258 325.466C324.98 325.788 318.211 332.764 318.138 341.048L317.845 374.639C317.765 383.705 325.046 390.77 334.106 390.418C343.166 390.066 350.574 382.43 350.654 373.364L350.947 339.773C351.019 331.489 344.368 325.035 336.09 325.356L333.258 325.466Z" fill="#BC6E00"/>
<path fill-rule="evenodd" clip-rule="evenodd" d="M323.836 387.178C326.632 389.345 330.204 390.569 334.106 390.418C343.166 390.066 350.574 382.43 350.654 373.364L350.732 364.401C346.938 360.987 340.064 361.232 333.564 365.497C325.484 370.8 321.042 380.308 323.643 386.736C323.704 386.886 323.768 387.034 323.836 387.178Z" fill="#FFCBFF"/>
<path d="M304.953 332.387C309.609 322.273 318.212 314.795 330.136 314.849C341.938 314.903 351.649 321.253 356.768 330.804C359.109 335.172 355.955 340.072 351.121 341.167L335.624 344.676C329.169 346.138 322.455 346.016 316.057 344.319L310.584 342.868C305.887 341.622 302.921 336.802 304.953 332.387Z" fill="#FFC100"/>
<path d="M330.622 317.851C336.367 317.878 341.228 320.91 342.927 325.091C343.608 326.765 341.992 328.208 340.196 328.015C337.441 327.72 333.536 327.365 330.579 327.351C327.622 327.338 323.713 327.657 320.955 327.927C319.158 328.103 317.556 326.645 318.251 324.978C319.989 320.812 324.877 317.825 330.622 317.851Z" fill="#FFD900"/>
<path d="M511.886 479.221C511.886 479.221 417.386 440 334.386 453.221C277.886 462.221 266.386 473.721 266.386 473.721" stroke="#E2E2E2" stroke-width="20"/>
<rect x="333.886" y="439.681" width="25" height="26" rx="4" transform="rotate(-4.49517 333.886 439.681)" fill="#535151"/>
<path d="M346.485 440.464C346.485 440.464 344.655 440.451 343.468 440.464C340.922 440.493 337.481 440.865 336.617 442.927C335.65 445.233 336.617 447.725 336.617 447.725C336.617 447.725 337.264 444.67 339.144 443.259C341.032 441.843 346.485 440.464 346.485 440.464Z" fill="#878686"/>
<rect x="353.396" y="439.948" width="2.88376" height="22.4386" rx="1.44188" transform="rotate(-4.49517 353.396 439.948)" fill="#E2E2E2"/>
<path d="M558.782 344.113C561.007 380.382 541.288 419.969 496.154 440.986C448.81 463.032 389.508 452.594 339.613 410.383C328.162 400.695 334.223 384.752 349.03 382.626C380.034 378.173 425.911 370.759 455.575 362.217C482.564 354.445 512.408 341.212 532.107 331.793C543.348 326.418 558.052 332.214 558.782 344.113Z" fill="#71BE00"/>
<rect x="394.664" y="519.748" width="66" height="34" rx="15" transform="rotate(-49.1873 394.664 519.748)" fill="#F48F00"/>
<rect width="66" height="34" rx="15" transform="matrix(-0.565097 -0.825024 -0.825024 0.565097 286.153 513.677)" fill="#F48F00"/>
<path d="M489.886 453.23C489.886 448.796 491.883 444.597 495.322 441.798L546.347 400.281C555.976 392.446 570.386 399.299 570.386 411.713C570.386 416.147 568.389 420.346 564.95 423.145L513.925 464.662C504.296 472.497 489.886 465.644 489.886 453.23Z" fill="#6BC1FF"/>
<rect x="45.886" y="211.721" width="135" height="252" rx="67.5" fill="#E2E2E2"/>
<rect x="62.886" y="235.721" width="100" height="204" rx="50" fill="#B9E7FF"/>
<path fill-rule="evenodd" clip-rule="evenodd" d="M107.269 307.598C124.465 301.972 136.886 285.797 136.886 266.721C136.886 255.315 132.444 244.945 125.196 237.248C121.258 236.251 117.134 235.721 112.886 235.721C85.2717 235.721 62.886 258.107 62.886 285.721V355.529C64.2021 355.656 65.5364 355.721 66.886 355.721C89.5297 355.721 107.886 337.365 107.886 314.721C107.886 312.292 107.675 309.912 107.269 307.598ZM162.886 350.585V389.721C162.886 417.336 140.5 439.721 112.886 439.721C93.2932 439.721 76.3326 428.452 68.1323 412.042C75.3723 406.807 84.2688 403.721 93.886 403.721C96.0439 403.721 98.1658 403.877 100.241 404.177C100.006 402.225 99.886 400.237 99.886 398.221C99.886 370.883 122.048 348.721 149.386 348.721C154.066 348.721 158.594 349.371 162.886 350.585Z" fill="white"/>
</g>
<defs>
<clipPath id="clip0">
<rect width="615" height="690" fill="white"/>
</clipPath>
</defs>
</svg>
