<svg width="615" height="690" viewBox="0 0 615 690" fill="none" xmlns="http://www.w3.org/2000/svg">
<rect width="615" height="690" fill="white"/>
<rect x="171" y="486" width="269" height="15" rx="7.5" fill="black" fill-opacity="0.1"/>
<path d="M151.952 191.023C151.952 152.639 192.183 127.364 227.375 142.691C260.384 157.069 294.257 170.455 305.952 170.455C317.647 170.455 351.52 157.069 384.53 142.691C419.721 127.364 459.952 152.638 459.952 191.023V351C459.952 436.052 391.004 505 305.952 505C220.9 505 151.952 436.052 151.952 351V191.023Z" fill="#78C800"/>
<path d="M147.118 325.243C126.609 355.238 123.238 399.337 151.208 440.525C180.548 483.729 236.812 505.178 301.293 494.526C316.092 492.081 319.064 475.285 307.442 465.867C283.108 446.146 247.524 416.254 226.438 393.71C207.253 373.198 188.418 346.532 176.336 328.345C169.442 317.966 153.846 315.401 147.118 325.243Z" fill="#71BE00"/>
<path d="M468.944 327.517C488.395 358.209 490.228 402.399 460.84 442.587C430.013 484.743 373.035 504.218 308.965 491.326C294.26 488.367 291.875 471.478 303.817 462.47C328.824 443.609 365.428 414.975 387.286 393.179C407.174 373.348 426.927 347.355 439.635 329.6C446.887 319.467 462.563 317.447 468.944 327.517Z" fill="#71BE00"/>
<path d="M166.952 268.5C166.952 325 193.502 348 229.952 348C249.298 348 266.7 337.974 278.772 322H336.133C348.205 337.974 365.607 348 384.952 348C421.403 348 447.952 322 447.952 268.5C447.952 237.077 438.069 214.403 422.083 201.5C422.083 201.5 420.952 177 412.452 176.5C405.952 176.118 399.452 190.189 394.952 189.738C393.452 189.588 396.503 163.027 385.452 164.5C377.952 165.5 349.452 203 343.452 207.723L343.213 207.912C331.492 217.138 324.047 223 307.952 223C291.749 223 282.834 218.174 271.452 207.723C261.952 199 233.452 166 227.952 166C218.452 166 220.452 191.5 220.452 191.5C214.952 191.5 209.452 174 200.952 176.5C194.738 178.328 192.475 201.5 192.475 201.5C176.693 214.255 166.952 236.7 166.952 268.5Z" fill="#8EE100"/>
<ellipse cx="233.952" cy="301" rx="39" ry="17" fill="#484848"/>
<ellipse cx="233.952" cy="307" rx="39" ry="14" fill="#8EE100"/>
<ellipse cx="382.952" cy="302" rx="39" ry="17" fill="#484848"/>
<ellipse cx="382.952" cy="308" rx="39" ry="14" fill="#8EE100"/>
<path d="M318.676 402.359C322.813 410.456 331.234 415.999 340.95 415.999C350.667 415.999 359.088 410.456 363.225 402.359C364.422 400.016 362.511 397.5 359.88 397.5H322.021C319.39 397.5 317.479 400.016 318.676 402.359Z" fill="#8EE100"/>
<path d="M250.822 402.359C254.959 410.456 263.381 415.999 273.097 415.999C282.813 415.999 291.235 410.456 295.372 402.359C296.569 400.016 294.657 397.5 292.026 397.5H254.168C251.537 397.5 249.625 400.016 250.822 402.359Z" fill="#8EE100"/>
<path d="M284.822 435.859C288.959 443.956 297.381 449.499 307.097 449.499C316.813 449.499 325.235 443.956 329.372 435.859C330.569 433.516 328.657 431 326.026 431H288.168C285.537 431 283.625 433.516 284.822 435.859Z" fill="#8EE100"/>
<circle cx="306.952" cy="332" r="22" fill="#F58F00"/>
<path d="M336.69 323.719C332.035 311.957 320.698 303 307.452 303C294.206 303 282.87 311.957 278.214 323.719C277.269 326.106 279.176 328.5 281.742 328.5H290.952C299.389 339.749 316.101 340.215 325.151 329.453L325.952 328.5H333.162C335.729 328.5 337.635 326.106 336.69 323.719Z" fill="#FFC100"/>
<path d="M306.952 306C301.207 306 296.333 309.01 294.614 313.184C293.926 314.854 295.535 316.304 297.332 316.12C300.088 315.837 303.995 315.5 306.952 315.5C309.909 315.5 313.816 315.837 316.573 316.12C318.369 316.304 319.978 314.854 319.29 313.184C317.571 309.01 312.697 306 306.952 306Z" fill="#FFD900"/>
<rect x="357.846" y="491.812" width="66" height="34" rx="15" transform="rotate(-52.3891 357.846 491.812)" fill="#F48F00"/>
<rect width="66" height="34" rx="15" transform="matrix(-0.610296 -0.792174 -0.792174 0.610296 249.166 491.812)" fill="#F48F00"/>
<path d="M353.863 492.5C353.863 513.211 330.358 535 301.363 535C272.368 535 248.863 513.211 248.863 492.5C248.863 485.5 269.368 489 298.363 489C327.358 489 353.863 486.5 353.863 492.5Z" fill="#BC6E00"/>
<ellipse cx="301.363" cy="491.5" rx="52.5" ry="9.5" fill="#6B5739"/>
<rect x="333.979" y="456" width="14" height="35.7616" rx="4" transform="rotate(25.7215 333.979 456)" fill="#484848"/>
<path fill-rule="evenodd" clip-rule="evenodd" d="M312.402 500.79L321.119 482.696C326.546 483.095 331.522 483.653 335.866 484.34L328.499 499.634C323.599 500.171 318.177 500.566 312.402 500.79Z" fill="#484848"/>
</svg>
