<svg width="615" height="690" viewBox="0 0 615 690" fill="none" xmlns="http://www.w3.org/2000/svg">
<g clip-path="url(#clip0)">
<rect width="615" height="690" fill="white"/>
<path d="M144 541.5H380.5L467.5 671H211L144 541.5Z" fill="#452974"/>
<rect x="184" y="577" width="200" height="15" rx="7.5" fill="black" fill-opacity="0.1"/>
<path d="M429.479 280.022C476.539 237.275 494.982 172.305 472.46 114.556C449.74 56.2977 395.491 19.2462 328.386 21.404C316.296 21.7927 309.144 34.3183 313.54 45.5878L402.055 272.551C406.495 283.935 420.434 288.237 429.479 280.022Z" fill="#78C800"/>
<path d="M183.848 280.022C136.788 237.275 118.345 172.305 140.867 114.556C163.587 56.2977 217.836 19.2462 284.94 21.404C297.03 21.7927 304.182 34.3183 299.787 45.5878L211.272 272.551C206.832 283.935 192.893 288.237 183.848 280.022Z" fill="#78C800"/>
<path d="M151 183.023C151 144.639 191.231 119.364 226.422 134.691C259.432 149.069 293.305 162.455 305 162.455C316.695 162.455 350.568 149.069 383.578 134.691C418.769 119.364 459 144.638 459 183.023V343C459 428.052 390.052 497 305 497C219.948 497 151 428.052 151 343V183.023Z" fill="#78C800"/>
<path d="M166 260.5C166 317 192.549 340 229 340C248.346 340 265.748 329.974 277.82 314H335.18C347.252 329.974 364.654 340 384 340C420.451 340 447 314 447 260.5C447 229.077 437.116 206.403 421.13 193.5C421.13 193.5 420 169 411.5 168.5C405 168.118 398.5 182.189 394 181.738C392.5 181.588 395.55 155.027 384.5 156.5C377 157.5 348.5 195 342.5 199.723L342.26 199.912C330.54 209.138 323.094 215 307 215C290.796 215 281.882 210.174 270.5 199.723C261 191 232.5 158 227 158C217.5 158 219.5 183.5 219.5 183.5C214 183.5 208.5 166 200 168.5C193.786 170.328 191.523 193.5 191.523 193.5C175.741 206.255 166 228.7 166 260.5Z" fill="#8EE100"/>
<rect x="189" y="206" width="84" height="113" rx="42" fill="white"/>
<path fill-rule="evenodd" clip-rule="evenodd" d="M222 269C229.18 269 235 263.18 235 256C235 252.219 233.386 248.815 230.809 246.44C232.161 246.152 233.563 246 235 246C246.046 246 255 254.954 255 266V280.153C254.348 280.052 253.68 280 253 280C245.82 280 240 285.82 240 293C240 296.511 241.392 299.697 243.654 302.036C241.035 303.295 238.1 304 235 304C223.954 304 215 295.046 215 284V266.956C217.021 268.25 219.423 269 222 269Z" fill="#484848"/>
<path d="M230.809 246.44L230.705 245.951L229.76 246.152L230.47 246.807L230.809 246.44ZM255 280.153L254.924 280.647L255.5 280.736V280.153H255ZM243.654 302.036L243.87 302.487L244.495 302.186L244.013 301.688L243.654 302.036ZM215 266.956L215.27 266.535L214.5 266.043V266.956H215ZM234.5 256C234.5 262.904 228.904 268.5 222 268.5V269.5C229.456 269.5 235.5 263.456 235.5 256H234.5ZM230.47 246.807C232.949 249.092 234.5 252.365 234.5 256H235.5C235.5 252.074 233.823 248.538 231.148 246.072L230.47 246.807ZM230.914 246.929C232.231 246.648 233.598 246.5 235 246.5V245.5C233.527 245.5 232.09 245.655 230.705 245.951L230.914 246.929ZM235 246.5C245.77 246.5 254.5 255.23 254.5 266H255.5C255.5 254.678 246.322 245.5 235 245.5V246.5ZM254.5 266V280.153H255.5V266H254.5ZM253 280.5C253.654 280.5 254.297 280.55 254.924 280.647L255.076 279.659C254.399 279.554 253.706 279.5 253 279.5V280.5ZM240.5 293C240.5 286.096 246.096 280.5 253 280.5V279.5C245.544 279.5 239.5 285.544 239.5 293H240.5ZM244.013 301.688C241.838 299.439 240.5 296.376 240.5 293H239.5C239.5 296.646 240.946 299.955 243.294 302.384L244.013 301.688ZM243.437 301.585C240.885 302.812 238.023 303.5 235 303.5V304.5C238.176 304.5 241.186 303.777 243.87 302.487L243.437 301.585ZM235 303.5C224.23 303.5 215.5 294.77 215.5 284H214.5C214.5 295.322 223.678 304.5 235 304.5V303.5ZM215.5 284V266.956H214.5V284H215.5ZM222 268.5C219.521 268.5 217.212 267.779 215.27 266.535L214.73 267.377C216.829 268.721 219.324 269.5 222 269.5V268.5Z" fill="#494949"/>
<ellipse cx="233" cy="305" rx="39" ry="14" fill="#8EE100"/>
<rect x="340" y="206" width="84" height="113" rx="42" fill="white"/>
<path fill-rule="evenodd" clip-rule="evenodd" d="M365 271C372.18 271 378 265.18 378 258C378 254.219 376.386 250.815 373.809 248.44C375.161 248.152 376.563 248 378 248C389.046 248 398 256.954 398 268V282.153C397.348 282.052 396.68 282 396 282C388.82 282 383 287.82 383 295C383 298.511 384.392 301.697 386.654 304.036C384.035 305.295 381.1 306 378 306C366.954 306 358 297.046 358 286V268.956C360.021 270.25 362.423 271 365 271Z" fill="#484848"/>
<path d="M373.809 248.44L373.705 247.951L372.76 248.152L373.47 248.807L373.809 248.44ZM398 282.153L397.924 282.647L398.5 282.736V282.153H398ZM386.654 304.036L386.87 304.487L387.495 304.186L387.013 303.688L386.654 304.036ZM358 268.956L358.27 268.535L357.5 268.043V268.956H358ZM377.5 258C377.5 264.904 371.904 270.5 365 270.5V271.5C372.456 271.5 378.5 265.456 378.5 258H377.5ZM373.47 248.807C375.949 251.092 377.5 254.365 377.5 258H378.5C378.5 254.074 376.823 250.538 374.148 248.072L373.47 248.807ZM373.914 248.929C375.231 248.648 376.598 248.5 378 248.5V247.5C376.527 247.5 375.09 247.655 373.705 247.951L373.914 248.929ZM378 248.5C388.77 248.5 397.5 257.23 397.5 268H398.5C398.5 256.678 389.322 247.5 378 247.5V248.5ZM397.5 268V282.153H398.5V268H397.5ZM396 282.5C396.654 282.5 397.297 282.55 397.924 282.647L398.076 281.659C397.399 281.554 396.706 281.5 396 281.5V282.5ZM383.5 295C383.5 288.096 389.096 282.5 396 282.5V281.5C388.544 281.5 382.5 287.544 382.5 295H383.5ZM387.013 303.688C384.838 301.439 383.5 298.376 383.5 295H382.5C382.5 298.646 383.946 301.955 386.294 304.384L387.013 303.688ZM386.437 303.585C383.885 304.812 381.023 305.5 378 305.5V306.5C381.176 306.5 384.186 305.777 386.87 304.487L386.437 303.585ZM378 305.5C367.23 305.5 358.5 296.77 358.5 286H357.5C357.5 297.322 366.678 306.5 378 306.5V305.5ZM358.5 286V268.956H357.5V286H358.5ZM365 270.5C362.521 270.5 360.212 269.779 358.27 268.535L357.73 269.377C359.829 270.721 362.324 271.5 365 271.5V270.5Z" fill="#494949"/>
<ellipse cx="382" cy="306" rx="39" ry="14" fill="#8EE100"/>
<path d="M317.724 394.359C321.861 402.456 330.282 407.999 339.998 407.999C349.715 407.999 358.136 402.456 362.273 394.359C363.47 392.016 361.559 389.5 358.928 389.5H321.069C318.438 389.5 316.527 392.016 317.724 394.359Z" fill="#8EE100"/>
<path d="M249.87 394.359C254.007 402.456 262.429 407.999 272.145 407.999C281.861 407.999 290.283 402.456 294.42 394.359C295.617 392.016 293.705 389.5 291.074 389.5H253.216C250.585 389.5 248.673 392.016 249.87 394.359Z" fill="#8EE100"/>
<path d="M283.87 427.859C288.007 435.956 296.429 441.499 306.145 441.499C315.861 441.499 324.283 435.956 328.42 427.859C329.617 425.516 327.705 423 325.074 423H287.216C284.585 423 282.673 425.516 283.87 427.859Z" fill="#8EE100"/>
<circle cx="306" cy="324" r="22" fill="#F58F00"/>
<path d="M335.738 315.719C331.083 303.957 319.746 295 306.5 295C293.254 295 281.917 303.957 277.262 315.719C276.317 318.106 278.224 320.5 280.79 320.5H290C298.437 331.749 315.149 332.215 324.199 321.453L325 320.5H332.21C334.776 320.5 336.683 318.106 335.738 315.719Z" fill="#FFC100"/>
<path d="M306 298C300.255 298 295.381 301.01 293.662 305.184C292.974 306.854 294.583 308.304 296.379 308.12C299.136 307.837 303.043 307.5 306 307.5C308.957 307.5 312.864 307.837 315.621 308.12C317.417 308.304 319.026 306.854 318.338 305.184C316.619 301.01 311.745 298 306 298Z" fill="#FFD900"/>
<rect x="294" y="570.454" width="66" height="34" rx="15" transform="rotate(-3 294 570.454)" fill="#F48F00"/>
<path d="M261.218 573.25L264.742 575.141C280.423 583.554 292.678 560.595 296.005 548.6C297.225 544.202 297.665 541.62 297.859 537.06C298.373 524.928 294.37 502.727 277.778 505.288L273.825 505.898C265.637 507.161 260.024 514.823 261.288 523.01C261.288 523.01 261.76 531.911 261 537.5C260.065 544.375 255.092 552.94 255.092 552.94C251.175 560.24 253.918 569.333 261.218 573.25Z" fill="#F48F00"/>
</g>
<defs>
<clipPath id="clip0">
<rect width="615" height="690" fill="white"/>
</clipPath>
</defs>
</svg>
