<svg width="304" height="272" viewBox="0 0 304 272" fill="none" xmlns="http://www.w3.org/2000/svg">
<path d="M105.886 243.438C77.3593 221.303 59 186.688 59 147.785C59 74.7043 126.397 17.3658 198.114 28.1313C226.641 50.2666 245 84.8816 245 123.785C245 196.865 177.603 254.203 105.886 243.438Z" fill="white"/>
<path d="M69.4999 231.845C30.0499 211.909 2.99994 171.006 2.99994 123.785C2.99994 41.9494 86.7573 -16.7367 163 9.20723C175.804 13.5642 187.644 20.0072 198.114 28.1313C126.397 17.3658 58.9999 74.7043 58.9999 147.785C58.9999 186.688 77.3593 221.303 105.886 243.438C92.9773 241.5 80.7357 237.523 69.4999 231.845Z" fill="#B4ADEA"/>
<path d="M163 9.20723L235 39.9782M163 9.20723C175.804 13.5642 187.644 20.0072 198.114 28.1313M163 9.20723C86.7574 -16.7367 3 41.9494 3 123.785C3 171.006 30.0499 211.909 69.5 231.845M69.5 231.845L142.5 262.861M69.5 231.845C80.7358 237.523 92.9774 241.5 105.886 243.438M142.5 262.861C129.12 258.504 116.764 251.878 105.886 243.438M142.5 262.861C218.497 287.61 301 228.962 301 147.785C301 100.763 274.178 60.006 235 39.9782M235 39.9782C223.628 34.1647 211.214 30.0979 198.114 28.1313M105.886 243.438C77.3593 221.303 59 186.688 59 147.785C59 74.7043 126.397 17.3658 198.114 28.1313M105.886 243.438C177.603 254.203 245 196.865 245 123.785C245 84.8816 226.641 50.2666 198.114 28.1313" stroke="#021F25" stroke-width="5"/>
</svg>
