<svg width="304" height="272" viewBox="0 0 304 272" fill="none" xmlns="http://www.w3.org/2000/svg">
<path d="M3 123.785C3 171.006 30.0499 211.909 69.5 231.845C80.7358 237.523 92.9774 241.5 105.886 243.438C177.603 254.203 245 196.865 245 123.785C245 84.8816 226.641 50.2666 198.114 28.1313C187.644 20.0072 175.804 13.5642 163 9.20723C86.7574 -16.7367 3 41.9494 3 123.785Z" fill="#B4ADEA"/>
<path d="M163 9.20723L235 39.9782M163 9.20723C175.804 13.5642 187.644 20.0072 198.114 28.1313M163 9.20723C86.7574 -16.7367 3 41.9494 3 123.785C3 171.006 30.0499 211.909 69.5 231.845M69.5 231.845L142.5 262.861M69.5 231.845C80.7358 237.523 92.9774 241.5 105.886 243.438M142.5 262.861C129.12 258.504 116.764 251.878 105.886 243.438M142.5 262.861C218.497 287.61 301 228.962 301 147.785C301 100.763 274.178 60.006 235 39.9782M235 39.9782C223.628 34.1647 211.214 30.0979 198.114 28.1313M105.886 243.438C77.3593 221.303 59 186.688 59 147.785C59 74.7043 126.397 17.3658 198.114 28.1313M105.886 243.438C177.603 254.203 245 196.865 245 123.785C245 84.8816 226.641 50.2666 198.114 28.1313" stroke="#021F25" stroke-width="5"/>
</svg>
