<svg width="304" height="272" viewBox="0 0 304 272" fill="none" xmlns="http://www.w3.org/2000/svg">
<path d="M198.114 243.438C226.641 221.303 245 186.688 245 147.785C245 74.7043 177.603 17.3658 105.886 28.1313C77.3593 50.2666 59 84.8816 59 123.785C59 196.865 126.397 254.203 198.114 243.438Z" fill="#B4ADEA"/>
<path d="M234.5 231.845C273.95 211.909 301 171.006 301 123.785C301 41.9494 217.242 -16.7367 141 9.20723C128.196 13.5642 116.356 20.0072 105.886 28.1313C177.603 17.3658 245 74.7043 245 147.785C245 186.688 226.64 221.303 198.113 243.438C211.022 241.5 223.264 237.523 234.5 231.845Z" fill="white"/>
<path d="M141 9.20723L69 39.9782M141 9.20723C128.196 13.5642 116.356 20.0072 105.886 28.1313M141 9.20723C217.243 -16.7367 301 41.9494 301 123.785C301 171.006 273.95 211.909 234.5 231.845M234.5 231.845L161.5 262.861M234.5 231.845C223.264 237.523 211.023 241.5 198.114 243.438M161.5 262.861C174.88 258.504 187.236 251.878 198.114 243.438M161.5 262.861C85.5032 287.61 3 228.962 3 147.785C3 100.763 29.8216 60.006 69 39.9782M69 39.9782C80.3723 34.1647 92.7856 30.0979 105.886 28.1313M198.114 243.438C226.641 221.303 245 186.688 245 147.785C245 74.7043 177.603 17.3658 105.886 28.1313M198.114 243.438C126.397 254.203 59 196.865 59 123.785C59 84.8816 77.3593 50.2666 105.886 28.1313" stroke="#021F25" stroke-width="5"/>
</svg>
