<svg width="283" height="252" viewBox="0 0 283 252" fill="none" xmlns="http://www.w3.org/2000/svg">
<path d="M3 176.5V71L107.523 125.912L3 176.5Z" fill="#F96557"/>
<path d="M280 182V76.5L176.617 126.332L280 182Z" fill="#F96557"/>
<path d="M143.5 3L3 71L141 143.5L280 76.5L143.5 3Z" fill="white"/>
<path d="M3 71L143.5 3L280 76.5M3 71V176.5M3 71L107.523 125.912M280 76.5V182M280 76.5L176.617 126.332M141 143.5V249M141 143.5L176.617 126.332M141 143.5L107.523 125.912M3 176.5L141 249M3 176.5L107.523 125.912M280 182L141 249M280 182L176.617 126.332" stroke="#021F25" stroke-width="5" stroke-linejoin="round"/>
</svg>
