<svg width="251" height="284" viewBox="0 0 251 284" fill="none" xmlns="http://www.w3.org/2000/svg">
<path d="M3 143.5L72.5 3H177.5L125.192 107.246L107 143.5H3Z" fill="white"/>
<path d="M142 140.5H248.5L177.5 281.5H72.5L124.061 176.895L142 140.5Z" fill="white"/>
<path d="M177.5 3L248.5 140.5H142L124.061 176.895L107 143.5L125.192 107.246L177.5 3Z" fill="#F96557"/>
<path d="M72.5 3L3 143.5M72.5 3H177.5M72.5 3L125.192 107.246M3 143.5L72.5 281.5M3 143.5H107M72.5 281.5H177.5L248.5 140.5M72.5 281.5L124.061 176.895M142 140.5H248.5M142 140.5L124.061 176.895M142 140.5L125.192 107.246M177.5 3L248.5 140.5M177.5 3L125.192 107.246M107 143.5L124.061 176.895M107 143.5L125.192 107.246" stroke="#021F25" stroke-width="5" stroke-linejoin="round"/>
</svg>
