<svg width="252" height="283" viewBox="0 0 252 283" fill="none" xmlns="http://www.w3.org/2000/svg">
<path d="M3 139.5L71 280L125.912 175.477L143.5 142L126.332 106.383L76.5 3L3 139.5Z" fill="white"/>
<path d="M176.5 280L249 142H143.5L125.912 175.477L71 280H176.5Z" fill="#F96557"/>
<path d="M71 280L3 139.5L76.5 3M71 280H176.5L249 142M71 280L125.912 175.477L143.5 142M76.5 3H182M76.5 3L126.332 106.383M143.5 142L249 142M143.5 142L126.332 106.383M182 3L249 142M182 3L126.332 106.383" stroke="#021F25" stroke-width="5" stroke-linejoin="round"/>
</svg>
