<svg width="317" height="257" viewBox="0 0 317 257" fill="none" xmlns="http://www.w3.org/2000/svg">
<path d="M249 3L314 118L249 234H219.487H109L44 121.5L103.131 23.5L115.5 3H249Z" fill="#007EA7"/>
<path d="M68 254.5H208L249 234H219.487H109L68 254.5Z" fill="white"/>
<path d="M74.5 23.5L115.5 3L103.131 23.5H74.5Z" fill="white"/>
<path d="M115.5 3H249L314 118L249 234M115.5 3L74.5 23.5M115.5 3L103.131 23.5M44 121.5L109 234M44 121.5L3 142M44 121.5L103.131 23.5M109 234L68 254.5M109 234H219.487M249 234L208 254.5M249 234H219.487M74.5 23.5L3 142M74.5 23.5H103.131M3 142L68 254.5M68 254.5H208M208 254.5L219.487 234" stroke="#021F25" stroke-width="5" stroke-linejoin="round"/>
</svg>
