<svg width="317" height="257" viewBox="0 0 317 257" fill="none" xmlns="http://www.w3.org/2000/svg">
<path d="M208 234L273 121.5L213.869 23.5H109L44 138.5L97.5129 234H208Z" fill="white"/>
<path d="M208 234L273 121.5L213.869 23.5L201.5 3L242.5 23.5L314 142L249 254.5H109L68 234H97.5129H208Z" fill="#007EA7"/>
<path d="M3 118L68 3M3 118L68 234M3 118L44 138.5M68 3H201.5M68 3L109 23.5M201.5 3L242.5 23.5L314 142M201.5 3L213.869 23.5M273 121.5L208 234M273 121.5L314 142M273 121.5L213.869 23.5M208 234L249 254.5M208 234H97.5129M68 234L109 254.5H249M68 234H97.5129M44 138.5L109 23.5M44 138.5L97.5129 234M109 23.5H213.869M314 142L249 254.5" stroke="#021F25" stroke-width="5" stroke-linejoin="round"/>
</svg>
