<svg width="317" height="257" viewBox="0 0 317 257" fill="none" xmlns="http://www.w3.org/2000/svg">
<path d="M68 3L3 118L68 234H97.5129H208L273 121.5L213.869 23.5L201.5 3H68Z" fill="white"/>
<path d="M208 234L273 121.5L213.869 23.5H242.5L314 142L249 254.5H109L97.5129 234H208Z" fill="#007EA7"/>
<path d="M201.5 3H68L3 118L68 234M201.5 3L242.5 23.5M201.5 3L213.869 23.5M273 121.5L208 234M273 121.5L314 142M273 121.5L213.869 23.5M208 234L249 254.5M208 234H97.5129M68 234L109 254.5M68 234H97.5129M242.5 23.5L314 142M242.5 23.5H213.869M314 142L249 254.5M249 254.5H109M109 254.5L97.5129 234" stroke="#021F25" stroke-width="5" stroke-linejoin="round"/>
</svg>
