<svg width="301" height="300" viewBox="0 0 301 300" fill="none" xmlns="http://www.w3.org/2000/svg">
<path d="M240 237.5L238.997 119.882L238 3L3 237.5H121.128H240Z" fill="#F7DAB4"/>
<path d="M296 63L298 297.5H61L121.128 237.5H240L238.997 119.882L296 63Z" fill="white"/>
<path d="M296 63L298 297.5M296 63L238 3M296 63L238.997 119.882M298 297.5H61M298 297.5L240 237.5M61 297.5L3 237.5M61 297.5L121.128 237.5M238 3L3 237.5M238 3L238.997 119.882M240 237.5H121.128M240 237.5L238.997 119.882M3 237.5H121.128" stroke="#021F25" stroke-width="5" stroke-linejoin="round"/>
</svg>
