<svg width="301" height="300" viewBox="0 0 301 300" fill="none" xmlns="http://www.w3.org/2000/svg">
<path d="M240 297.5H3L61 237.5H179.872H298L240 297.5Z" fill="#F7DAB4"/>
<path d="M61 237.5L62.0031 119.882L63 3L298 237.5H179.872H61Z" fill="white"/>
<path d="M5 63L3 297.5M5 63L63 3M5 63L62.0031 119.882M3 297.5H240M3 297.5L61 237.5M240 297.5L298 237.5M240 297.5L209.936 267.5L179.872 237.5M63 3L298 237.5M63 3L62.0031 119.882M61 237.5H179.872M61 237.5L62.0031 119.882M298 237.5H179.872M179.872 237.5L62.0031 119.882" stroke="#021F25" stroke-width="5" stroke-linejoin="round"/>
</svg>
