<svg width="301" height="300" viewBox="0 0 301 300" fill="none" xmlns="http://www.w3.org/2000/svg">
<path d="M121.128 63H240L238.997 180.618L238 297.5L3 63H121.128Z" fill="white"/>
<path d="M238 297.5L296 237.5L238.997 180.618L238 297.5Z" fill="#F7DAB4"/>
<path d="M3 63L61 3L121.128 63H3Z" fill="#F7DAB4"/>
<path d="M296 237.5L298 3M296 237.5L238 297.5M296 237.5L238.997 180.618M298 3H61M298 3L240 63M61 3L3 63M61 3L121.128 63M238 297.5L3 63M238 297.5L238.997 180.618M240 63H121.128M240 63L238.997 180.618M3 63H121.128" stroke="#021F25" stroke-width="5" stroke-linejoin="round"/>
</svg>
