<svg width="20660" height="429" viewBox="0 0 20660 429" fill="none" xmlns="http://www.w3.org/2000/svg">
<path d="M760.5 299.801L726.5 331.801C726.5 331.801 725.398 317.958 726.258 299.929C739.527 299.894 750.906 299.849 760.5 299.801Z" fill="#B8E2C8"/>
<path d="M941.5 299L907.5 331V299.939C918.962 299.743 930.465 299.441 941.5 299Z" fill="#B8E2C8"/>
<path d="M771 129C747.597 129 725.569 136.271 706.318 149.082C663.559 177.538 634.5 233.33 634.5 297.5V332C674.822 332 705.101 331.907 726.5 331.801C726.5 331.801 725.398 317.958 726.258 299.929C727.822 267.145 735.875 220.517 768.842 218.094C769.55 218.042 770.269 218.011 771 218C824.5 217.218 817 332.206 817 332.206C843.741 332.365 877.364 332.205 907.5 331V299.939V297.5C907.5 204.44 846.387 129 771 129Z" fill="white"/>
<path d="M907.5 331C877.364 332.205 843.741 332.365 817 332.206C817 332.206 824.5 217.218 771 218C770.269 218.011 769.55 218.042 768.842 218.094M907.5 331L941.5 299M907.5 331V299.939M726.5 331.801C705.101 331.907 674.822 332 634.5 332V297.5C634.5 233.33 663.559 177.538 706.318 149.082M726.5 331.801L760.5 299.801M726.5 331.801C726.5 331.801 725.398 317.958 726.258 299.929M941.5 299V265.5C941.5 172.44 880.387 97 805 97C766.194 97 731.171 116.989 706.318 149.082M941.5 299C930.465 299.441 918.962 299.743 907.5 299.939M760.5 299.801C760.5 299.801 756.674 251.751 768.842 218.094M760.5 299.801C750.906 299.849 739.527 299.894 726.258 299.929M706.318 149.082C725.569 136.271 747.597 129 771 129C846.387 129 907.5 204.44 907.5 297.5V299.939M768.842 218.094C735.875 220.517 727.822 267.145 726.258 299.929" stroke="#021F25" stroke-width="5" stroke-linejoin="round"/>
<path d="M12480.5 297.5C12480.5 204.44 12541.6 129 12617 129C12640.4 129 12662.4 136.271 12681.7 149.082C12705.1 179.335 12719.5 220.343 12719.5 265.5V300L12753.5 332V297.5C12753.5 233.33 12724.4 177.538 12681.7 149.082C12656.8 116.989 12621.8 97 12583 97C12507.6 97 12446.5 172.44 12446.5 265.5V299L12480.5 331V299.939V297.5Z" fill="white"/>
<path d="M12753.5 332C12713.2 332 12682.9 331.907 12661.5 331.801L12627.5 299.801C12637.1 299.849 12648.5 299.894 12661.7 299.929C12678.1 299.972 12697.3 300 12719.5 300L12753.5 332Z" fill="#B8E2C8"/>
<path d="M12571 332.206C12544.3 332.365 12510.6 332.205 12480.5 331L12446.5 299C12457.5 299.441 12469 299.743 12480.5 299.939C12500.3 300.279 12520.1 300.307 12537 300.206L12571 332.206Z" fill="#B8E2C8"/>
<path d="M12753.5 332V297.5C12753.5 233.33 12724.4 177.538 12681.7 149.082M12753.5 332C12713.2 332 12682.9 331.907 12661.5 331.801L12627.5 299.801M12753.5 332L12719.5 300M12571 332.206C12544.3 332.365 12510.6 332.205 12480.5 331L12446.5 299M12571 332.206C12571 332.206 12563.5 217.218 12617 218C12617.7 218.011 12618.5 218.042 12619.2 218.094M12571 332.206L12537 300.206M12719.5 300V265.5C12719.5 220.343 12705.1 179.335 12681.7 149.082M12719.5 300C12697.3 300 12678.1 299.972 12661.7 299.929M12446.5 299V265.5C12446.5 172.44 12507.6 97 12583 97C12621.8 97 12656.8 116.989 12681.7 149.082M12446.5 299C12457.5 299.441 12469 299.743 12480.5 299.939M12627.5 299.801C12627.5 299.801 12631.3 251.751 12619.2 218.094M12627.5 299.801C12637.1 299.849 12648.5 299.894 12661.7 299.929M12537 300.206C12537 300.206 12529.5 185.218 12583 186C12601.6 186.272 12612.7 200.134 12619.2 218.094M12537 300.206C12520.1 300.307 12500.3 300.279 12480.5 299.939M12681.7 149.082C12662.4 136.271 12640.4 129 12617 129C12541.6 129 12480.5 204.44 12480.5 297.5V299.939M12619.2 218.094C12652.1 220.517 12660.2 267.145 12661.7 299.929" stroke="#021F25" stroke-width="5" stroke-linejoin="round"/>
<path d="M19103.5 163.757C19103.5 256.817 19164.6 332.257 19240 332.257C19278.8 332.257 19313.8 312.268 19338.7 280.176C19362.1 249.923 19376.5 208.914 19376.5 163.757V129.257C19354.3 129.257 19335.1 129.286 19318.7 129.329C19305.5 129.364 19294.1 129.409 19284.5 129.456C19284.5 129.456 19288.3 177.507 19276.2 211.163C19269.7 229.124 19258.6 242.985 19240 243.257C19186.5 244.04 19194 129.051 19194 129.051C19177.1 128.951 19157.3 128.978 19137.5 129.318C19126 129.515 19114.5 129.816 19103.5 130.257V163.757Z" fill="#B8E2C8"/>
<path d="M19410.5 97.2573C19370.2 97.2573 19339.9 97.3503 19318.5 97.4561L19284.5 129.456C19294.1 129.409 19305.5 129.364 19318.7 129.329C19335.1 129.286 19354.3 129.257 19376.5 129.257L19410.5 97.2573Z" fill="white"/>
<path d="M19228 97.051C19201.3 96.8927 19167.6 97.0519 19137.5 98.2573L19103.5 130.257C19114.5 129.816 19126 129.515 19137.5 129.318C19157.3 128.978 19177.1 128.951 19194 129.051L19228 97.051Z" fill="white"/>
<path d="M19137.5 131.757V129.318M19410.5 97.2573V131.757C19410.5 195.927 19381.4 251.72 19338.7 280.176M19410.5 97.2573C19370.2 97.2573 19339.9 97.3503 19318.5 97.4561M19410.5 97.2573L19376.5 129.257M19137.5 98.2573C19167.6 97.0519 19201.3 96.8927 19228 97.051M19137.5 98.2573L19103.5 130.257M19137.5 98.2573V129.318M19318.5 97.4561L19284.5 129.456M19318.5 97.4561C19318.5 97.4561 19319.6 111.299 19318.7 129.329M19228 97.051C19228 97.051 19220.5 212.04 19274 211.257C19274.7 211.247 19275.5 211.215 19276.2 211.163M19228 97.051L19194 129.051M19376.5 129.257V163.757C19376.5 208.914 19362.1 249.923 19338.7 280.176M19376.5 129.257C19354.3 129.257 19335.1 129.286 19318.7 129.329M19103.5 130.257V163.757C19103.5 256.817 19164.6 332.257 19240 332.257C19278.8 332.257 19313.8 312.268 19338.7 280.176M19103.5 130.257C19114.5 129.816 19126 129.515 19137.5 129.318M19284.5 129.456C19284.5 129.456 19288.3 177.507 19276.2 211.163M19284.5 129.456C19294.1 129.409 19305.5 129.364 19318.7 129.329M19194 129.051C19194 129.051 19186.5 244.04 19240 243.257C19258.6 242.985 19269.7 229.124 19276.2 211.163M19194 129.051C19177.1 128.951 19157.3 128.978 19137.5 129.318" stroke="#021F25" stroke-width="5" stroke-linejoin="round"/>
<path d="M3084.07 331.929C3084.07 331.929 3092.02 216.971 3038.52 217.541C3037.79 217.549 3037.07 217.578 3036.36 217.627C3024.06 251.235 3027.69 299.3 3027.69 299.3L2993.57 331.165C2993.57 331.165 2992.52 317.318 2993.45 299.291C2995.15 266.514 3003.38 219.919 3036.36 217.627C3042.93 199.692 3054.03 185.875 3072.65 185.676C3126.15 185.106 3118.19 300.064 3118.19 300.064L3084.07 331.929Z" fill="#B8E2C8"/>
<path d="M3073 96.6767C3034.19 96.5227 2999.09 116.373 2974.11 148.366C2950.56 178.526 2936.01 219.477 2935.83 264.634L2935.69 299.133C2957.94 299.222 2977.13 299.27 2993.45 299.291C3006.72 299.309 3018.1 299.309 3027.69 299.3C3027.69 299.3 3024.06 251.234 3036.36 217.627C3042.92 199.692 3054.03 185.874 3072.65 185.676C3126.15 185.106 3118.19 300.064 3118.19 300.064C3135.14 300.232 3154.85 300.283 3174.69 300.021C3186.15 299.87 3197.66 299.614 3208.7 299.217L3208.83 265.717C3209.2 172.658 3148.38 96.9758 3073 96.6767Z" fill="white"/>
<path d="M3174.7 297.582L3174.69 300.021M2901.57 330.998L2901.7 296.499C2901.96 232.329 2931.24 176.653 2974.11 148.366M2901.57 330.998C2941.89 331.158 2972.17 331.186 2993.57 331.165M2901.57 330.998L2935.69 299.134M3174.57 331.082C3144.43 332.168 3110.81 332.193 3084.07 331.929M3174.57 331.082L3208.7 299.217M3174.57 331.082L3174.69 300.021M2993.57 331.165L3027.69 299.3M2993.57 331.165C2993.57 331.165 2992.52 317.318 2993.45 299.291M3084.07 331.929C3084.07 331.929 3092.02 216.971 3038.52 217.541C3037.79 217.549 3037.07 217.578 3036.36 217.627M3084.07 331.929L3118.19 300.064M2935.69 299.134L2935.83 264.634C2936.01 219.477 2950.56 178.526 2974.11 148.366M2935.69 299.134C2957.94 299.222 2977.13 299.27 2993.45 299.291M3208.7 299.217L3208.83 265.717C3209.2 172.658 3148.38 96.976 3073 96.6768C3034.19 96.5228 2999.09 116.373 2974.11 148.366M3208.7 299.217C3197.66 299.615 3186.15 299.87 3174.69 300.021M3027.69 299.3C3027.69 299.3 3024.06 251.234 3036.36 217.627M3027.69 299.3C3018.1 299.309 3006.72 299.309 2993.45 299.291M3118.19 300.064C3118.19 300.064 3126.15 185.106 3072.65 185.676C3054.03 185.875 3042.93 199.692 3036.36 217.627M3118.19 300.064C3135.14 300.232 3154.85 300.283 3174.69 300.021" stroke="#021F25" stroke-width="5" stroke-linejoin="round"/>
<path d="M2503 111L2495.47 124.103L2384.14 317.71L2365 351L2642.5 349.5L2503 111Z" fill="white"/>
<path d="M2468.5 78L2503 111L2495.47 124.103L2468.5 78Z" fill="#F96557"/>
<path d="M2330.5 318L2365 351L2384.14 317.71L2330.5 318Z" fill="#F96557"/>
<path d="M2365 351L2642.5 349.5L2503 111M2365 351L2330.5 318M2365 351L2384.14 317.71M2503 111L2468.5 78M2503 111L2495.47 124.103M2330.5 318L2468.5 78M2330.5 318L2384.14 317.71M2468.5 78L2495.47 124.103M2384.14 317.71L2495.47 124.103" stroke="#021F25" stroke-width="5" stroke-linejoin="round"/>
<path d="M1897.5 78L1759.5 318L1813.14 317.71L1924.47 124.103L1897.5 78Z" fill="#F96557"/>
<path d="M1932 111L1924.47 124.103L1813.14 317.71L1794 351L2071.5 349.5L1932 111Z" fill="white"/>
<path d="M1794 351L2071.5 349.5L1932 111M1794 351L1759.5 318M1794 351L1813.14 317.71M1932 111L1897.5 78M1932 111L1924.47 124.103M1759.5 318L1897.5 78M1759.5 318L1813.14 317.71M1897.5 78L1924.47 124.103M1813.14 317.71L1924.47 124.103" stroke="#021F25" stroke-width="5" stroke-linejoin="round"/>
<path d="M9755 111L9762.53 124.103L9873.86 317.71L9893 351L9615.5 349.5L9755 111Z" fill="white"/>
<path d="M9789.5 78L9755 111L9762.53 124.103L9789.5 78Z" fill="#F96557"/>
<path d="M9927.5 318L9893 351L9873.86 317.71L9927.5 318Z" fill="#F96557"/>
<path d="M9893 351L9615.5 349.5L9755 111M9893 351L9927.5 318M9893 351L9873.86 317.71M9755 111L9789.5 78M9755 111L9762.53 124.103M9927.5 318L9789.5 78M9927.5 318L9873.86 317.71M9789.5 78L9762.53 124.103M9873.86 317.71L9762.53 124.103" stroke="#021F25" stroke-width="5" stroke-linejoin="round"/>
<path d="M5860 111L5852.47 124.103L5741.14 317.71L5722 351L5999.5 349.5L5860 111Z" fill="#F96557"/>
<path d="M5825.5 78L5687.5 318L5741.14 317.71L5852.47 124.103L5825.5 78Z" fill="white"/>
<path d="M5722 351L5999.5 349.5L5860 111M5722 351L5687.5 318M5722 351L5741.14 317.71M5860 111L5825.5 78M5860 111L5852.47 124.103M5687.5 318L5825.5 78M5687.5 318L5741.14 317.71M5825.5 78L5852.47 124.103M5741.14 317.71L5852.47 124.103" stroke="#021F25" stroke-width="5" stroke-linejoin="round"/>
<path d="M10270.5 89H10382.5H10466.5V426H10270.5V340V89Z" fill="#B8E2C8"/>
<path d="M10186.5 3H10382.5V89H10270.5V340H10186.5V3Z" fill="white"/>
<path d="M10270.5 89L10186.5 3M10270.5 89H10382.5M10270.5 89V340M10466.5 89V426H10270.5M10466.5 89L10382.5 3M10466.5 89H10382.5M10270.5 426L10186.5 340M10270.5 426V340M10186.5 3H10382.5M10186.5 3V340M10382.5 3V89M10186.5 340H10270.5" stroke="#021F25" stroke-width="5" stroke-linejoin="round"/>
<path d="M15251.5 88H15447.5V174V425H15335.5H15251.5V88Z" fill="white"/>
<path d="M15252.5 89L15336.5 3V89H15252.5Z" fill="#B8E2C8"/>
<path d="M15532.5 340L15448.5 426V340H15532.5Z" fill="#B8E2C8"/>
<path d="M15448.5 89L15532.5 3M15448.5 89H15336.5M15448.5 89V340M15252.5 89V426H15448.5M15252.5 89L15336.5 3M15252.5 89H15336.5M15448.5 426L15532.5 340M15448.5 426V340M15532.5 3H15336.5M15532.5 3V340M15336.5 3V89M15532.5 340H15448.5" stroke="#021F25" stroke-width="5" stroke-linejoin="round"/>
<path d="M8590.5 3H8786.5V340H8702.5H8590.5V89V3Z" fill="#B8E2C8"/>
<path d="M8506.5 89V426H8702.5L8786.5 340H8702.5H8590.5V89V3L8506.5 89Z" fill="white"/>
<path d="M8506.5 89V426M8506.5 89L8590.5 3M8506.5 89H8590.5M8506.5 426H8702.5M8506.5 426L8590.5 340M8702.5 426L8786.5 340M8702.5 426V340M8590.5 3H8786.5V340M8590.5 3V89M8590.5 340V89M8590.5 340H8702.5M8786.5 340H8702.5" stroke="#021F25" stroke-width="5" stroke-linejoin="round"/>
<path d="M7500.63 127H7619.5L7618.5 244.618L7617.5 361.5L7382.5 127H7500.63Z" fill="white"/>
<path d="M7617.5 361.5L7675.5 301.5L7618.5 244.618L7617.5 361.5Z" fill="#F7DAB4"/>
<path d="M7382.5 127L7440.5 67L7500.63 127H7382.5Z" fill="#F7DAB4"/>
<path d="M7675.5 301.5L7677.5 67M7675.5 301.5L7617.5 361.5M7675.5 301.5L7618.5 244.618M7677.5 67H7440.5M7677.5 67L7619.5 127M7440.5 67L7382.5 127M7440.5 67L7500.63 127M7617.5 361.5L7382.5 127M7617.5 361.5L7618.5 244.618M7619.5 127H7500.63M7619.5 127L7618.5 244.618M7382.5 127H7500.63" stroke="#021F25" stroke-width="5" stroke-linejoin="round"/>
<path d="M6553.5 361.5L6551.5 127L6494.5 183.882L6376.63 301.5L6316.5 361.5H6553.5Z" fill="#F7DAB4"/>
<path d="M6493.5 67L6551.5 127L6494.5 183.882L6493.5 67Z" fill="white"/>
<path d="M6258.5 301.5L6316.5 361.5L6376.63 301.5H6258.5Z" fill="white"/>
<path d="M6551.5 127L6553.5 361.5H6316.5M6551.5 127L6493.5 67M6551.5 127L6494.5 183.882M6316.5 361.5L6258.5 301.5M6316.5 361.5L6376.63 301.5M6493.5 67L6258.5 301.5M6493.5 67L6494.5 183.882M6258.5 301.5H6376.63M6376.63 301.5L6494.5 183.882" stroke="#021F25" stroke-width="5" stroke-linejoin="round"/>
<path d="M10962.5 361.5H10725.5L10783.5 301.5H10902.4H11020.5L10962.5 361.5Z" fill="#F7DAB4"/>
<path d="M10783.5 301.5L10784.5 183.882L10785.5 67L11020.5 301.5H10902.4H10783.5Z" fill="white"/>
<path d="M10727.5 127L10725.5 361.5M10727.5 127L10785.5 67M10727.5 127L10784.5 183.882M10725.5 361.5H10962.5M10725.5 361.5L10783.5 301.5M10962.5 361.5L11020.5 301.5M10962.5 361.5L10932.4 331.5L10902.4 301.5M10785.5 67L11020.5 301.5M10785.5 67L10784.5 183.882M10783.5 301.5H10902.4M10783.5 301.5L10784.5 183.882M11020.5 301.5H10902.4M10902.4 301.5L10784.5 183.882" stroke="#021F25" stroke-width="5" stroke-linejoin="round"/>
<path d="M16544.5 301.5L16543.5 183.882L16542.5 67L16307.5 301.5H16425.6H16544.5Z" fill="#F7DAB4"/>
<path d="M16600.5 127L16602.5 361.5H16365.5L16425.6 301.5H16544.5L16543.5 183.882L16600.5 127Z" fill="white"/>
<path d="M16600.5 127L16602.5 361.5M16600.5 127L16542.5 67M16600.5 127L16543.5 183.882M16602.5 361.5H16365.5M16602.5 361.5L16544.5 301.5M16365.5 361.5L16307.5 301.5M16365.5 361.5L16425.6 301.5M16542.5 67L16307.5 301.5M16542.5 67L16543.5 183.882M16544.5 301.5H16425.6M16544.5 301.5L16543.5 183.882M16307.5 301.5H16425.6" stroke="#021F25" stroke-width="5" stroke-linejoin="round"/>
<path d="M13826.5 84H13601.5V120V310H13794.5H13826.5V84Z" fill="white"/>
<path d="M13569.5 120L13601.5 84V120H13569.5Z" fill="#F7DAB4"/>
<path d="M13826.5 310L13794.5 346V310H13826.5Z" fill="#F7DAB4"/>
<path d="M13601.5 84H13826.5V310M13601.5 84L13569.5 120M13601.5 84V120M13826.5 310L13794.5 346M13826.5 310H13794.5M13601.5 310H13794.5M13601.5 310V120M13601.5 310L13569.5 346M13569.5 120V346M13569.5 120H13601.5M13794.5 346H13569.5M13794.5 346V310" stroke="#021F25" stroke-width="5" stroke-linejoin="round"/>
<path d="M15791.5 346H16016.5V310V120H15823.5H15791.5V346Z" fill="white"/>
<path d="M15823.5 84H16048.5V310H16016.5V120H15823.5V84Z" fill="#F7DAB4"/>
<path d="M15823.5 84H16048.5M15823.5 84L15791.5 120M15823.5 84V120M16048.5 84V310M16048.5 84L16016.5 120M16048.5 310L16016.5 346M16048.5 310H16016.5M15791.5 120V346H16016.5M15791.5 120H15823.5M16016.5 120V310M16016.5 120H15823.5M16016.5 346V310" stroke="#021F25" stroke-width="5" stroke-linejoin="round"/>
<path d="M4261.5 84H4036.5V120V310H4229.5H4261.5V84Z" fill="#F7DAB4"/>
<path d="M4229.5 346H4004.5V120H4036.5V310H4229.5V328V346Z" fill="white"/>
<path d="M4036.5 84H4261.5M4036.5 84L4004.5 120M4036.5 84V120M4261.5 84V310M4261.5 84L4229.5 120M4261.5 310L4229.5 346M4261.5 310H4229.5M4036.5 310H4229.5M4036.5 310V120M4036.5 310L4004.5 346M4004.5 120V346M4004.5 120H4036.5M4229.5 120V310M4229.5 120H4036.5M4229.5 346H4004.5M4229.5 346V310" stroke="#021F25" stroke-width="5" stroke-linejoin="round"/>
<path d="M11995.5 120C11908.2 120 11837.5 190.739 11837.5 278H11874.7H12153.5C12153.5 241.063 12140.8 207.086 12119.6 180.182C12090.7 143.527 12045.8 120 11995.5 120Z" fill="white"/>
<path d="M11871.5 310L11837.5 278H11874.7C11872.6 288.334 11871.5 299.037 11871.5 310Z" fill="#007EA7"/>
<path d="M11837.5 278C11837.5 190.739 11908.2 120 11995.5 120C12045.8 120 12090.7 143.527 12119.6 180.182M11837.5 278L11871.5 310M11837.5 278H11874.7M12153.5 278L12187.5 310M12153.5 278C12153.5 241.063 12140.8 207.086 12119.6 180.182M12153.5 278H11874.7M11871.5 310H12187.5M11871.5 310C11871.5 299.037 11872.6 288.334 11874.7 278M12187.5 310C12187.5 256.222 12160.6 208.719 12119.6 180.182" stroke="#021F25" stroke-width="5" stroke-linejoin="round"/>
<path d="M4870.5 310H4554.5L4520.5 278H4557.74H4836.5L4870.5 310Z" fill="#007EA7"/>
<path d="M4520.5 278C4520.5 190.739 4591.24 120 4678.5 120C4728.82 120 4773.65 143.527 4802.59 180.182C4843.63 208.719 4870.5 256.222 4870.5 310L4836.5 278C4836.5 241.063 4823.83 207.086 4802.59 180.182C4777.03 162.415 4745.98 152 4712.5 152C4636.2 152 4572.54 206.081 4557.74 278H4520.5Z" fill="white"/>
<path d="M4802.59 180.182C4777.03 162.415 4745.98 152 4712.5 152C4636.2 152 4572.54 206.081 4557.74 278H4520.5C4520.5 190.739 4591.24 120 4678.5 120C4728.82 120 4773.65 143.527 4802.59 180.182ZM4802.59 180.182C4843.63 208.719 4870.5 256.222 4870.5 310L4836.5 278C4836.5 241.063 4823.83 207.086 4802.59 180.182Z" stroke="#021F25" stroke-width="5" stroke-linejoin="round"/>
<path d="M4520.5 278C4520.5 190.739 4591.24 120 4678.5 120C4728.82 120 4773.65 143.527 4802.59 180.182M4520.5 278L4554.5 310H4870.5M4520.5 278H4557.74M4836.5 278L4870.5 310M4836.5 278C4836.5 241.063 4823.83 207.086 4802.59 180.182M4836.5 278H4557.74M4870.5 310C4870.5 256.222 4843.63 208.719 4802.59 180.182M4802.59 180.182C4777.03 162.415 4745.98 152 4712.5 152C4636.2 152 4572.54 206.081 4557.74 278" stroke="#021F25" stroke-width="5" stroke-linejoin="round"/>
<path d="M14367.6 180.182C14342 162.415 14311 152 14277.5 152C14201.2 152 14137.5 206.081 14122.7 278H14401.5C14401.5 241.063 14388.8 207.086 14367.6 180.182Z" fill="white"/>
<path d="M14085.5 278C14085.5 190.739 14156.2 120 14243.5 120C14293.8 120 14338.7 143.527 14367.6 180.182C14408.6 208.719 14435.5 256.222 14435.5 310L14401.5 278C14401.5 241.063 14388.8 207.086 14367.6 180.182C14342 162.415 14311 152 14277.5 152C14201.2 152 14137.5 206.081 14122.7 278C14120.6 288.334 14119.5 299.037 14119.5 310L14085.5 278Z" fill="#007EA7"/>
<path d="M14367.6 180.182C14342 162.415 14311 152 14277.5 152C14201.2 152 14137.5 206.081 14122.7 278C14120.6 288.334 14119.5 299.037 14119.5 310L14085.5 278C14085.5 190.739 14156.2 120 14243.5 120C14293.8 120 14338.7 143.527 14367.6 180.182ZM14367.6 180.182C14408.6 208.719 14435.5 256.222 14435.5 310L14401.5 278C14401.5 241.063 14388.8 207.086 14367.6 180.182Z" stroke="#021F25" stroke-width="5" stroke-linejoin="round"/>
<path d="M14401.5 278L14435.5 310M14401.5 278C14401.5 241.063 14388.8 207.086 14367.6 180.182M14401.5 278H14122.7M14119.5 310H14435.5M14119.5 310L14085.5 278C14085.5 190.739 14156.2 120 14243.5 120C14293.8 120 14338.7 143.527 14367.6 180.182M14119.5 310C14119.5 299.037 14120.6 288.334 14122.7 278M14435.5 310C14435.5 256.222 14408.6 208.719 14367.6 180.182M14367.6 180.182C14342 162.415 14311 152 14277.5 152C14201.2 152 14137.5 206.081 14122.7 278" stroke="#021F25" stroke-width="5" stroke-linejoin="round"/>
<path d="M19827.5 119C19740.2 119 19669.5 189.739 19669.5 277H19706.7H19985.5C19985.5 240.063 19972.8 206.086 19951.6 179.182C19922.7 142.527 19877.8 119 19827.5 119Z" fill="#007EA7"/>
<path d="M20019.5 309L19985.5 277C19985.5 240.063 19972.8 206.086 19951.6 179.182C19992.6 207.719 20019.5 255.222 20019.5 309Z" fill="white"/>
<path d="M19669.5 277C19669.5 189.739 19740.2 119 19827.5 119C19877.8 119 19922.7 142.527 19951.6 179.182M19669.5 277L19703.5 309M19669.5 277H19706.7M19985.5 277L20019.5 309M19985.5 277C19985.5 240.063 19972.8 206.086 19951.6 179.182M19985.5 277H19706.7M19703.5 309H20019.5M19703.5 309C19703.5 298.037 19704.6 287.334 19706.7 277M20019.5 309C20019.5 255.222 19992.6 207.719 19951.6 179.182" stroke="#021F25" stroke-width="5" stroke-linejoin="round"/>
<path d="M1379.5 244.5L1466.5 227.5L1467.61 227.326L1440.5 197L1446 106L1367 148.5L1287.5 106L1292.5 197L1233.5 264L1308.87 277.549L1322.5 280L1341.46 312.361L1379.5 244.5Z" fill="white"/>
<path d="M1408.5 161L1414 70L1447 105.5L1441.5 196.5L1500.5 262.5L1413.5 279.5L1369.5 358L1336.5 322.5L1380.5 244L1467.5 227L1408.5 161Z" fill="#B4ADEA"/>
<path d="M1334 113L1413 70.5M1334 113L1254.5 70.5M1334 113L1367 148.5M1413 70.5L1446 106L1440.5 197M1413 70.5L1409.67 125.543M1407.5 161.5L1466.5 227.5M1407.5 161.5L1440.5 197M1407.5 161.5L1409.67 125.543M1466.5 227.5L1379.5 244.5M1466.5 227.5L1499.5 263M1379.5 244.5L1412.5 280M1379.5 244.5L1341.46 312.361M1335.5 323L1368.5 358.5L1412.5 280M1335.5 323L1341.46 312.361M1335.5 323L1308.87 277.549M1289.5 244.5L1200.5 228.5M1289.5 244.5L1322.5 280M1289.5 244.5L1308.87 277.549M1200.5 228.5L1259.5 161.5M1200.5 228.5L1233.5 264M1259.5 161.5L1254.5 70.5M1259.5 161.5L1292.5 197M1254.5 70.5L1287.5 106M1367 148.5L1287.5 106M1367 148.5L1409.67 125.543M1440.5 197L1499.5 263M1499.5 263L1412.5 280M1322.5 280L1341.46 312.361M1322.5 280L1308.87 277.549M1233.5 264L1292.5 197M1233.5 264L1308.87 277.549M1292.5 197L1287.5 106" stroke="#021F25" stroke-width="5" stroke-linejoin="round"/>
<path d="M5295 316.5L5216 359L5219.33 303.957L5262 281L5341.5 323.5L5336.5 232.5L5373.02 191.026L5428.5 201L5369.5 268L5374.5 359L5295 316.5Z" fill="#B4ADEA"/>
<path d="M5306.5 149.5L5287.54 117.139L5293.5 106.5L5320.13 151.951L5306.5 149.5Z" fill="#B4ADEA"/>
<path d="M5183 323.5L5219.33 303.957L5262 281L5341.5 323.5L5336.5 232.5L5373.02 191.026L5395.5 165.5L5320.13 151.951L5306.5 149.5L5287.54 117.139L5260.5 71L5216.5 149.5L5129.5 166.5L5188.5 232.5L5183 323.5Z" fill="white"/>
<path d="M5295 316.5L5216 359M5295 316.5L5374.5 359M5295 316.5L5262 281M5216 359L5183 323.5M5216 359L5219.33 303.957M5293.5 106.5L5260.5 71M5293.5 106.5L5287.54 117.139M5293.5 106.5L5320.13 151.951M5428.5 201L5369.5 268M5428.5 201L5395.5 165.5M5428.5 201L5373.02 191.026M5369.5 268L5374.5 359M5369.5 268L5336.5 232.5M5374.5 359L5341.5 323.5M5262 281L5341.5 323.5M5262 281L5219.33 303.957M5183 323.5L5188.5 232.5L5129.5 166.5L5216.5 149.5L5260.5 71M5183 323.5L5219.33 303.957M5260.5 71L5287.54 117.139M5395.5 165.5L5320.13 151.951M5395.5 165.5L5373.02 191.026M5336.5 232.5L5341.5 323.5M5336.5 232.5L5373.02 191.026M5287.54 117.139L5306.5 149.5L5320.13 151.951" stroke="#021F25" stroke-width="5" stroke-linejoin="round"/>
<path d="M18201 359L18122 316.5L18042.5 359L18047.5 268L17988.5 201L18044 191.026L18081 233.5L18075.5 323L18154.5 281.5L18197.7 303.957L18198.2 313.5L18201 359Z" fill="#B4ADEA"/>
<path d="M18254.5 202L18195.5 268L18197.7 303.957L18198.2 313.5L18201 359L18234 323.5L18228.5 232.5L18287.5 166.5L18200.5 149.5L18156.5 71L18123.5 106.5L18096.9 151.951L18021.5 165.5L17988.5 201L18044 191.026L18077.5 185L18096.9 151.951L18123.5 106.5L18129.5 117.139L18167.5 185L18254.5 202Z" fill="white"/>
<path d="M18122 316.5L18201 359M18122 316.5L18042.5 359M18122 316.5L18155 281M18201 359L18234 323.5L18228.5 232.5M18201 359L18198.2 313.5L18197.7 303.957M18195.5 268L18254.5 202M18195.5 268L18228.5 232.5M18195.5 268L18197.7 303.957M18254.5 202L18167.5 185M18254.5 202L18287.5 166.5M18167.5 185L18129.5 117.139L18123.5 106.5M18167.5 185L18184 167.25L18200.5 149.5M18123.5 106.5L18156.5 71L18200.5 149.5M18123.5 106.5L18096.9 151.951M17988.5 201L18047.5 268M17988.5 201L18021.5 165.5L18096.9 151.951M17988.5 201L18044 191.026M18047.5 268L18042.5 359M18047.5 268L18080.5 232.5M18042.5 359L18075.5 323.5M18155 281L18075.5 323.5M18155 281L18197.7 303.957M18228.5 232.5L18287.5 166.5M18287.5 166.5L18200.5 149.5M18080.5 232.5L18075.5 323.5M18080.5 232.5L18044 191.026M18096.9 151.951L18077.5 185L18044 191.026" stroke="#021F25" stroke-width="5" stroke-linejoin="round"/>
<path d="M11525 106.5L11488.7 126.043L11446 149L11366.5 106.5L11371.5 197.5L11335 238.974L11312.5 264.5L11387.9 278.049L11401.5 280.5L11420.5 312.861L11447.5 359L11491.5 280.5L11578.5 263.5L11519.5 197.5L11525 106.5Z" fill="white"/>
<path d="M11447.5 359L11414.5 323.5L11387.9 278.049L11401.5 280.5L11420.5 312.861L11447.5 359Z" fill="#B4ADEA"/>
<path d="M11525 106.5L11492 71L11489.2 116.5L11488.7 126.043L11525 106.5Z" fill="#B4ADEA"/>
<path d="M11312.5 264.5L11279.5 229L11335 238.974L11312.5 264.5Z" fill="#B4ADEA"/>
<path d="M11413 113.5L11492 71M11413 113.5L11333.5 71M11413 113.5L11446 149M11492 71L11525 106.5M11492 71L11489.2 116.5L11488.7 126.043M11279.5 229L11338.5 162M11279.5 229L11312.5 264.5M11279.5 229L11335 238.974M11338.5 162L11333.5 71M11338.5 162L11371.5 197.5M11333.5 71L11366.5 106.5M11446 149L11366.5 106.5M11446 149L11488.7 126.043M11525 106.5L11519.5 197.5L11578.5 263.5L11491.5 280.5L11447.5 359M11525 106.5L11488.7 126.043M11447.5 359L11414.5 323.5L11387.9 278.049M11447.5 359L11420.5 312.861L11401.5 280.5L11387.9 278.049M11312.5 264.5L11387.9 278.049M11312.5 264.5L11335 238.974M11371.5 197.5L11366.5 106.5M11371.5 197.5L11335 238.974" stroke="#021F25" stroke-width="5" stroke-linejoin="round"/>
<path d="M17066.5 320L17131.5 207.5L17072.4 109.5L17060 89L17101 109.5L17172.5 228L17107.5 340.5H16967.5L16926.5 320H16956H17066.5Z" fill="white"/>
<path d="M17066.5 320L17131.5 207.5L17072.4 109.5H16967.5L16902.5 224.5L16956 320H17066.5Z" fill="#007EA7"/>
<path d="M16861.5 204L16926.5 89M16861.5 204L16926.5 320M16861.5 204L16902.5 224.5M16926.5 89H17060M16926.5 89L16967.5 109.5M17060 89L17101 109.5L17172.5 228M17060 89L17072.4 109.5M17131.5 207.5L17066.5 320M17131.5 207.5L17172.5 228M17131.5 207.5L17072.4 109.5M17066.5 320L17107.5 340.5M17066.5 320H16956M16926.5 320L16967.5 340.5H17107.5M16926.5 320H16956M16902.5 224.5L16967.5 109.5M16902.5 224.5L16956 320M16967.5 109.5H17072.4M17172.5 228L17107.5 340.5" stroke="#021F25" stroke-width="5" stroke-linejoin="round"/>
<path d="M6877.5 89L6812.5 204L6877.5 320H6907.01H7017.5L7082.5 207.5L7023.37 109.5L7011 89H6877.5Z" fill="white"/>
<path d="M7017.5 320L7082.5 207.5L7023.37 109.5H7052L7123.5 228L7058.5 340.5H6918.5L6907.01 320H7017.5Z" fill="#007EA7"/>
<path d="M7011 89H6877.5L6812.5 204L6877.5 320M7011 89L7052 109.5M7011 89L7023.37 109.5M7082.5 207.5L7017.5 320M7082.5 207.5L7123.5 228M7082.5 207.5L7023.37 109.5M7017.5 320L7058.5 340.5M7017.5 320H6907.01M6877.5 320L6918.5 340.5M6877.5 320H6907.01M7052 109.5L7123.5 228M7052 109.5H7023.37M7123.5 228L7058.5 340.5M7058.5 340.5H6918.5M6918.5 340.5L6907.01 320" stroke="#021F25" stroke-width="5" stroke-linejoin="round"/>
<path d="M9250.5 320L9315.5 207.5L9256.37 109.5H9151.5L9086.5 224.5L9140.01 320H9250.5Z" fill="white"/>
<path d="M9250.5 320L9315.5 207.5L9256.37 109.5L9244 89L9285 109.5L9356.5 228L9291.5 340.5H9151.5L9110.5 320H9140.01H9250.5Z" fill="#007EA7"/>
<path d="M9045.5 204L9110.5 89M9045.5 204L9110.5 320M9045.5 204L9086.5 224.5M9110.5 89H9244M9110.5 89L9151.5 109.5M9244 89L9285 109.5L9356.5 228M9244 89L9256.37 109.5M9315.5 207.5L9250.5 320M9315.5 207.5L9356.5 228M9315.5 207.5L9256.37 109.5M9250.5 320L9291.5 340.5M9250.5 320H9140.01M9110.5 320L9151.5 340.5H9291.5M9110.5 320H9140.01M9086.5 224.5L9151.5 109.5M9086.5 224.5L9140.01 320M9151.5 109.5H9256.37M9356.5 228L9291.5 340.5" stroke="#021F25" stroke-width="5" stroke-linejoin="round"/>
<path d="M8182.5 89L8247.5 204L8182.5 320H8152.99H8042.5L7977.5 207.5L8036.63 109.5L8049 89H8182.5Z" fill="#007EA7"/>
<path d="M8001.5 340.5H8141.5L8182.5 320H8152.99H8042.5L8001.5 340.5Z" fill="white"/>
<path d="M8008 109.5L8049 89L8036.63 109.5H8008Z" fill="white"/>
<path d="M8049 89H8182.5L8247.5 204L8182.5 320M8049 89L8008 109.5M8049 89L8036.63 109.5M7977.5 207.5L8042.5 320M7977.5 207.5L7936.5 228M7977.5 207.5L8036.63 109.5M8042.5 320L8001.5 340.5M8042.5 320H8152.99M8182.5 320L8141.5 340.5M8182.5 320H8152.99M8008 109.5L7936.5 228M8008 109.5H8036.63M7936.5 228L8001.5 340.5M8001.5 340.5H8141.5M8141.5 340.5L8152.99 320" stroke="#021F25" stroke-width="5" stroke-linejoin="round"/>
<path d="M20278.5 212.5L20346.5 353L20401.4 248.477L20419 215L20401.8 179.383L20352 76L20278.5 212.5Z" fill="white"/>
<path d="M20452 353L20524.5 215H20419L20401.4 248.477L20346.5 353H20452Z" fill="#F96557"/>
<path d="M20346.5 353L20278.5 212.5L20352 76M20346.5 353H20452L20524.5 215M20346.5 353L20401.4 248.477L20419 215M20352 76H20457.5M20352 76L20401.8 179.383M20419 215L20524.5 215M20419 215L20401.8 179.383M20457.5 76L20524.5 215M20457.5 76L20401.8 179.383" stroke="#021F25" stroke-width="5" stroke-linejoin="round"/>
<path d="M129.5 215.5L199 75H304L251.692 179.246L233.5 215.5H129.5Z" fill="white"/>
<path d="M268.5 212.5H375L304 353.5H199L250.561 248.895L268.5 212.5Z" fill="white"/>
<path d="M304 75L375 212.5H268.5L250.561 248.895L233.5 215.5L251.692 179.246L304 75Z" fill="#F96557"/>
<path d="M199 75L129.5 215.5M199 75H304M199 75L251.692 179.246M129.5 215.5L199 353.5M129.5 215.5H233.5M199 353.5H304L375 212.5M199 353.5L250.561 248.895M268.5 212.5H375M268.5 212.5L250.561 248.895M268.5 212.5L251.692 179.246M304 75L375 212.5M304 75L251.692 179.246M233.5 215.5L250.561 248.895M233.5 215.5L251.692 179.246" stroke="#021F25" stroke-width="5" stroke-linejoin="round"/>
<path d="M3468.5 265.5V160L3573.02 214.912L3468.5 265.5Z" fill="#F96557"/>
<path d="M3745.5 271V165.5L3642.12 215.332L3745.5 271Z" fill="#F96557"/>
<path d="M3609 92L3468.5 160L3606.5 232.5L3745.5 165.5L3609 92Z" fill="white"/>
<path d="M3468.5 160L3609 92L3745.5 165.5M3468.5 160V265.5M3468.5 160L3573.02 214.912M3745.5 165.5V271M3745.5 165.5L3642.12 215.332M3606.5 232.5V338M3606.5 232.5L3642.12 215.332M3606.5 232.5L3573.02 214.912M3468.5 265.5L3606.5 338M3468.5 265.5L3573.02 214.912M3745.5 271L3606.5 338M3745.5 271L3642.12 215.332" stroke="#021F25" stroke-width="5" stroke-linejoin="round"/>
<path d="M17626.6 322.438C17655.1 300.303 17673.5 265.688 17673.5 226.785C17673.5 153.704 17606.1 96.3658 17534.4 107.131C17505.9 129.267 17487.5 163.882 17487.5 202.785C17487.5 275.865 17554.9 333.203 17626.6 322.438Z" fill="#B4ADEA"/>
<path d="M17663 310.845C17702.4 290.909 17729.5 250.006 17729.5 202.785C17729.5 120.949 17645.7 62.2633 17569.5 88.2072C17556.7 92.5642 17544.9 99.0072 17534.4 107.131C17606.1 96.3658 17673.5 153.704 17673.5 226.785C17673.5 265.688 17655.1 300.303 17626.6 322.438C17639.5 320.5 17651.8 316.523 17663 310.845Z" fill="white"/>
<path d="M17569.5 88.2072L17497.5 118.978M17569.5 88.2072C17556.7 92.5642 17544.9 99.0072 17534.4 107.131M17569.5 88.2072C17645.7 62.2633 17729.5 120.949 17729.5 202.785C17729.5 250.006 17702.5 290.909 17663 310.845M17663 310.845L17590 341.861M17663 310.845C17651.8 316.523 17639.5 320.5 17626.6 322.438M17590 341.861C17603.4 337.504 17615.7 330.878 17626.6 322.438M17590 341.861C17514 366.61 17431.5 307.962 17431.5 226.785C17431.5 179.763 17458.3 139.006 17497.5 118.978M17497.5 118.978C17508.9 113.165 17521.3 109.098 17534.4 107.131M17626.6 322.438C17655.1 300.303 17673.5 265.688 17673.5 226.785C17673.5 153.704 17606.1 96.3658 17534.4 107.131M17626.6 322.438C17554.9 333.203 17487.5 275.865 17487.5 202.785C17487.5 163.882 17505.9 129.267 17534.4 107.131" stroke="#021F25" stroke-width="5"/>
<path d="M14694.5 226.785C14694.5 179.763 14721.3 139.006 14760.5 118.978C14765.4 116.483 14770.5 114.309 14775.7 112.485C14782.7 110.06 14789.9 108.254 14797.4 107.131C14768.9 129.267 14750.5 163.882 14750.5 202.785C14750.5 275.865 14817.9 333.203 14889.6 322.438C14878.7 330.878 14866.4 337.504 14853 341.861C14777 366.61 14694.5 307.962 14694.5 226.785Z" fill="#B4ADEA"/>
<path d="M14926 310.845C14965.4 290.909 14992.5 250.006 14992.5 202.785C14992.5 120.949 14908.7 62.2633 14832.5 88.2072C14819.7 92.5642 14807.9 99.0072 14797.4 107.131C14869.1 96.3658 14936.5 153.704 14936.5 226.785C14936.5 265.688 14918.1 300.303 14889.6 322.438C14902.5 320.5 14914.8 316.523 14926 310.845Z" fill="#B4ADEA"/>
<path d="M14832.5 88.2072L14760.5 118.978M14832.5 88.2072C14819.7 92.5642 14807.9 99.0072 14797.4 107.131M14832.5 88.2072C14908.7 62.2633 14992.5 120.949 14992.5 202.785C14992.5 250.006 14965.5 290.909 14926 310.845M14926 310.845L14853 341.861M14926 310.845C14914.8 316.523 14902.5 320.5 14889.6 322.438M14853 341.861C14866.4 337.504 14878.7 330.878 14889.6 322.438M14853 341.861C14777 366.61 14694.5 307.962 14694.5 226.785C14694.5 179.763 14721.3 139.006 14760.5 118.978M14760.5 118.978C14771.9 113.165 14784.3 109.098 14797.4 107.131M14889.6 322.438C14918.1 300.303 14936.5 265.688 14936.5 226.785C14936.5 153.704 14869.1 96.3658 14797.4 107.131M14889.6 322.438C14817.9 333.203 14750.5 275.865 14750.5 202.785C14750.5 163.882 14768.9 129.267 14797.4 107.131" stroke="#021F25" stroke-width="5"/>
<path d="M13012.5 202.785C13012.5 250.006 13039.5 290.909 13079 310.845C13090.2 316.523 13102.5 320.5 13115.4 322.438C13187.1 333.203 13254.5 275.865 13254.5 202.785C13254.5 163.882 13236.1 129.267 13207.6 107.131C13197.1 99.0072 13185.3 92.5642 13172.5 88.2072C13096.3 62.2633 13012.5 120.949 13012.5 202.785Z" fill="#B4ADEA"/>
<path d="M13172.5 88.2072L13244.5 118.978M13172.5 88.2072C13185.3 92.5642 13197.1 99.0072 13207.6 107.131M13172.5 88.2072C13096.3 62.2633 13012.5 120.949 13012.5 202.785C13012.5 250.006 13039.5 290.909 13079 310.845M13079 310.845L13152 341.861M13079 310.845C13090.2 316.523 13102.5 320.5 13115.4 322.438M13152 341.861C13138.6 337.504 13126.3 330.878 13115.4 322.438M13152 341.861C13228 366.61 13310.5 307.962 13310.5 226.785C13310.5 179.763 13283.7 139.006 13244.5 118.978M13244.5 118.978C13233.1 113.165 13220.7 109.098 13207.6 107.131M13115.4 322.438C13086.9 300.303 13068.5 265.688 13068.5 226.785C13068.5 153.704 13135.9 96.3658 13207.6 107.131M13115.4 322.438C13187.1 333.203 13254.5 275.865 13254.5 202.785C13254.5 163.882 13236.1 129.267 13207.6 107.131" stroke="#021F25" stroke-width="5"/>
<path d="M18649.4 322.438C18620.9 300.303 18602.5 265.688 18602.5 226.785C18602.5 153.704 18669.9 96.3658 18741.6 107.131C18770.1 129.267 18788.5 163.882 18788.5 202.785C18788.5 275.865 18721.1 333.203 18649.4 322.438Z" fill="white"/>
<path d="M18613 310.845C18573.5 290.909 18546.5 250.006 18546.5 202.785C18546.5 120.949 18630.3 62.2633 18706.5 88.2072C18719.3 92.5642 18731.1 99.0072 18741.6 107.131C18669.9 96.3658 18602.5 153.704 18602.5 226.785C18602.5 265.688 18620.9 300.303 18649.4 322.438C18636.5 320.5 18624.2 316.523 18613 310.845Z" fill="#B4ADEA"/>
<path d="M18706.5 88.2072L18778.5 118.978M18706.5 88.2072C18719.3 92.5642 18731.1 99.0072 18741.6 107.131M18706.5 88.2072C18630.3 62.2633 18546.5 120.949 18546.5 202.785C18546.5 250.006 18573.5 290.909 18613 310.845M18613 310.845L18686 341.861M18613 310.845C18624.2 316.523 18636.5 320.5 18649.4 322.438M18686 341.861C18672.6 337.504 18660.3 330.878 18649.4 322.438M18686 341.861C18762 366.61 18844.5 307.962 18844.5 226.785C18844.5 179.763 18817.7 139.006 18778.5 118.978M18778.5 118.978C18767.1 113.165 18754.7 109.098 18741.6 107.131M18649.4 322.438C18620.9 300.303 18602.5 265.688 18602.5 226.785C18602.5 153.704 18669.9 96.3658 18741.6 107.131M18649.4 322.438C18721.1 333.203 18788.5 275.865 18788.5 202.785C18788.5 163.882 18770.1 129.267 18741.6 107.131" stroke="#021F25" stroke-width="5"/>
</svg>
