<svg width="356" height="196" viewBox="0 0 356 196" fill="none" xmlns="http://www.w3.org/2000/svg">
<path d="M161 3C73.739 3 3 73.739 3 161H40.2423H319C319 124.063 306.325 90.0864 285.088 63.1822C256.153 26.5271 211.324 3 161 3Z" fill="#007EA7"/>
<path d="M353 193L319 161C319 124.063 306.325 90.0864 285.087 63.1822C326.132 91.7188 353 139.222 353 193Z" fill="white"/>
<path d="M3 161C3 73.739 73.739 3 161 3C211.324 3 256.153 26.5271 285.088 63.1822M3 161L37 193M3 161H40.2423M319 161L353 193M319 161C319 124.063 306.325 90.0864 285.088 63.1822M319 161H40.2423M37 193H353M37 193C37 182.037 38.1166 171.334 40.2423 161M353 193C353 139.222 326.132 91.7188 285.088 63.1822" stroke="#021F25" stroke-width="5" stroke-linejoin="round"/>
</svg>
