<svg width="356" height="196" viewBox="0 0 356 196" fill="none" xmlns="http://www.w3.org/2000/svg">
<path d="M353 193H37L3 161H40.2423H319L353 193Z" fill="#007EA7"/>
<path d="M3 161C3 73.739 73.739 3 161 3C211.324 3 256.153 26.5271 285.088 63.1822C326.132 91.7188 353 139.222 353 193L319 161C319 124.063 306.325 90.0864 285.088 63.1822C259.533 45.415 228.483 35 195 35C118.702 35 55.0358 89.0806 40.2423 161H3Z" fill="white"/>
<path d="M285.088 63.1822C259.533 45.415 228.483 35 195 35C118.702 35 55.0358 89.0806 40.2423 161H3C3 73.739 73.739 3 161 3C211.324 3 256.153 26.5271 285.088 63.1822ZM285.088 63.1822C326.132 91.7188 353 139.222 353 193L319 161C319 124.063 306.325 90.0864 285.088 63.1822Z" stroke="#021F25" stroke-width="5" stroke-linejoin="round"/>
<path d="M3 161C3 73.739 73.739 3 161 3C211.324 3 256.153 26.5271 285.088 63.1822M3 161L37 193H353M3 161H40.2423M319 161L353 193M319 161C319 124.063 306.325 90.0864 285.088 63.1822M319 161H40.2423M353 193C353 139.222 326.132 91.7188 285.088 63.1822M285.088 63.1822C259.533 45.415 228.483 35 195 35C118.702 35 55.0358 89.0806 40.2423 161" stroke="#021F25" stroke-width="5" stroke-linejoin="round"/>
</svg>
