<svg width="305" height="294" viewBox="0 0 305 294" fill="none" xmlns="http://www.w3.org/2000/svg">
<path d="M248.5 38.5L212.173 58.0429L169.5 81L90 38.5L95 129.5L58.4784 170.974L36 196.5L111.366 210.049L125 212.5L143.963 244.861L171 291L215 212.5L302 195.5L243 129.5L248.5 38.5Z" fill="white"/>
<path d="M171 291L138 255.5L111.366 210.049L125 212.5L143.963 244.861L171 291Z" fill="#B4ADEA"/>
<path d="M248.5 38.5L215.5 3L212.75 48.5L212.173 58.0429L248.5 38.5Z" fill="#B4ADEA"/>
<path d="M36 196.5L3 161L58.4784 170.974L36 196.5Z" fill="#B4ADEA"/>
<path d="M136.5 45.5L215.5 3M136.5 45.5L57 3M136.5 45.5L169.5 81M215.5 3L248.5 38.5M215.5 3L212.75 48.5L212.173 58.0429M3 161L62 94M3 161L36 196.5M3 161L58.4784 170.974M62 94L57 3M62 94L95 129.5M57 3L90 38.5M169.5 81L90 38.5M169.5 81L212.173 58.0429M248.5 38.5L243 129.5L302 195.5L215 212.5L171 291M248.5 38.5L212.173 58.0429M171 291L138 255.5L111.366 210.049M171 291L143.963 244.861L125 212.5L111.366 210.049M36 196.5L111.366 210.049M36 196.5L58.4784 170.974M95 129.5L90 38.5M95 129.5L58.4784 170.974" stroke="#021F25" stroke-width="5" stroke-linejoin="round"/>
</svg>
