<svg width="305" height="294" viewBox="0 0 305 294" fill="none" xmlns="http://www.w3.org/2000/svg">
<path d="M215.5 291L136.5 248.5L57 291L62 200L3 133L58.4784 123.026L95.5 165.5L90 255L169 213.5L212.173 235.957L212.75 245.5L215.5 291Z" fill="#B4ADEA"/>
<path d="M269 134L210 200L212.173 235.957L212.75 245.5L215.5 291L248.5 255.5L243 164.5L302 98.5L215 81.5L171 3L138 38.5L111.366 83.951L36 97.5L3 133L58.4784 123.026L92 117L111.366 83.951L138 38.5L143.963 49.1389L182 117L269 134Z" fill="white"/>
<path d="M136.5 248.5L215.5 291M136.5 248.5L57 291M136.5 248.5L169.5 213M215.5 291L248.5 255.5L243 164.5M215.5 291L212.75 245.5L212.173 235.957M210 200L269 134M210 200L243 164.5M210 200L212.173 235.957M269 134L182 117M269 134L302 98.5M182 117L143.963 49.1389L138 38.5M182 117L198.5 99.25L215 81.5M138 38.5L171 3L215 81.5M138 38.5L111.366 83.951M3 133L62 200M3 133L36 97.5L111.366 83.951M3 133L58.4784 123.026M62 200L57 291M62 200L95 164.5M57 291L90 255.5M169.5 213L90 255.5M169.5 213L212.173 235.957M243 164.5L302 98.5M302 98.5L215 81.5M95 164.5L90 255.5M95 164.5L58.4784 123.026M111.366 83.951L92 117L58.4784 123.026" stroke="#021F25" stroke-width="5" stroke-linejoin="round"/>
</svg>
