<svg width="305" height="294" viewBox="0 0 305 294" fill="none" xmlns="http://www.w3.org/2000/svg">
<path d="M168.5 248.5L89.5 291L92.8268 235.957L135.5 213L215 255.5L210 164.5L246.522 123.026L302 133L243 200L248 291L168.5 248.5Z" fill="#B4ADEA"/>
<path d="M180 81.5L161.037 49.1389L167 38.5L193.634 83.951L180 81.5Z" fill="#B4ADEA"/>
<path d="M56.5 255.5L92.8268 235.957L135.5 213L215 255.5L210 164.5L246.522 123.026L269 97.5L193.634 83.951L180 81.5L161.037 49.1389L134 3L90 81.5L3 98.5L62 164.5L56.5 255.5Z" fill="white"/>
<path d="M168.5 248.5L89.5 291M168.5 248.5L248 291M168.5 248.5L135.5 213M89.5 291L56.5 255.5M89.5 291L92.8268 235.957M167 38.5L134 3M167 38.5L161.037 49.1389M167 38.5L193.634 83.951M302 133L243 200M302 133L269 97.5M302 133L246.522 123.026M243 200L248 291M243 200L210 164.5M248 291L215 255.5M135.5 213L215 255.5M135.5 213L92.8268 235.957M56.5 255.5L62 164.5L3 98.5L90 81.5L134 3M56.5 255.5L92.8268 235.957M134 3L161.037 49.1389M269 97.5L193.634 83.951M269 97.5L246.522 123.026M210 164.5L215 255.5M210 164.5L246.522 123.026M161.037 49.1389L180 81.5L193.634 83.951" stroke="#021F25" stroke-width="5" stroke-linejoin="round"/>
</svg>
