<svg width="305" height="293" viewBox="0 0 305 293" fill="none" xmlns="http://www.w3.org/2000/svg">
<path d="M182 176.5L269 159.5L270.11 159.326L243 129L248.5 38L169.5 80.5L90 38L95 129L36 196L111.366 209.549L125 212L143.963 244.361L182 176.5Z" fill="white"/>
<path d="M211 93L216.5 2L249.5 37.5L244 128.5L303 194.5L216 211.5L172 290L139 254.5L183 176L270 159L211 93Z" fill="#B4ADEA"/>
<path d="M136.5 45L215.5 2.5M136.5 45L57 2.5M136.5 45L169.5 80.5M215.5 2.5L248.5 38L243 129M215.5 2.5L212.173 57.5429M210 93.5L269 159.5M210 93.5L243 129M210 93.5L212.173 57.5429M269 159.5L182 176.5M269 159.5L302 195M182 176.5L215 212M182 176.5L143.963 244.361M138 255L171 290.5L215 212M138 255L143.963 244.361M138 255L111.366 209.549M92 176.5L3 160.5M92 176.5L125 212M92 176.5L111.366 209.549M3 160.5L62 93.5M3 160.5L36 196M62 93.5L57 2.5M62 93.5L95 129M57 2.5L90 38M169.5 80.5L90 38M169.5 80.5L212.173 57.5429M243 129L302 195M302 195L215 212M125 212L143.963 244.361M125 212L111.366 209.549M36 196L95 129M36 196L111.366 209.549M95 129L90 38" stroke="#021F25" stroke-width="5" stroke-linejoin="round"/>
</svg>
