<svg width="318" height="279" viewBox="0 0 318 279" fill="none" xmlns="http://www.w3.org/2000/svg">
<path d="M175.5 36L167.966 49.1029L56.6417 242.71L37.5 276L315 274.5L175.5 36Z" fill="#F96557"/>
<path d="M141 3L3 243L56.6417 242.71L167.966 49.1029L141 3Z" fill="white"/>
<path d="M37.5 276L315 274.5L175.5 36M37.5 276L3 243M37.5 276L56.6417 242.71M175.5 36L141 3M175.5 36L167.966 49.1029M3 243L141 3M3 243L56.6417 242.71M141 3L167.966 49.1029M56.6417 242.71L167.966 49.1029" stroke="#021F25" stroke-width="5" stroke-linejoin="round"/>
</svg>
