<svg width="318" height="279" viewBox="0 0 318 279" fill="none" xmlns="http://www.w3.org/2000/svg">
<path d="M142.5 36L150.034 49.1029L261.358 242.71L280.5 276L3 274.5L142.5 36Z" fill="white"/>
<path d="M177 3L142.5 36L150.034 49.1029L177 3Z" fill="#F96557"/>
<path d="M315 243L280.5 276L261.358 242.71L315 243Z" fill="#F96557"/>
<path d="M280.5 276L3 274.5L142.5 36M280.5 276L315 243M280.5 276L261.358 242.71M142.5 36L177 3M142.5 36L150.034 49.1029M315 243L177 3M315 243L261.358 242.71M177 3L150.034 49.1029M261.358 242.71L150.034 49.1029" stroke="#021F25" stroke-width="5" stroke-linejoin="round"/>
</svg>
