<svg width="314" height="242" viewBox="0 0 314 242" fill="none" xmlns="http://www.w3.org/2000/svg">
<path d="M185.264 238.479C185.264 238.479 193.22 123.52 139.717 124.091C138.986 124.098 138.267 124.127 137.559 124.176C125.257 157.784 128.893 205.85 128.893 205.85L94.7662 237.714C94.7662 237.714 93.7188 223.867 94.6506 205.841C96.3448 173.064 104.583 126.468 137.559 124.176C144.124 106.242 155.227 92.4242 173.844 92.2258C227.347 91.6557 219.391 206.614 219.391 206.614L185.264 238.479Z" fill="#B8E2C8"/>
<path d="M174.197 3.22622C135.392 3.07224 100.289 22.9224 75.3093 54.9159C51.7612 85.0756 37.2086 126.026 37.0294 171.183L36.8925 205.683C59.1361 205.771 78.3236 205.819 94.6502 205.841C107.919 205.858 119.298 205.859 128.893 205.849C128.893 205.849 125.257 157.784 137.559 124.176C144.123 106.241 155.227 92.4239 173.844 92.2255C227.346 91.6554 219.39 206.613 219.39 206.613C236.338 206.781 256.052 206.832 275.891 206.571C287.353 206.419 298.857 206.164 309.894 205.766L310.027 172.267C310.396 79.2073 249.583 3.52537 174.197 3.22622Z" fill="white"/>
<path d="M275.901 204.132L275.891 206.571M2.76597 237.548L2.90287 203.048C3.15751 138.879 32.4373 83.2024 75.3095 54.9162M2.76597 237.548C43.0873 237.708 73.3665 237.735 94.766 237.714M2.76597 237.548L36.8927 205.683M275.768 237.631C245.628 238.717 212.004 238.743 185.264 238.479M275.768 237.631L309.895 205.767M275.768 237.631L275.891 206.571M94.766 237.714L128.893 205.85M94.766 237.714C94.766 237.714 93.7186 223.867 94.6504 205.841M185.264 238.479C185.264 238.479 193.22 123.52 139.717 124.091C138.986 124.098 138.267 124.127 137.559 124.176M185.264 238.479L219.39 206.614M36.8927 205.683L37.0296 171.184C37.2088 126.027 51.7614 85.0759 75.3095 54.9162M36.8927 205.683C59.1363 205.772 78.3238 205.819 94.6504 205.841M309.895 205.767L310.027 172.267C310.397 79.2076 249.583 3.52564 174.197 3.2265C135.392 3.07251 100.289 22.9227 75.3095 54.9162M309.895 205.767C298.857 206.164 287.353 206.42 275.891 206.571M128.893 205.85C128.893 205.85 125.257 157.784 137.559 124.176M128.893 205.85C119.298 205.859 107.919 205.859 94.6504 205.841M219.39 206.614C219.39 206.614 227.347 91.6556 173.844 92.2258C155.227 92.4242 144.124 106.242 137.559 124.176M219.39 206.614C236.339 206.781 256.052 206.832 275.891 206.571" stroke="#021F25" stroke-width="5" stroke-linejoin="round"/>
</svg>
