<svg width="313" height="241" viewBox="0 0 313 241" fill="none" xmlns="http://www.w3.org/2000/svg">
<path d="M3 69.7574C3 162.817 64.1131 238.257 139.5 238.257C178.306 238.257 213.329 218.268 238.182 186.176C261.61 155.923 276 114.915 276 69.7574V35.2574C253.756 35.2574 234.569 35.2857 218.242 35.3288C204.973 35.3639 193.594 35.4087 184 35.4561C184 35.4561 187.826 83.5067 175.658 117.163C169.164 135.124 158.116 148.985 139.5 149.257C86 150.04 93.5 35.0511 93.5 35.0511C76.5512 34.9507 56.8378 34.9779 37 35.3182C25.5385 35.5148 14.0354 35.816 3 36.2574V69.7574Z" fill="#B8E2C8"/>
<path d="M310 3.25739C269.678 3.25739 239.399 3.35037 218 3.45615L184 35.4561C193.594 35.4087 204.973 35.3639 218.242 35.3288C234.569 35.2857 253.756 35.2574 276 35.2574L310 3.25739Z" fill="white"/>
<path d="M127.5 3.05106C100.759 2.89273 67.1357 3.05196 37 4.25739L3 36.2574C14.0354 35.816 25.5385 35.5148 37 35.3182C56.8378 34.9779 76.5512 34.9507 93.5 35.0511L127.5 3.05106Z" fill="white"/>
<path d="M37 37.7574V35.3182M310 3.25739V37.7574C310 101.928 280.941 157.72 238.182 186.176M310 3.25739C269.678 3.25739 239.399 3.35037 218 3.45615M310 3.25739L276 35.2574M37 4.25739C67.1357 3.05196 100.759 2.89273 127.5 3.05106M37 4.25739L3 36.2574M37 4.25739V35.3182M218 3.45615L184 35.4561M218 3.45615C218 3.45615 219.102 17.2989 218.242 35.3288M127.5 3.05106C127.5 3.05106 120 118.04 173.5 117.257C174.231 117.247 174.95 117.215 175.658 117.163M127.5 3.05106L93.5 35.0511M276 35.2574V69.7574C276 114.915 261.61 155.923 238.182 186.176M276 35.2574C253.756 35.2574 234.569 35.2857 218.242 35.3288M3 36.2574V69.7574C3 162.817 64.1131 238.257 139.5 238.257C178.306 238.257 213.329 218.268 238.182 186.176M3 36.2574C14.0354 35.816 25.5385 35.5148 37 35.3182M184 35.4561C184 35.4561 187.826 83.5067 175.658 117.163M184 35.4561C193.594 35.4087 204.973 35.3639 218.242 35.3288M93.5 35.0511C93.5 35.0511 86 150.04 139.5 149.257C158.116 148.985 169.164 135.124 175.658 117.163M93.5 35.0511C76.5512 34.9507 56.8378 34.9779 37 35.3182" stroke="#021F25" stroke-width="5" stroke-linejoin="round"/>
</svg>
