<svg width="313" height="241" viewBox="0 0 313 241" fill="none" xmlns="http://www.w3.org/2000/svg">
<path d="M37 203.5C37 110.44 98.1131 35 173.5 35C196.903 35 218.931 42.2705 238.182 55.0817C261.61 85.3346 276 126.343 276 171.5V206L310 238V203.5C310 139.33 280.941 83.5378 238.182 55.0817C213.329 22.9893 178.306 3 139.5 3C64.1131 3 3 78.44 3 171.5V205L37 237V205.939V203.5Z" fill="white"/>
<path d="M310 238C269.678 238 239.399 237.907 218 237.801L184 205.801C193.594 205.849 204.973 205.894 218.242 205.929C234.569 205.972 253.756 206 276 206L310 238Z" fill="#B8E2C8"/>
<path d="M127.5 238.206C100.759 238.365 67.1357 238.205 37 237L3 205C14.0354 205.441 25.5385 205.743 37 205.939C56.8378 206.279 76.5512 206.307 93.5 206.206L127.5 238.206Z" fill="#B8E2C8"/>
<path d="M310 238V203.5C310 139.33 280.941 83.5378 238.182 55.0817M310 238C269.678 238 239.399 237.907 218 237.801L184 205.801M310 238L276 206M127.5 238.206C100.759 238.365 67.1357 238.205 37 237L3 205M127.5 238.206C127.5 238.206 120 123.218 173.5 124C174.231 124.011 174.95 124.042 175.658 124.094M127.5 238.206L93.5 206.206M276 206V171.5C276 126.343 261.61 85.3346 238.182 55.0817M276 206C253.756 206 234.569 205.972 218.242 205.929M3 205V171.5C3 78.44 64.1131 3 139.5 3C178.306 3 213.329 22.9893 238.182 55.0817M3 205C14.0354 205.441 25.5385 205.743 37 205.939M184 205.801C184 205.801 187.826 157.751 175.658 124.094M184 205.801C193.594 205.849 204.973 205.894 218.242 205.929M93.5 206.206C93.5 206.206 86 91.2175 139.5 92C158.116 92.2723 169.164 106.134 175.658 124.094M93.5 206.206C76.5512 206.307 56.8378 206.279 37 205.939M238.182 55.0817C218.931 42.2705 196.903 35 173.5 35C98.1131 35 37 110.44 37 203.5V205.939M175.658 124.094C208.625 126.517 216.678 173.145 218.242 205.929" stroke="#021F25" stroke-width="5" stroke-linejoin="round"/>
</svg>
