<svg width="313" height="241" viewBox="0 0 313 241" fill="none" xmlns="http://www.w3.org/2000/svg">
<path d="M129 205.801L95 237.801C95 237.801 93.8976 223.958 94.7578 205.929C108.027 205.894 119.406 205.849 129 205.801Z" fill="#B8E2C8"/>
<path d="M310 205L276 237V205.939C287.461 205.743 298.965 205.441 310 205Z" fill="#B8E2C8"/>
<path d="M139.5 35C116.097 35 94.069 42.2705 74.8183 55.0817C32.0586 83.5378 3 139.33 3 203.5V238C43.3217 238 73.6007 237.907 95 237.801C95 237.801 93.8977 223.958 94.7579 205.929C96.322 173.145 104.375 126.517 137.342 124.094C138.05 124.042 138.769 124.011 139.5 124C193 123.218 185.5 238.206 185.5 238.206C212.241 238.365 245.864 238.205 276 237V205.939V203.5C276 110.44 214.887 35 139.5 35Z" fill="white"/>
<path d="M276 237C245.864 238.205 212.241 238.365 185.5 238.206C185.5 238.206 193 123.218 139.5 124C138.769 124.011 138.05 124.042 137.342 124.094M276 237L310 205M276 237V205.939M95 237.801C73.6007 237.907 43.3217 238 3 238V203.5C3 139.33 32.0586 83.5378 74.8183 55.0817M95 237.801L129 205.801M95 237.801C95 237.801 93.8977 223.958 94.7579 205.929M310 205V171.5C310 78.44 248.887 3 173.5 3C134.694 3 99.671 22.9893 74.8183 55.0817M310 205C298.965 205.441 287.462 205.743 276 205.939M129 205.801C129 205.801 125.174 157.751 137.342 124.094M129 205.801C119.406 205.849 108.027 205.894 94.7579 205.929M74.8183 55.0817C94.069 42.2705 116.097 35 139.5 35C214.887 35 276 110.44 276 203.5V205.939M137.342 124.094C104.375 126.517 96.322 173.145 94.7579 205.929" stroke="#021F25" stroke-width="5" stroke-linejoin="round"/>
</svg>
