<svg width="300" height="300" viewBox="0 0 300 300" fill="none" xmlns="http://www.w3.org/2000/svg">
<g clip-path="url(#clip0)">
<rect x="57.6604" y="-21" width="5" height="107" transform="rotate(45 57.6604 -21)" fill="#021F25"/>
<rect x="175.345" y="-58.6841" width="5" height="312.899" transform="rotate(45 175.345 -58.6841)" fill="#021F25"/>
<rect x="267.197" y="-70.9439" width="5" height="507.854" transform="rotate(45 267.197 -70.9439)" fill="#021F25"/>
<rect x="364.948" y="-8.57489" width="5" height="507.854" transform="rotate(45 364.948 -8.57489)" fill="#021F25"/>
<rect x="462.698" y="53.7941" width="5" height="507.854" transform="rotate(45 462.698 53.7941)" fill="#021F25"/>
<rect x="368.316" y="-91.9431" width="5" height="649.796" transform="rotate(45 368.316 -91.9431)" fill="#021F25"/>
<rect x="466.067" y="-29.5741" width="5" height="649.796" transform="rotate(45 466.067 -29.5741)" fill="#021F25"/>
<rect x="563.817" y="32.7949" width="5" height="649.796" transform="rotate(45 563.817 32.7949)" fill="#021F25"/>
<rect x="67.6604" y="-11" width="5" height="107" transform="rotate(45 67.6604 -11)" fill="#021F25"/>
<rect x="169.992" y="-33.3318" width="5" height="348.659" transform="rotate(45 169.992 -33.3318)" fill="#021F25"/>
<rect x="308.718" y="-92.1791" width="5" height="548.532" transform="rotate(45 308.718 -92.1791)" fill="#021F25"/>
<rect x="406.469" y="-29.8101" width="5" height="548.532" transform="rotate(45 406.469 -29.8101)" fill="#021F25"/>
<rect x="504.22" y="32.5589" width="5" height="548.532" transform="rotate(45 504.22 32.5589)" fill="#021F25"/>
<rect x="309.469" y="-12.8101" width="5" height="548.532" transform="rotate(45 309.469 -12.8101)" fill="#021F25"/>
<rect x="407.22" y="49.5589" width="5" height="548.532" transform="rotate(45 407.22 49.5589)" fill="#021F25"/>
<rect x="504.971" y="111.928" width="5" height="548.532" transform="rotate(45 504.971 111.928)" fill="#021F25"/>
<rect x="49.6604" y="-33" width="5" height="107" transform="rotate(45 49.6604 -33)" fill="#021F25"/>
<rect x="119.486" y="-22.8255" width="5" height="231.358" transform="rotate(45 119.486 -22.8255)" fill="#021F25"/>
<rect x="242.114" y="-65.5198" width="5" height="489.364" transform="rotate(45 242.114 -65.5198)" fill="#021F25"/>
<rect x="339.865" y="-3.15082" width="5" height="489.364" transform="rotate(45 339.865 -3.15082)" fill="#021F25"/>
<rect x="437.616" y="59.2182" width="5" height="489.364" transform="rotate(45 437.616 59.2182)" fill="#021F25"/>
<rect x="347.778" y="-91.0633" width="5" height="637.733" transform="rotate(45 347.778 -91.0633)" fill="#021F25"/>
<rect x="445.528" y="-28.6944" width="5" height="637.733" transform="rotate(45 445.528 -28.6944)" fill="#021F25"/>
<rect x="543.279" y="33.6746" width="5" height="637.733" transform="rotate(45 543.279 33.6746)" fill="#021F25"/>
<rect x="38.6604" y="-42" width="5" height="107" transform="rotate(45 38.6604 -42)" fill="#021F25"/>
<rect x="135.025" y="-58.3649" width="5" height="297.574" transform="rotate(45 135.025 -58.3649)" fill="#021F25"/>
<rect x="277.785" y="-121.369" width="5" height="556.544" transform="rotate(45 277.785 -121.369)" fill="#021F25"/>
<rect x="375.536" y="-59" width="5" height="556.544" transform="rotate(45 375.536 -59)" fill="#021F25"/>
<rect x="473.287" y="3.36899" width="5" height="556.544" transform="rotate(45 473.287 3.36899)" fill="#021F25"/>
<rect x="278.536" y="-42" width="5" height="556.544" transform="rotate(45 278.536 -42)" fill="#021F25"/>
<rect x="376.287" y="20.369" width="5" height="556.544" transform="rotate(45 376.287 20.369)" fill="#021F25"/>
<rect x="474.037" y="82.738" width="5" height="556.544" transform="rotate(45 474.037 82.738)" fill="#021F25"/>
</g>
<defs>
<clipPath id="clip0">
<rect width="300" height="300" fill="white"/>
</clipPath>
</defs>
</svg>
